 <svg
                    xmlns="http://www.w3.org/2000/svg"
                    width="60"
                    height="60"
                    viewBox="0 0 60 60"
                    fill="none"
                  >
                    <svg
                      xmlns="http://www.w3.org/2000/svg"
                      width="60"
                      height="60"
                      viewBox="0 0 60 60"
                      fill="none"
                    >
                      <rect
                        width="60"
                        height="60"
                        rx="30"
                        fill="url(#paint0_linear_160_3151)"
                      />
                      <rect
                        x="0.5"
                        y="0.5"
                        width="59"
                        height="59"
                        rx="29.5"
                        stroke="white"
                        stroke-opacity="0.12"
                      />
                      <path
                        fill-rule="evenodd"
                        clip-rule="evenodd"
                        d="M30.0605 7.01392C43.2937 7.01392 53.9873 17.7075 53.9873 31.0744C53.9873 38.1588 50.9129 44.575 46.1008 48.9861C42.8927 31.8764 17.2282 31.8764 14.0202 48.9861C9.07439 44.575 6 38.1588 6 31.0744C6 17.7075 16.6935 7.01392 30.0605 7.01392ZM30.0605 19.0441C34.6052 19.0441 38.348 22.7869 38.348 27.3316C38.348 31.8764 34.6052 35.6191 30.0605 35.6191C25.5157 35.6191 21.773 31.8764 21.773 27.3316C21.773 22.7869 25.5157 19.0441 30.0605 19.0441Z"
                        fill="white"
                        fill-opacity="0.8"
                      />
                      <defs>
                        <linearGradient
                          id="paint0_linear_160_3151"
                          x1="9.19355"
                          y1="-1.84958e-06"
                          x2="73.7512"
                          y2="26.4991"
                          gradientUnits="userSpaceOnUse"
                        >
                          <stop stop-color="#888888" stop-opacity="0.5" />
                          <stop
                            offset="0.373765"
                            stop-color="#444444"
                            stop-opacity="0.27"
                          />
                          <stop
                            offset="0.602076"
                            stop-color="#5D5A5A"
                            stop-opacity="0.291875"
                          />
                          <stop
                            offset="1"
                            stop-color="#888080"
                            stop-opacity="0.33"
                          />
                        </linearGradient>
                      </defs>
                    </svg>
                  </svg>