 <svg
                    xmlns="http://www.w3.org/2000/svg"
                    width="12"
                    height="17"
                    viewBox="0 0 12 17"
                    fill="none"
                  >
                    <path
                      d="M10.9847 1.12831C10.8657 1.02906 10.7245 0.950306 10.569 0.896575C10.4134 0.842843 10.2467 0.815186 10.0783 0.815186C9.90996 0.815186 9.74323 0.842843 9.58771 0.896575C9.43219 0.950306 9.29093 1.02906 9.17201 1.12831L0.661795 8.21394C0.566858 8.29283 0.491538 8.38653 0.440148 8.48968C0.388757 8.59282 0.362305 8.7034 0.362305 8.81507C0.362305 8.92674 0.388757 9.03732 0.440148 9.14047C0.491538 9.24362 0.566858 9.33732 0.661795 9.4162L9.17201 16.5018C9.67382 16.9196 10.4829 16.9196 10.9847 16.5018C11.4865 16.084 11.4865 15.4104 10.9847 14.9926L3.57022 8.81081L10.9949 2.629C11.4865 2.21972 11.4865 1.53759 10.9847 1.12831Z"
                      fill="white"
                    />
                  </svg>