 <svg
                    xmlns="http://www.w3.org/2000/svg"
                    width="12"
                    height="17"
                    viewBox="0 0 12 17"
                    fill="none"
                  >
                    <path
                      d="M0.677448 0.945696C0.79636 0.846439 0.937623 0.767689 1.09314 0.713958C1.24867 0.660226 1.41539 0.632568 1.58377 0.632568C1.75215 0.632568 1.91888 0.660226 2.0744 0.713958C2.22992 0.767689 2.37118 0.846439 2.4901 0.945696L11.0003 8.03133C11.0953 8.11021 11.1706 8.20391 11.222 8.30706C11.2734 8.41021 11.2998 8.52078 11.2998 8.63246C11.2998 8.74413 11.2734 8.8547 11.222 8.95785C11.1706 9.061 11.0953 9.1547 11.0003 9.23358L2.4901 16.3192C1.98829 16.737 1.17925 16.737 0.677448 16.3192C0.175643 15.9014 0.175643 15.2278 0.677448 14.81L8.09189 8.62819L0.66721 2.44638C0.175644 2.0371 0.175643 1.35497 0.677448 0.945696Z"
                      fill="white"
                    />
                  </svg>