<svg xmlns="http://www.w3.org/2000/svg" width="26" height="33" viewBox="0 0 26 33" fill="none">
  <g clip-path="url(#clip0_5985_9691)">
    <path d="M25.2496 14.425C25.2246 12.775 24.8496 11.125 24.1996 9.62502C23.5496 8.12502 22.5746 6.75002 21.3996 5.62502C20.2246 4.50002 18.8246 3.60002 17.3246 3.02502C15.8246 2.42502 14.1996 2.15002 12.5996 2.17502C10.9996 2.20002 9.39961 2.55002 7.94961 3.17502C6.49961 3.82502 5.17461 4.75002 4.07461 5.87502C2.99961 7.02502 2.12461 8.37502 1.54961 9.85002C0.999611 11.3 0.724611 12.875 0.749611 14.425C0.774611 15.975 1.12461 17.525 1.74961 18.925C2.37461 20.325 3.27461 21.6 4.37461 22.675C5.47461 23.725 6.77461 24.575 8.19961 25.125C9.59961 25.675 11.1246 25.95 12.6246 25.9C14.1246 25.875 15.5996 25.55 16.9746 24.95C18.3246 24.35 19.5746 23.475 20.5996 22.425C21.6246 21.35 22.4246 20.1 22.9496 18.725C23.2746 17.9 23.4996 17.025 23.5996 16.15C23.6246 16.15 23.6496 16.15 23.6996 16.15C24.5746 16.15 25.2746 15.45 25.2746 14.575C25.2496 14.5 25.2496 14.45 25.2496 14.425ZM22.7496 18.6C22.1746 19.925 21.3246 21.1 20.2996 22.075C19.2746 23.05 18.0496 23.825 16.7496 24.35C15.4246 24.85 14.0246 25.1 12.6246 25.075C11.2246 25.05 9.84961 24.725 8.57461 24.175C7.29961 23.625 6.17461 22.8 5.22461 21.8C4.27461 20.8 3.52461 19.625 3.04961 18.375C2.54961 17.1 2.32461 15.75 2.34961 14.4C2.37461 13.05 2.67461 11.725 3.22461 10.5C3.77461 9.27502 4.54961 8.17502 5.49961 7.27502C6.44961 6.37502 7.57461 5.65002 8.79961 5.17502C10.0246 4.70002 11.3246 4.47502 12.6246 4.52502C13.9246 4.55002 15.1996 4.85002 16.3746 5.37502C17.5496 5.90002 18.5996 6.65002 19.4746 7.57502C20.3496 8.50002 21.0246 9.57502 21.4746 10.75C21.9246 11.925 22.1246 13.175 22.0996 14.425C22.0996 14.475 22.0996 14.5 22.0996 14.55C22.0996 15.375 22.7246 16.025 23.4996 16.125C23.3496 16.975 23.0996 17.825 22.7496 18.6Z" fill="url(#paint0_linear_5985_9691)"/>
  </g>
  <defs>
    <linearGradient id="paint0_linear_5985_9691" x1="14" y1="12.5" x2="21" y2="22.5" gradientUnits="userSpaceOnUse">
      <stop stop-color="#D20065"/>
      <stop offset="1" stop-color="#FF9DCC" stop-opacity="0.26"/>
    </linearGradient>
    <clipPath id="clip0_5985_9691">
      <rect width="25" height="31.25" fill="white" transform="translate(0.5 0.875)"/>
    </clipPath>
  </defs>
</svg>