<svg width="43" height="31" viewBox="0 0 43 31" fill="none" xmlns="http://www.w3.org/2000/svg">
<rect y="0.75" width="30.7352" height="29.4545" rx="8.41559" fill="#E57FC0"/>
<rect x="13.061" y="0.75" width="29.4545" height="29.4545" rx="8.41559" fill="#CD3EFF"/>
<rect x="3.98486" y="1.29547" width="34.9091" height="29.4545" rx="8.41559" fill="url(#paint0_linear_3739_7977)"/>
<rect x="3.98486" y="1.29547" width="34.9091" height="29.4545" rx="8.41559" fill="white" fill-opacity="0.64"/>
<path d="M21.0447 8.65271C20.4852 8.65271 20.0317 9.10624 20.0317 9.6657V14.2508H15.4466C14.8871 14.2508 14.4336 14.7043 14.4336 15.2638V16.2235C14.4336 16.7829 14.8871 17.2364 15.4466 17.2364H20.0317V21.8215C20.0317 22.381 20.4852 22.8345 21.0447 22.8345H22.0043C22.5638 22.8345 23.0173 22.381 23.0173 21.8215V17.2364H27.6024C28.1619 17.2364 28.6154 16.7829 28.6154 16.2235V15.2638C28.6154 14.7043 28.1619 14.2508 27.6024 14.2508H23.0173V9.6657C23.0173 9.10624 22.5638 8.65271 22.0043 8.65271H21.0447Z" fill="#191721"/>
<defs>
<linearGradient id="paint0_linear_3739_7977" x1="38.894" y1="30.75" x2="9.85947" y2="-3.66123" gradientUnits="userSpaceOnUse">
<stop stop-color="#CD3EFF"/>
<stop offset="1" stop-color="#FFB2E0"/>
</linearGradient>
</defs>
</svg>
