<svg xmlns="http://www.w3.org/2000/svg" width="32" height="33" viewBox="0 0 32 33" fill="none">
  <path d="M25.1251 17.7778C25.8876 17.7778 26.6188 18.0807 27.158 18.6199C27.6972 19.1591 28.0001 19.8903 28.0001 20.6528V25.1251C28.0001 25.8876 27.6972 26.6188 27.158 27.158C26.6188 27.6972 25.8876 28.0001 25.1251 28.0001H20.6528C19.8903 28.0001 19.1591 27.6972 18.6199 27.158C18.0807 26.6188 17.7778 25.8876 17.7778 25.1251V20.6528C17.7778 19.8903 18.0807 19.1591 18.6199 18.6199C19.1591 18.0807 19.8903 17.7778 20.6528 17.7778H25.1251Z" fill="url(#paint0_linear_2308_4944)"/>
  <path d="M12.3472 17.7778C13.1097 17.7778 13.841 18.0807 14.3802 18.6198C14.9193 19.159 15.2222 19.8903 15.2222 20.6528V25.125C15.2222 25.8875 14.9193 26.6188 14.3802 27.1579C13.841 27.6971 13.1097 28 12.3472 28H7.875C7.1125 28 6.38124 27.6971 5.84207 27.1579C5.3029 26.6188 5 25.8875 5 25.125V20.6528C5 19.8903 5.3029 19.159 5.84207 18.6198C6.38124 18.0807 7.1125 17.7778 7.875 17.7778H12.3472ZM25.125 5C25.8875 5 26.6188 5.3029 27.1579 5.84207C27.6971 6.38124 28 7.1125 28 7.875V12.3472C28 13.1097 27.6971 13.841 27.1579 14.3802C26.6188 14.9193 25.8875 15.2222 25.125 15.2222H20.6528C19.8903 15.2222 19.159 14.9193 18.6198 14.3802C18.0807 13.841 17.7778 13.1097 17.7778 12.3472V7.875C17.7778 7.1125 18.0807 6.38124 18.6198 5.84207C19.159 5.3029 19.8903 5 20.6528 5H25.125Z" fill="url(#paint1_linear_2308_4944)"/>
  <path d="M12.3472 5C13.1097 5 13.841 5.3029 14.3802 5.84207C14.9193 6.38123 15.2222 7.1125 15.2222 7.875V12.3472C15.2222 13.1097 14.9193 13.841 14.3802 14.3802C13.841 14.9193 13.1097 15.2222 12.3472 15.2222H7.875C7.1125 15.2222 6.38123 14.9193 5.84207 14.3802C5.3029 13.841 5 13.1097 5 12.3472V7.875C5 7.1125 5.3029 6.38123 5.84207 5.84207C6.38123 5.3029 7.1125 5 7.875 5H12.3472Z" fill="url(#paint2_linear_2308_4944)"/>
  <mask id="mask0_2308_4944" style="mask-type:alpha" maskUnits="userSpaceOnUse" x="5" y="5" width="23" height="23">
    <path d="M12.3472 17.7778C13.1097 17.7778 13.841 18.0807 14.3802 18.6198C14.9193 19.159 15.2222 19.8903 15.2222 20.6528V25.125C15.2222 25.8875 14.9193 26.6188 14.3802 27.1579C13.841 27.6971 13.1097 28 12.3472 28H7.875C7.1125 28 6.38124 27.6971 5.84207 27.1579C5.3029 26.6188 5 25.8875 5 25.125V20.6528C5 19.8903 5.3029 19.159 5.84207 18.6198C6.38124 18.0807 7.1125 17.7778 7.875 17.7778H12.3472ZM25.125 5C25.8875 5 26.6188 5.3029 27.1579 5.84207C27.6971 6.38124 28 7.1125 28 7.875V12.3472C28 13.1097 27.6971 13.841 27.1579 14.3802C26.6188 14.9193 25.8875 15.2222 25.125 15.2222H20.6528C19.8903 15.2222 19.159 14.9193 18.6198 14.3802C18.0807 13.841 17.7778 13.1097 17.7778 12.3472V7.875C17.7778 7.1125 18.0807 6.38124 18.6198 5.84207C19.159 5.3029 19.8903 5 20.6528 5H25.125Z" fill="url(#paint3_linear_2308_4944)"/>
    <path d="M12.3472 5C13.1097 5 13.841 5.3029 14.3802 5.84207C14.9193 6.38124 15.2222 7.1125 15.2222 7.875V12.3472C15.2222 13.1097 14.9193 13.841 14.3802 14.3802C13.841 14.9193 13.1097 15.2222 12.3472 15.2222H7.875C7.1125 15.2222 6.38124 14.9193 5.84207 14.3802C5.3029 13.841 5 13.1097 5 12.3472V7.875C5 7.1125 5.3029 6.38124 5.84207 5.84207C6.38124 5.3029 7.1125 5 7.875 5H12.3472Z" fill="url(#paint4_linear_2308_4944)"/>
    <path d="M25.125 17.7778C25.8875 17.7778 26.6188 18.0807 27.1579 18.6198C27.6971 19.159 28 19.8903 28 20.6528V25.125C28 25.8875 27.6971 26.6188 27.1579 27.1579C26.6188 27.6971 25.8875 28 25.125 28H20.6528C19.8903 28 19.159 27.6971 18.6198 27.1579C18.0807 26.6188 17.7778 25.8875 17.7778 25.125V20.6528C17.7778 19.8903 18.0807 19.159 18.6198 18.6198C19.159 18.0807 19.8903 17.7778 20.6528 17.7778H25.125Z" fill="url(#paint5_linear_2308_4944)"/>
  </mask>
  <g mask="url(#mask0_2308_4944)">
    <circle cx="-3.30572" cy="37.5834" r="30.0278" fill="white" fill-opacity="0.4"/>
  </g>
  <defs>
    <linearGradient id="paint0_linear_2308_4944" x1="28.0001" y1="28.0001" x2="17.7778" y2="17.7778" gradientUnits="userSpaceOnUse">
      <stop stop-color="#CD3EFF"/>
      <stop offset="1" stop-color="#F9B2FF"/>
    </linearGradient>
    <linearGradient id="paint1_linear_2308_4944" x1="28" y1="28" x2="5" y2="5" gradientUnits="userSpaceOnUse">
      <stop stop-color="#CD3EFF"/>
      <stop offset="1" stop-color="#F9B2FF"/>
    </linearGradient>
    <linearGradient id="paint2_linear_2308_4944" x1="15.2222" y1="15.2222" x2="5" y2="5" gradientUnits="userSpaceOnUse">
      <stop stop-color="#CD3EFF"/>
      <stop offset="1" stop-color="#F9B2FF"/>
    </linearGradient>
    <linearGradient id="paint3_linear_2308_4944" x1="28" y1="28" x2="5" y2="5" gradientUnits="userSpaceOnUse">
      <stop stop-color="#CD3EFF"/>
      <stop offset="1" stop-color="#F9B2FF"/>
    </linearGradient>
    <linearGradient id="paint4_linear_2308_4944" x1="28" y1="28" x2="5" y2="5" gradientUnits="userSpaceOnUse">
      <stop stop-color="#CD3EFF"/>
      <stop offset="1" stop-color="#F9B2FF"/>
    </linearGradient>
    <linearGradient id="paint5_linear_2308_4944" x1="28" y1="28" x2="5" y2="5" gradientUnits="userSpaceOnUse">
      <stop stop-color="#CD3EFF"/>
      <stop offset="1" stop-color="#F9B2FF"/>
    </linearGradient>
  </defs>
</svg>