<svg width="33" height="33" viewBox="0 0 33 33" fill="none" xmlns="http://www.w3.org/2000/svg">
<path d="M20.9575 10.3261C20.8592 10.2427 20.7425 10.1765 20.614 10.1314C20.4855 10.0862 20.3478 10.063 20.2086 10.063C20.0695 10.063 19.9317 10.0862 19.8032 10.1314C19.6747 10.1765 19.558 10.2427 19.4598 10.3261L12.4282 16.2808C12.3498 16.3471 12.2876 16.4258 12.2451 16.5125C12.2026 16.5992 12.1808 16.6921 12.1808 16.786C12.1808 16.8798 12.2026 16.9727 12.2451 17.0594C12.2876 17.1461 12.3498 17.2248 12.4282 17.2911L19.4598 23.2458C19.8744 23.5969 20.5429 23.5969 20.9575 23.2458C21.3721 22.8947 21.3721 22.3286 20.9575 21.9775L14.8313 16.7824L20.9659 11.5873C21.3721 11.2433 21.3721 10.6701 20.9575 10.3261Z" fill="white"/>
</svg>
