<svg width="19" height="18" viewBox="0 0 19 18" fill="none" xmlns="http://www.w3.org/2000/svg">
<path d="M8.81124 4.78626V1.19924C8.81124 0.817837 9.11545 0.5 9.50019 0.5C9.84467 0.5 10.1365 0.767071 10.1828 1.10536L10.1891 1.19924V4.78626L14.4659 4.78653C16.5954 4.78653 18.3449 6.53033 18.4431 8.7051L18.4475 8.89808V13.4069C18.4475 15.5969 16.7588 17.3946 14.661 17.4955L14.4748 17.5H4.52537C2.39589 17.5 0.654815 15.7649 0.557063 13.5822L0.552734 13.3884L0.552734 8.88884C0.552734 6.69883 2.23297 4.89245 4.33031 4.79102L4.51642 4.78653H8.81115V10.515L7.37958 9.03667C7.11116 8.75949 6.67273 8.75949 6.40431 9.03667C6.2701 9.17526 6.20747 9.36005 6.20747 9.54484C6.20747 9.68528 6.24755 9.83163 6.3323 9.95552L6.40431 10.0438L9.008 12.7417C9.13326 12.8803 9.31221 12.9542 9.5001 12.9542C9.64923 12.9542 9.79835 12.9029 9.9164 12.8056L9.98326 12.7417L12.5869 10.0438C12.8554 9.76659 12.8554 9.31386 12.5869 9.03667C12.3429 8.78469 11.9584 8.76178 11.6888 8.96795L11.6117 9.03667L10.189 10.515V4.78653L8.81124 4.78626Z" fill="white"/>
</svg>
