<svg width="33" height="33" viewBox="0 0 33 33" fill="none" xmlns="http://www.w3.org/2000/svg">
<circle cx="16.1667" cy="16.5" r="11.5" fill="white"/>
<path d="M9.79167 23.375L19.1667 19L23.5417 9.625L14.1667 14L9.79167 23.375ZM16.6667 17.75C16.3125 17.75 16.0158 17.63 15.7767 17.39C15.5375 17.15 15.4175 16.8533 15.4167 16.5C15.4158 16.1467 15.5358 15.85 15.7767 15.61C16.0175 15.37 16.3142 15.25 16.6667 15.25C17.0192 15.25 17.3162 15.37 17.5579 15.61C17.7996 15.85 17.9192 16.1467 17.9167 16.5C17.9142 16.8533 17.7942 17.1504 17.5567 17.3912C17.3192 17.6321 17.0225 17.7517 16.6667 17.75ZM16.6667 29C14.9375 29 13.3125 28.6717 11.7917 28.015C10.2708 27.3583 8.94792 26.4679 7.82292 25.3437C6.69792 24.2196 5.8075 22.8967 5.15167 21.375C4.49583 19.8533 4.1675 18.2283 4.16667 16.5C4.16583 14.7717 4.49417 13.1467 5.15167 11.625C5.80917 10.1033 6.69958 8.78042 7.82292 7.65625C8.94625 6.53208 10.2692 5.64167 11.7917 4.985C13.3142 4.32833 14.9392 4 16.6667 4C18.3942 4 20.0192 4.32833 21.5417 4.985C23.0642 5.64167 24.3871 6.53208 25.5104 7.65625C26.6337 8.78042 27.5246 10.1033 28.1829 11.625C28.8412 13.1467 29.1692 14.7717 29.1667 16.5C29.1642 18.2283 28.8358 19.8533 28.1817 21.375C27.5275 22.8967 26.6371 24.2196 25.5104 25.3437C24.3837 26.4679 23.0608 27.3587 21.5417 28.0162C20.0225 28.6737 18.3975 29.0017 16.6667 29Z" fill="url(#paint0_linear_3474_2331)"/>
<path fill-rule="evenodd" clip-rule="evenodd" d="M17.7178 19.6761L9.79167 23.375L13.4852 15.4604C11.8466 14.5308 9.9521 14 7.93364 14C6.66408 14 5.44356 14.21 4.30492 14.5971C4.21244 15.2168 4.16636 15.8511 4.16667 16.5C4.16751 18.2283 4.49584 19.8533 5.15167 21.375C5.80751 22.8967 6.69792 24.2196 7.82292 25.3437C8.94792 26.4679 10.2708 27.3583 11.7917 28.015C13.3125 28.6717 14.9375 29 16.6667 29C17.3325 29.0006 17.9826 28.9525 18.617 28.8556C18.9955 27.7284 19.2006 26.5216 19.2006 25.267C19.2006 23.2323 18.6613 21.3237 17.7178 19.6761ZM15.4744 16.8954C15.755 17.1483 16.0228 17.4151 16.2767 17.6947C16.0888 17.6375 15.9221 17.5359 15.7767 17.39C15.6328 17.2456 15.5321 17.0808 15.4744 16.8954Z" fill="white" fill-opacity="0.4"/>
<defs>
<linearGradient id="paint0_linear_3474_2331" x1="31.1003" y1="31.0833" x2="1.93523" y2="2.21734" gradientUnits="userSpaceOnUse">
<stop stop-color="#CD3EFF"/>
<stop offset="1" stop-color="#FFB2E0"/>
</linearGradient>
</defs>
</svg>
