<svg width="33" height="33" viewBox="0 0 33 33" fill="none" xmlns="http://www.w3.org/2000/svg">
<g clip-path="url(#clip0_1505_8635)">
<rect x="5" y="5" width="23" height="23" rx="11.5" fill="#191721"/>
<path d="M10.175 22.825L18.8 18.8L22.825 10.175L14.2 14.2L10.175 22.825ZM16.5 28C14.9092 28 13.4142 27.6979 12.015 27.0938C10.6158 26.4897 9.39875 25.6705 8.36375 24.6362C7.32875 23.602 6.50957 22.3849 5.9062 20.985C5.30283 19.5851 5.00077 18.0901 5 16.5C4.99923 14.9099 5.3013 13.4149 5.9062 12.015C6.5111 10.6151 7.33028 9.39798 8.36375 8.36375C9.39722 7.32952 10.6143 6.51033 12.015 5.9062C13.4157 5.30207 14.9107 5 16.5 5C18.0893 5 19.5843 5.30207 20.985 5.9062C22.3857 6.51033 23.6028 7.32952 24.6362 8.36375C25.6697 9.39798 26.4893 10.6151 27.0949 12.015C27.7006 13.4149 28.0023 14.9099 28 16.5C27.9977 18.0901 27.6956 19.5851 27.0938 20.985C26.492 22.3849 25.6728 23.602 24.6362 24.6362C23.5997 25.6705 22.3826 26.49 20.985 27.0949C19.5874 27.6998 18.0924 28.0015 16.5 28Z" fill="#777777"/>
</g>
<defs>
<clipPath id="clip0_1505_8635">
<rect x="5" y="5" width="23" height="23" rx="11.5" fill="white"/>
</clipPath>
</defs>
</svg>
