<svg width="32" height="33" viewBox="0 0 32 33" fill="none" xmlns="http://www.w3.org/2000/svg">
<g clip-path="url(#clip0_3474_2324)">
<path d="M3.70856 14.0798C3.70856 12.2285 4.67171 10.5104 6.25139 9.54457L13.2277 5.27998C14.9293 4.24001 17.0707 4.24001 18.7723 5.27998L25.7486 9.54457C27.3282 10.5106 28.2914 12.2285 28.2914 14.0798V23.185C28.2914 26.1204 25.9119 28.5 22.9764 28.5H9.02382C6.0884 28.5 3.7088 26.1205 3.7088 23.185L3.70856 14.0798Z" fill="#777777"/>
<g filter="url(#filter0_b_3474_2324)">
<rect x="11.0001" y="21.4004" width="9.01357" height="2.02805" rx="1.01403" fill="#191721"/>
</g>
</g>
<defs>
<filter id="filter0_b_3474_2324" x="7.7809" y="18.1812" width="15.4519" height="8.46638" filterUnits="userSpaceOnUse" color-interpolation-filters="sRGB">
<feFlood flood-opacity="0" result="BackgroundImageFix"/>
<feGaussianBlur in="BackgroundImageFix" stdDeviation="1.60958"/>
<feComposite in2="SourceAlpha" operator="in" result="effect1_backgroundBlur_3474_2324"/>
<feBlend mode="normal" in="SourceGraphic" in2="effect1_backgroundBlur_3474_2324" result="shape"/>
</filter>
<clipPath id="clip0_3474_2324">
<path d="M3.70856 4.5H28.2914V23.6713C28.2914 26.3381 26.1295 28.5 23.4627 28.5H8.53731C5.87046 28.5 3.70856 26.3381 3.70856 23.6713V4.5Z" fill="white"/>
</clipPath>
</defs>
</svg>
