<svg width="52" height="52" viewBox="0 0 52 52" fill="none" xmlns="http://www.w3.org/2000/svg">
<rect x="4" y="8" width="36" height="28" rx="6.85714" fill="#454345"/>
<rect x="12" y="8" width="36" height="28" rx="6.85714" fill="#454345"/>
<rect x="8" y="8" width="36" height="28" rx="6.85714" fill="#6A696A"/>
<path d="M25.3835 15C24.9101 15 24.5263 15.3838 24.5263 15.8571V20.5263H19.8571C19.3838 20.5263 19 20.9101 19 21.3835V22.6165C19 23.0899 19.3838 23.4737 19.8571 23.4737H24.5263V28.1429C24.5263 28.6162 24.9101 29 25.3835 29H26.6165C27.0899 29 27.4737 28.6162 27.4737 28.1429V23.4737H32.1429C32.6162 23.4737 33 23.0899 33 22.6165V21.3835C33 20.9101 32.6162 20.5263 32.1429 20.5263H27.4737V15.8571C27.4737 15.3838 27.0899 15 26.6165 15H25.3835Z" fill="#0D0B13"/>
</svg>
