<svg width="32" height="32" viewBox="0 0 32 32" fill="none" xmlns="http://www.w3.org/2000/svg">
<path fill-rule="evenodd" clip-rule="evenodd" d="M15.9752 18.4878C11.7265 18.4878 8 20.9873 8 23.8354C8 27.5 14.0034 27.5 15.9752 27.5C17.947 27.5 23.9494 27.5 23.9494 23.8115C23.9494 20.9754 20.2229 18.4878 15.9752 18.4878Z" fill="url(#paint0_linear_1532_11618)"/>
<path fill-rule="evenodd" clip-rule="evenodd" d="M22.8036 26.0888C20.9602 24.7737 18.704 24 16.267 24C13.7011 24 11.3356 24.8577 9.44141 26.3021C11.3456 27.5 14.617 27.5 15.9753 27.5C17.4067 27.5 20.9623 27.5 22.8036 26.0888Z" fill="white" fill-opacity="0.4"/>
<path fill-rule="evenodd" clip-rule="evenodd" d="M15.9335 16.1116H15.9672C18.8934 16.1116 21.2735 13.7315 21.2735 10.8052C21.2735 7.88005 18.8934 5.49997 15.9672 5.49997C13.041 5.49997 10.6609 7.88005 10.6609 10.803C10.6511 13.7195 13.0149 16.1007 15.9335 16.1116Z" fill="url(#paint1_linear_1532_11618)"/>
<defs>
<linearGradient id="paint0_linear_1532_11618" x1="23.9494" y1="27.5" x2="16.2295" y2="13.8377" gradientUnits="userSpaceOnUse">
<stop stop-color="#CD3EFF"/>
<stop offset="1" stop-color="#FFB2E0"/>
</linearGradient>
<linearGradient id="paint1_linear_1532_11618" x1="21.2735" y1="16.1116" x2="10.6619" y2="5.49895" gradientUnits="userSpaceOnUse">
<stop stop-color="#CD3EFF"/>
<stop offset="1" stop-color="#FFB2E0"/>
</linearGradient>
</defs>
</svg>
