<svg width="18" height="18" viewBox="0 0 18 18" fill="none" xmlns="http://www.w3.org/2000/svg">
<path d="M11.43 1.5H8.5095C7.1865 1.5 6.138 1.5 5.31825 1.611C4.47375 1.725 3.7905 1.965 3.252 2.50575C2.71275 3.0465 2.4735 3.73275 2.36025 4.58025C2.25 5.40375 2.25 6.456 2.25 7.78425V12.1627C2.25 13.2937 2.94 14.2627 3.92025 14.6693C3.87 13.9867 3.87 13.0305 3.87 12.234V8.4765C3.87 7.51575 3.87 6.687 3.9585 6.024C4.05375 5.313 4.26825 4.632 4.81875 4.07925C5.36925 3.5265 6.048 3.31125 6.756 3.21525C7.416 3.12675 8.241 3.12675 9.19875 3.12675H11.5013C12.4583 3.12675 13.2817 3.12675 13.9425 3.21525C13.7446 2.70997 13.399 2.27605 12.9508 1.97009C12.5026 1.66412 11.9727 1.5003 11.43 1.5Z" fill="#4E4E4E"/>
<path d="M4.94922 8.54819C4.94922 6.50369 4.94922 5.48144 5.58222 4.84619C6.21447 4.21094 7.23222 4.21094 9.26922 4.21094H11.4292C13.4655 4.21094 14.484 4.21094 15.117 4.84619C15.75 5.48144 15.7492 6.50369 15.7492 8.54819V12.1632C15.7492 14.2077 15.7492 15.2299 15.117 15.8652C14.484 16.5004 13.4655 16.5004 11.4292 16.5004H9.26922C7.23297 16.5004 6.21447 16.5004 5.58222 15.8652C4.94922 15.2299 4.94922 14.2077 4.94922 12.1632V8.54819Z" fill="#4E4E4E"/>
</svg>
