<svg width="326" height="89" viewBox="0 0 326 89" fill="none" xmlns="http://www.w3.org/2000/svg">
<rect width="326" height="88.4675" rx="12" fill="#151318"/>
<path d="M62.6563 42.2335C62.6563 42.7568 62.4931 43.2822 62.1668 43.7029C62.1056 43.7855 61.8201 44.1257 61.5957 44.3471L61.4734 44.4679C59.7602 46.3017 55.4977 49.0595 53.3358 49.9432C53.3358 49.9634 52.0509 50.4887 51.4391 50.5069H51.3575C50.4193 50.5069 49.5424 49.9855 49.0937 49.14C48.8489 48.675 48.6246 47.3263 48.6042 47.3082C48.4206 46.0984 48.2983 44.2465 48.2983 42.2133C48.2983 40.0816 48.4206 38.1471 48.645 36.9594C48.645 36.9393 48.8693 35.8523 49.0121 35.4899C49.2364 34.9686 49.6443 34.5237 50.1542 34.2419C50.5621 34.0426 50.9904 33.9399 51.4391 33.9399C51.9082 33.9621 52.7852 34.262 53.1319 34.4029C55.4161 35.2886 59.7806 38.1874 61.453 39.9588C61.7385 40.2406 62.0444 40.5848 62.126 40.6633C62.4727 41.1062 62.6563 41.6497 62.6563 42.2335Z" fill="url(#paint0_linear_228_12077)"/>
<path d="M61.9248 61.4016C61.9285 61.5008 61.9126 61.5998 61.878 61.6929C61.8434 61.7859 61.7908 61.8713 61.7232 61.944C61.6556 62.0167 61.5744 62.0754 61.4841 62.1167C61.3938 62.158 61.2962 62.1811 61.197 62.1846H49.9105C49.7096 62.1777 49.5197 62.0914 49.3824 61.9446C49.2451 61.7978 49.1717 61.6025 49.1782 61.4016V59.9028H24.0009V62.4066C23.9848 62.9358 24.1791 63.4498 24.5411 63.8361C24.9032 64.2223 25.4035 64.4494 25.9326 64.4676H86.0728C86.6013 64.4491 87.1009 64.2218 87.462 63.8354C87.8231 63.449 88.0162 62.9352 87.9989 62.4066V59.9028H61.9248V61.4016Z" fill="url(#paint1_linear_228_12077)" fill-opacity="0.12"/>
<g filter="url(#filter0_b_228_12077)">
<path d="M81.9411 27.1278C81.9408 26.7166 81.8595 26.3095 81.7018 25.9297C81.5441 25.5499 81.3131 25.2049 81.022 24.9144C80.7309 24.624 80.3854 24.3937 80.0053 24.2368C79.6252 24.0799 79.2178 23.9994 78.8066 24H32.3C31.8889 23.9996 31.4819 24.0801 31.102 24.2371C30.7221 24.3941 30.3769 24.6245 30.0861 24.915C29.7953 25.2054 29.5646 25.5504 29.4072 25.9301C29.2498 26.3098 29.1688 26.7168 29.1688 27.1278V58.1146H81.9411V27.1278Z" fill="url(#paint2_linear_228_12077)" fill-opacity="0.12"/>
</g>
<path d="M108.888 24.6899H110.028V30.0779C110.028 30.9179 110.208 31.5179 110.568 31.9019C110.928 32.2859 111.516 32.4779 112.332 32.4779C113.172 32.4779 113.76 32.2859 114.108 31.8899C114.456 31.5059 114.636 30.8939 114.636 30.0779V24.6899H115.776V29.7779C115.776 31.0259 115.512 31.9499 114.996 32.5379C114.468 33.1259 113.58 33.4139 112.332 33.4139C111.108 33.4139 110.232 33.1379 109.692 32.5619C109.152 31.9859 108.888 31.0979 108.888 29.8979V24.6899ZM118.388 27.0419V27.9179C118.832 27.2099 119.528 26.8499 120.476 26.8499C121.34 26.8499 122.024 27.1499 122.528 27.7259C123.032 28.3139 123.296 29.1059 123.296 30.1019C123.296 31.1099 123.044 31.9019 122.54 32.5019C122.036 33.1019 121.364 33.3899 120.524 33.3899C119.636 33.3899 118.94 33.0539 118.448 32.3699V35.6219H117.428V27.0419H118.388ZM120.32 27.7019C119.72 27.7019 119.252 27.9179 118.916 28.3499C118.58 28.7819 118.412 29.3699 118.412 30.1139C118.412 30.8699 118.58 31.4579 118.928 31.8899C119.276 32.3219 119.756 32.5379 120.356 32.5379C120.932 32.5379 121.4 32.3219 121.736 31.8899C122.072 31.4579 122.24 30.8699 122.24 30.1259C122.24 29.3699 122.06 28.7819 121.724 28.3499C121.388 27.9179 120.92 27.7019 120.32 27.7019ZM125.621 24.6899V33.2339H124.589V24.6899H125.621ZM129.914 26.8619C130.85 26.8619 131.57 27.1499 132.098 27.7259C132.614 28.2899 132.878 29.0819 132.878 30.1019C132.878 31.1579 132.614 31.9739 132.098 32.5499C131.57 33.1379 130.838 33.4259 129.902 33.4259C128.954 33.4259 128.21 33.1379 127.682 32.5619C127.142 31.9859 126.878 31.1939 126.878 30.1619C126.878 29.1539 127.142 28.3499 127.694 27.7499C128.234 27.1619 128.978 26.8619 129.914 26.8619ZM129.89 27.7259C129.29 27.7259 128.81 27.9419 128.462 28.3739C128.102 28.8179 127.934 29.4059 127.934 30.1379C127.934 30.9059 128.102 31.4939 128.45 31.9259C128.798 32.3579 129.29 32.5619 129.914 32.5619C130.514 32.5619 130.982 32.3459 131.318 31.9139C131.654 31.4819 131.834 30.8939 131.834 30.1259C131.834 29.3939 131.654 28.8059 131.306 28.3739C130.958 27.9419 130.49 27.7259 129.89 27.7259ZM139.576 32.4179V33.2219C139.36 33.2939 139.132 33.3419 138.88 33.3419C138.292 33.3419 137.992 33.0299 137.98 32.4299C137.392 33.0779 136.648 33.4139 135.736 33.4139C135.124 33.4139 134.644 33.2579 134.284 32.9459C133.924 32.6339 133.756 32.2019 133.756 31.6619C133.756 30.5579 134.488 29.9099 135.952 29.7299C136.048 29.7059 136.18 29.6939 136.372 29.6819C137.068 29.5979 137.488 29.5019 137.656 29.4059C137.836 29.2739 137.932 29.0579 137.932 28.7459C137.932 28.0619 137.464 27.7259 136.528 27.7259C136.048 27.7259 135.676 27.8219 135.436 28.0139C135.184 28.2059 135.04 28.5299 134.992 28.9859H133.996C134.008 28.3139 134.248 27.7979 134.704 27.4379C135.16 27.0659 135.784 26.8859 136.588 26.8859C137.452 26.8859 138.1 27.0779 138.532 27.4859C138.664 27.6059 138.76 27.7739 138.832 27.9899C138.892 28.1939 138.928 28.3619 138.94 28.4939C138.94 28.6259 138.952 28.8299 138.952 29.0939C138.952 29.3939 138.94 29.8499 138.928 30.4619C138.904 31.0859 138.904 31.5419 138.904 31.8419C138.904 32.0699 138.928 32.2259 138.988 32.3219C139.048 32.4179 139.156 32.4539 139.324 32.4539C139.384 32.4539 139.468 32.4419 139.576 32.4179ZM137.932 30.0299C137.86 30.0779 137.776 30.1259 137.704 30.1739C137.62 30.2099 137.512 30.2459 137.392 30.2699C137.272 30.2939 137.188 30.3059 137.14 30.3179C137.092 30.3299 136.996 30.3419 136.828 30.3659C136.66 30.3899 136.564 30.4019 136.564 30.4019C136.312 30.4259 136.144 30.4499 136.072 30.4619C136 30.4739 135.856 30.5099 135.64 30.5699C135.424 30.6179 135.28 30.6899 135.196 30.7619C135.1 30.8339 135.016 30.9299 134.932 31.0739C134.848 31.2179 134.812 31.3859 134.812 31.5779C134.812 31.8899 134.92 32.1419 135.136 32.3339C135.352 32.5139 135.664 32.6099 136.048 32.6099C136.528 32.6099 136.972 32.4659 137.356 32.1779C137.74 31.8899 137.932 31.5419 137.932 31.1579V30.0299ZM146.118 24.6899V33.2339H145.158V32.3219C144.762 33.0419 144.078 33.4019 143.118 33.4019C142.23 33.4019 141.534 33.1139 141.018 32.5259C140.502 31.9379 140.25 31.1339 140.25 30.1259C140.25 29.1899 140.49 28.4219 140.97 27.7979C141.45 27.1739 142.158 26.8619 143.07 26.8619C143.958 26.8619 144.63 27.1979 145.098 27.8699V24.6899H146.118ZM143.202 27.7379C142.614 27.7379 142.146 27.9539 141.81 28.3739C141.474 28.8059 141.306 29.3819 141.306 30.1019C141.306 30.8579 141.474 31.4579 141.822 31.9019C142.17 32.3459 142.638 32.5619 143.226 32.5619C143.814 32.5619 144.282 32.3579 144.618 31.9259C144.954 31.4939 145.122 30.9059 145.122 30.1379C145.122 29.4659 144.954 28.8899 144.642 28.4339C144.33 27.9779 143.85 27.7379 143.202 27.7379ZM153.787 24.6659V25.5539C153.607 25.5299 153.415 25.5059 153.223 25.5059C152.899 25.5059 152.683 25.5659 152.587 25.6619C152.491 25.7699 152.443 25.9979 152.443 26.3339V27.0419H153.631V27.8819H152.443V33.2339H151.411V27.8819H150.367V27.0419H151.411V26.2139C151.411 25.6619 151.555 25.2539 151.843 25.0019C152.131 24.7499 152.551 24.6179 153.127 24.6179C153.295 24.6179 153.523 24.6419 153.787 24.6659ZM157.769 26.8979L157.757 27.9659C157.685 27.9539 157.601 27.9539 157.493 27.9539C157.169 27.9539 156.881 28.0019 156.641 28.0979C156.401 28.1939 156.221 28.3259 156.077 28.4819C155.933 28.6499 155.825 28.8419 155.729 29.0819C155.645 29.3219 155.585 29.5619 155.561 29.8019C155.537 30.0419 155.525 30.3179 155.525 30.6179V33.2339H154.505V27.0419H155.477V28.3739C155.885 27.3899 156.641 26.8979 157.769 26.8979ZM161.039 26.8619C161.975 26.8619 162.695 27.1499 163.223 27.7259C163.739 28.2899 164.003 29.0819 164.003 30.1019C164.003 31.1579 163.739 31.9739 163.223 32.5499C162.695 33.1379 161.963 33.4259 161.027 33.4259C160.079 33.4259 159.335 33.1379 158.807 32.5619C158.267 31.9859 158.003 31.1939 158.003 30.1619C158.003 29.1539 158.267 28.3499 158.819 27.7499C159.359 27.1619 160.103 26.8619 161.039 26.8619ZM161.015 27.7259C160.415 27.7259 159.935 27.9419 159.587 28.3739C159.227 28.8179 159.059 29.4059 159.059 30.1379C159.059 30.9059 159.227 31.4939 159.575 31.9259C159.923 32.3579 160.415 32.5619 161.039 32.5619C161.639 32.5619 162.107 32.3459 162.443 31.9139C162.779 31.4819 162.959 30.8939 162.959 30.1259C162.959 29.3939 162.779 28.8059 162.431 28.3739C162.083 27.9419 161.615 27.7259 161.015 27.7259ZM166.177 27.0419L166.165 27.9539C166.441 27.5819 166.729 27.3179 167.041 27.1499C167.353 26.9819 167.737 26.8979 168.181 26.8979C169.033 26.8979 169.609 27.2459 169.909 27.9659C170.437 27.2459 171.121 26.8859 171.961 26.8859C172.597 26.8859 173.077 27.0539 173.413 27.4139C173.749 27.7739 173.917 28.2659 173.917 28.9139V33.2459H172.897V29.3459C172.897 28.8299 172.813 28.4459 172.657 28.1819C172.489 27.9179 172.165 27.7979 171.661 27.7979C170.605 27.7979 170.077 28.4339 170.077 29.7299V33.2459H169.057V29.2739C169.057 28.7939 168.973 28.4339 168.817 28.1819C168.661 27.9299 168.361 27.8099 167.917 27.8099C167.281 27.8099 166.837 28.0019 166.597 28.3859C166.357 28.7699 166.237 29.2979 166.237 29.9579V33.2339H165.217V27.0419H166.177ZM184.116 30.9779C184.02 31.7219 183.744 32.3219 183.264 32.7539C182.784 33.1979 182.172 33.4139 181.404 33.4139C180.468 33.4139 179.748 33.1259 179.232 32.5499C178.728 31.9739 178.464 31.1939 178.464 30.2219C178.464 29.1899 178.74 28.3739 179.268 27.7739C179.808 27.1739 180.528 26.8619 181.44 26.8619C182.208 26.8619 182.808 27.0539 183.264 27.4379C183.72 27.8219 183.996 28.3619 184.068 29.0699H183.012C182.832 28.1699 182.316 27.7259 181.464 27.7259C180.864 27.7259 180.396 27.9419 180.06 28.3739C179.712 28.8059 179.544 29.4059 179.544 30.1499C179.544 30.8939 179.7 31.4939 180.036 31.9259C180.36 32.3579 180.816 32.5739 181.392 32.5739C181.848 32.5739 182.232 32.4299 182.52 32.1659C182.808 31.8899 183 31.4939 183.084 30.9779H184.116ZM187.945 26.8619C188.881 26.8619 189.601 27.1499 190.129 27.7259C190.645 28.2899 190.909 29.0819 190.909 30.1019C190.909 31.1579 190.645 31.9739 190.129 32.5499C189.601 33.1379 188.869 33.4259 187.933 33.4259C186.985 33.4259 186.241 33.1379 185.713 32.5619C185.173 31.9859 184.909 31.1939 184.909 30.1619C184.909 29.1539 185.173 28.3499 185.725 27.7499C186.265 27.1619 187.009 26.8619 187.945 26.8619ZM187.921 27.7259C187.321 27.7259 186.841 27.9419 186.493 28.3739C186.133 28.8179 185.965 29.4059 185.965 30.1379C185.965 30.9059 186.133 31.4939 186.481 31.9259C186.829 32.3579 187.321 32.5619 187.945 32.5619C188.545 32.5619 189.013 32.3459 189.349 31.9139C189.685 31.4819 189.865 30.8939 189.865 30.1259C189.865 29.3939 189.685 28.8059 189.337 28.3739C188.989 27.9419 188.521 27.7259 187.921 27.7259ZM193.083 27.0419L193.071 27.9539C193.347 27.5819 193.635 27.3179 193.947 27.1499C194.259 26.9819 194.643 26.8979 195.087 26.8979C195.939 26.8979 196.515 27.2459 196.815 27.9659C197.343 27.2459 198.027 26.8859 198.867 26.8859C199.503 26.8859 199.983 27.0539 200.319 27.4139C200.655 27.7739 200.823 28.2659 200.823 28.9139V33.2459H199.803V29.3459C199.803 28.8299 199.719 28.4459 199.563 28.1819C199.395 27.9179 199.071 27.7979 198.567 27.7979C197.511 27.7979 196.983 28.4339 196.983 29.7299V33.2459H195.963V29.2739C195.963 28.7939 195.879 28.4339 195.723 28.1819C195.567 27.9299 195.267 27.8099 194.823 27.8099C194.187 27.8099 193.743 28.0019 193.503 28.3859C193.263 28.7699 193.143 29.2979 193.143 29.9579V33.2339H192.123V27.0419H193.083ZM203.314 27.0419V27.9179C203.758 27.2099 204.454 26.8499 205.402 26.8499C206.266 26.8499 206.95 27.1499 207.454 27.7259C207.958 28.3139 208.222 29.1059 208.222 30.1019C208.222 31.1099 207.97 31.9019 207.466 32.5019C206.962 33.1019 206.29 33.3899 205.45 33.3899C204.562 33.3899 203.866 33.0539 203.374 32.3699V35.6219H202.354V27.0419H203.314ZM205.246 27.7019C204.646 27.7019 204.178 27.9179 203.842 28.3499C203.506 28.7819 203.338 29.3699 203.338 30.1139C203.338 30.8699 203.506 31.4579 203.854 31.8899C204.202 32.3219 204.682 32.5379 205.282 32.5379C205.858 32.5379 206.326 32.3219 206.662 31.8899C206.998 31.4579 207.166 30.8699 207.166 30.1259C207.166 29.3699 206.986 28.7819 206.65 28.3499C206.314 27.9179 205.846 27.7019 205.246 27.7019ZM214.603 27.0419L214.591 33.2339H213.643V32.2619C213.115 33.0299 212.407 33.4019 211.507 33.4019C210.859 33.4019 210.343 33.2219 209.983 32.8619C209.623 32.5019 209.443 31.9859 209.443 31.3019V27.0419H210.463V31.0259C210.463 31.5179 210.559 31.8899 210.751 32.1419C210.943 32.3939 211.279 32.5139 211.771 32.5139C212.971 32.5139 213.583 31.7699 213.583 30.2819V27.0419H214.603ZM218.787 27.0419V27.8819H217.551V31.4939C217.551 31.6979 217.551 31.8299 217.551 31.8899C217.551 31.9619 217.575 32.0459 217.623 32.1539C217.659 32.2619 217.731 32.3339 217.827 32.3579C217.923 32.3939 218.055 32.4059 218.235 32.4059C218.379 32.4059 218.571 32.3939 218.787 32.3699V33.2459C218.499 33.2819 218.235 33.2939 218.007 33.2939C217.719 33.2939 217.479 33.2699 217.287 33.1979C217.095 33.1379 216.939 33.0659 216.843 32.9819C216.747 32.9099 216.675 32.7659 216.627 32.5619C216.579 32.3579 216.543 32.1899 216.543 32.0459C216.531 31.9019 216.531 31.6739 216.531 31.3379V31.2899V31.2299V31.1699V27.8819H215.487V27.0419H216.531V25.2059H217.551V27.0419H218.787ZM225.212 31.2779C224.9 32.7179 224 33.4379 222.512 33.4379C221.6 33.4379 220.88 33.1619 220.364 32.5859C219.848 32.0219 219.596 31.2299 219.596 30.2219C219.596 29.2259 219.86 28.4219 220.388 27.7979C220.916 27.1739 221.612 26.8619 222.476 26.8619C223.424 26.8619 224.132 27.1859 224.588 27.8339C225.044 28.4819 225.284 29.2859 225.284 30.2699V30.4139H220.628L220.616 30.4859C220.616 31.1459 220.784 31.6619 221.132 32.0339C221.468 32.4179 221.948 32.5979 222.548 32.5979C222.992 32.5979 223.34 32.5019 223.604 32.2859C223.868 32.0819 224.072 31.7459 224.216 31.2779H225.212ZM224.228 29.5859C224.18 28.9979 224 28.5419 223.688 28.2059C223.376 27.8699 222.956 27.7019 222.452 27.7019C221.948 27.7019 221.54 27.8699 221.216 28.2059C220.88 28.5419 220.688 29.0099 220.628 29.5859H224.228ZM229.594 26.8979L229.582 27.9659C229.51 27.9539 229.426 27.9539 229.318 27.9539C228.994 27.9539 228.706 28.0019 228.466 28.0979C228.226 28.1939 228.046 28.3259 227.902 28.4819C227.758 28.6499 227.65 28.8419 227.554 29.0819C227.47 29.3219 227.41 29.5619 227.386 29.8019C227.362 30.0419 227.35 30.3179 227.35 30.6179V33.2339H226.33V27.0419H227.302V28.3739C227.71 27.3899 228.466 26.8979 229.594 26.8979Z" fill="#888888"/>
<path d="M116.119 46.2339H111.011L118.121 55.2306L111 64.2336H116.11L123.233 55.2306L116.119 46.2339Z" fill="url(#paint3_linear_228_12077)" fill-opacity="0.02"/>
<path d="M136.872 46.2339H131.764L138.875 55.2306L131.753 64.2336H136.863L143.986 55.2306L136.872 46.2339Z" fill="url(#paint4_linear_228_12077)" fill-opacity="0.04"/>
<path d="M157.626 46.2339H152.518L159.628 55.2306L152.507 64.2336H157.617L164.74 55.2306L157.626 46.2339Z" fill="url(#paint5_linear_228_12077)" fill-opacity="0.08"/>
<path d="M178.379 46.2339H173.271L180.382 55.2306L173.26 64.2336H178.371L185.493 55.2306L178.379 46.2339Z" fill="url(#paint6_linear_228_12077)" fill-opacity="0.12"/>
<path d="M199.133 46.2339H194.025L201.135 55.2306L194.014 64.2336H199.124L206.246 55.2306L199.133 46.2339Z" fill="url(#paint7_linear_228_12077)" fill-opacity="0.16"/>
<path d="M219.886 46.2339H214.778L221.889 55.2306L214.768 64.2336H219.878L227 55.2306L219.886 46.2339Z" fill="url(#paint8_linear_228_12077)" fill-opacity="0.2"/>
<path d="M276 49.1084L271.309 53.9384H273.918V64.2751H278.082V53.9384H280.691L276 49.1084Z" fill="black"/>
<path d="M276 47.4834L268.958 53.3171H272.874V63.7334H279.126V53.3171H283.042L276 47.4834Z" fill="url(#paint9_linear_228_12077)"/>
<g filter="url(#filter1_b_228_12077)">
<path d="M294.529 38.1496C294.538 37.9497 294.544 37.7482 294.544 37.5461C294.545 30.1708 288.56 24.1919 281.178 24.1919C275.833 24.1919 271.222 27.3287 269.085 31.8592C267.897 31.0126 266.43 30.511 264.842 30.511C260.891 30.511 257.688 33.6077 257.688 37.427C257.688 37.9941 257.76 38.545 257.893 39.072C253.386 40.0313 250 44.1079 250 48.9926C250 54.5902 254.446 58.8586 259.93 58.8586H292.497C297.745 58.8586 302 54.3768 302 48.516C302 43.4341 298.8 39.189 294.529 38.1496Z" fill="url(#paint10_linear_228_12077)" fill-opacity="0.12"/>
</g>
<defs>
<filter id="filter0_b_228_12077" x="28.1688" y="23" width="54.7723" height="36.1147" filterUnits="userSpaceOnUse" color-interpolation-filters="sRGB">
<feFlood flood-opacity="0" result="BackgroundImageFix"/>
<feGaussianBlur in="BackgroundImageFix" stdDeviation="0.5"/>
<feComposite in2="SourceAlpha" operator="in" result="effect1_backgroundBlur_228_12077"/>
<feBlend mode="normal" in="SourceGraphic" in2="effect1_backgroundBlur_228_12077" result="shape"/>
</filter>
<filter id="filter1_b_228_12077" x="249" y="23.1919" width="54" height="36.6665" filterUnits="userSpaceOnUse" color-interpolation-filters="sRGB">
<feFlood flood-opacity="0" result="BackgroundImageFix"/>
<feGaussianBlur in="BackgroundImageFix" stdDeviation="0.5"/>
<feComposite in2="SourceAlpha" operator="in" result="effect1_backgroundBlur_228_12077"/>
<feBlend mode="normal" in="SourceGraphic" in2="effect1_backgroundBlur_228_12077" result="shape"/>
</filter>
<linearGradient id="paint0_linear_228_12077" x1="62.6563" y1="50.5069" x2="46.2576" y2="36.2946" gradientUnits="userSpaceOnUse">
<stop stop-color="#CD3EFF"/>
<stop offset="1" stop-color="#FFB2E0"/>
</linearGradient>
<linearGradient id="paint1_linear_228_12077" x1="56" y1="59.9028" x2="56" y2="64.4676" gradientUnits="userSpaceOnUse">
<stop stop-color="#A385FF"/>
<stop offset="1" stop-color="white"/>
</linearGradient>
<linearGradient id="paint2_linear_228_12077" x1="55.555" y1="24" x2="55.555" y2="58.1146" gradientUnits="userSpaceOnUse">
<stop stop-color="#A385FF"/>
<stop offset="1" stop-color="white"/>
</linearGradient>
<linearGradient id="paint3_linear_228_12077" x1="117.116" y1="46.2339" x2="117.116" y2="64.2336" gradientUnits="userSpaceOnUse">
<stop stop-color="#A385FF"/>
<stop offset="1" stop-color="white"/>
</linearGradient>
<linearGradient id="paint4_linear_228_12077" x1="137.87" y1="46.2339" x2="137.87" y2="64.2336" gradientUnits="userSpaceOnUse">
<stop stop-color="#A385FF"/>
<stop offset="1" stop-color="white"/>
</linearGradient>
<linearGradient id="paint5_linear_228_12077" x1="158.623" y1="46.2339" x2="158.623" y2="64.2336" gradientUnits="userSpaceOnUse">
<stop stop-color="#A385FF"/>
<stop offset="1" stop-color="white"/>
</linearGradient>
<linearGradient id="paint6_linear_228_12077" x1="179.377" y1="46.2339" x2="179.377" y2="64.2336" gradientUnits="userSpaceOnUse">
<stop stop-color="#A385FF"/>
<stop offset="1" stop-color="white"/>
</linearGradient>
<linearGradient id="paint7_linear_228_12077" x1="200.13" y1="46.2339" x2="200.13" y2="64.2336" gradientUnits="userSpaceOnUse">
<stop stop-color="#A385FF"/>
<stop offset="1" stop-color="white"/>
</linearGradient>
<linearGradient id="paint8_linear_228_12077" x1="220.884" y1="46.2339" x2="220.884" y2="64.2336" gradientUnits="userSpaceOnUse">
<stop stop-color="#A385FF"/>
<stop offset="1" stop-color="white"/>
</linearGradient>
<linearGradient id="paint9_linear_228_12077" x1="283.042" y1="63.7334" x2="266.957" y2="49.793" gradientUnits="userSpaceOnUse">
<stop stop-color="#CD3EFF"/>
<stop offset="1" stop-color="#FFB2E0"/>
</linearGradient>
<linearGradient id="paint10_linear_228_12077" x1="276" y1="24.1919" x2="276" y2="58.8586" gradientUnits="userSpaceOnUse">
<stop stop-color="#A385FF"/>
<stop offset="1" stop-color="white"/>
</linearGradient>
</defs>
</svg>
