<svg width="326" height="104" viewBox="0 0 326 104" fill="none" xmlns="http://www.w3.org/2000/svg">
<rect y="0.467285" width="326" height="103.268" rx="12" fill="#151318"/>
<path d="M64.5618 51.665C64.5618 52.1823 64.4005 52.7017 64.0779 53.1175C64.0175 53.1991 63.7352 53.5354 63.5135 53.7542L63.3925 53.8736C61.6992 55.6863 57.4859 58.4122 55.349 59.2857C55.349 59.3056 54.0789 59.8249 53.4742 59.8428H53.3935C52.4662 59.8428 51.5993 59.3275 51.1558 58.4918C50.9139 58.0322 50.6922 56.699 50.672 56.6811C50.4906 55.4853 50.3696 53.6547 50.3696 51.6451C50.3696 49.538 50.4906 47.6258 50.7123 46.4519C50.7123 46.432 50.9341 45.3575 51.0752 44.9994C51.297 44.484 51.7001 44.0443 52.2041 43.7657C52.6073 43.5688 53.0307 43.4673 53.4742 43.4673C53.9378 43.4892 54.8047 43.7856 55.1474 43.9249C57.4052 44.8004 61.7193 47.6656 63.3724 49.4166C63.6546 49.6952 63.957 50.0354 64.0376 50.113C64.3803 50.5508 64.5618 51.088 64.5618 51.665Z" fill="url(#paint0_linear_228_12105)"/>
<g filter="url(#filter0_b_228_12105)">
<path d="M40 74.785C40 77.5145 42.2193 79.7351 44.9481 79.7351H67.0493C69.7788 79.7351 72 77.5145 72 74.785V71.8921H40V74.785ZM55.9997 73.6684C57.2665 73.6684 58.2925 74.6944 58.2925 75.9619C58.2925 77.2281 57.2665 78.2566 55.9997 78.2566C54.7316 78.2566 53.7037 77.2281 53.7037 75.9619C53.7037 74.6944 54.7316 73.6684 55.9997 73.6684Z" fill="url(#paint1_linear_228_12105)" fill-opacity="0.12"/>
<path d="M71.9994 30.7334H40V71.0808H71.9994V30.7334Z" fill="url(#paint2_linear_228_12105)" fill-opacity="0.12"/>
<path d="M67.0493 24.4673H44.9481C42.2193 24.4673 40 26.6866 40 29.4161V29.923H71.9994V29.4161C71.9994 26.686 69.7788 24.4673 67.0493 24.4673ZM60.1975 28.5478H51.7987C51.1257 28.5478 50.5813 28.0028 50.5813 27.3305C50.5813 26.6574 51.1257 26.1131 51.7987 26.1131H60.1968C60.8699 26.1131 61.4161 26.6574 61.4161 27.3305C61.4168 28.0028 60.8705 28.5478 60.1975 28.5478Z" fill="url(#paint3_linear_228_12105)" fill-opacity="0.12"/>
</g>
<path d="M108.888 32.5576H110.028V37.9456C110.028 38.7856 110.208 39.3856 110.568 39.7696C110.928 40.1536 111.516 40.3456 112.332 40.3456C113.172 40.3456 113.76 40.1536 114.108 39.7576C114.456 39.3736 114.636 38.7616 114.636 37.9456V32.5576H115.776V37.6456C115.776 38.8936 115.512 39.8176 114.996 40.4056C114.468 40.9936 113.58 41.2816 112.332 41.2816C111.108 41.2816 110.232 41.0056 109.692 40.4296C109.152 39.8536 108.888 38.9656 108.888 37.7656V32.5576ZM118.388 34.9096V35.7856C118.832 35.0776 119.528 34.7176 120.476 34.7176C121.34 34.7176 122.024 35.0176 122.528 35.5936C123.032 36.1816 123.296 36.9736 123.296 37.9696C123.296 38.9776 123.044 39.7696 122.54 40.3696C122.036 40.9696 121.364 41.2576 120.524 41.2576C119.636 41.2576 118.94 40.9216 118.448 40.2376V43.4896H117.428V34.9096H118.388ZM120.32 35.5696C119.72 35.5696 119.252 35.7856 118.916 36.2176C118.58 36.6496 118.412 37.2376 118.412 37.9816C118.412 38.7376 118.58 39.3256 118.928 39.7576C119.276 40.1896 119.756 40.4056 120.356 40.4056C120.932 40.4056 121.4 40.1896 121.736 39.7576C122.072 39.3256 122.24 38.7376 122.24 37.9936C122.24 37.2376 122.06 36.6496 121.724 36.2176C121.388 35.7856 120.92 35.5696 120.32 35.5696ZM125.621 32.5576V41.1016H124.589V32.5576H125.621ZM129.914 34.7296C130.85 34.7296 131.57 35.0176 132.098 35.5936C132.614 36.1576 132.878 36.9496 132.878 37.9696C132.878 39.0256 132.614 39.8416 132.098 40.4176C131.57 41.0056 130.838 41.2936 129.902 41.2936C128.954 41.2936 128.21 41.0056 127.682 40.4296C127.142 39.8536 126.878 39.0616 126.878 38.0296C126.878 37.0216 127.142 36.2176 127.694 35.6176C128.234 35.0296 128.978 34.7296 129.914 34.7296ZM129.89 35.5936C129.29 35.5936 128.81 35.8096 128.462 36.2416C128.102 36.6856 127.934 37.2736 127.934 38.0056C127.934 38.7736 128.102 39.3616 128.45 39.7936C128.798 40.2256 129.29 40.4296 129.914 40.4296C130.514 40.4296 130.982 40.2136 131.318 39.7816C131.654 39.3496 131.834 38.7616 131.834 37.9936C131.834 37.2616 131.654 36.6736 131.306 36.2416C130.958 35.8096 130.49 35.5936 129.89 35.5936ZM139.576 40.2856V41.0896C139.36 41.1616 139.132 41.2096 138.88 41.2096C138.292 41.2096 137.992 40.8976 137.98 40.2976C137.392 40.9456 136.648 41.2816 135.736 41.2816C135.124 41.2816 134.644 41.1256 134.284 40.8136C133.924 40.5016 133.756 40.0696 133.756 39.5296C133.756 38.4256 134.488 37.7776 135.952 37.5976C136.048 37.5736 136.18 37.5616 136.372 37.5496C137.068 37.4656 137.488 37.3696 137.656 37.2736C137.836 37.1416 137.932 36.9256 137.932 36.6136C137.932 35.9296 137.464 35.5936 136.528 35.5936C136.048 35.5936 135.676 35.6896 135.436 35.8816C135.184 36.0736 135.04 36.3976 134.992 36.8536H133.996C134.008 36.1816 134.248 35.6656 134.704 35.3056C135.16 34.9336 135.784 34.7536 136.588 34.7536C137.452 34.7536 138.1 34.9456 138.532 35.3536C138.664 35.4736 138.76 35.6416 138.832 35.8576C138.892 36.0616 138.928 36.2296 138.94 36.3616C138.94 36.4936 138.952 36.6976 138.952 36.9616C138.952 37.2616 138.94 37.7176 138.928 38.3296C138.904 38.9536 138.904 39.4096 138.904 39.7096C138.904 39.9376 138.928 40.0936 138.988 40.1896C139.048 40.2856 139.156 40.3216 139.324 40.3216C139.384 40.3216 139.468 40.3096 139.576 40.2856ZM137.932 37.8976C137.86 37.9456 137.776 37.9936 137.704 38.0416C137.62 38.0776 137.512 38.1136 137.392 38.1376C137.272 38.1616 137.188 38.1736 137.14 38.1856C137.092 38.1976 136.996 38.2096 136.828 38.2336C136.66 38.2576 136.564 38.2696 136.564 38.2696C136.312 38.2936 136.144 38.3176 136.072 38.3296C136 38.3416 135.856 38.3776 135.64 38.4376C135.424 38.4856 135.28 38.5576 135.196 38.6296C135.1 38.7016 135.016 38.7976 134.932 38.9416C134.848 39.0856 134.812 39.2536 134.812 39.4456C134.812 39.7576 134.92 40.0096 135.136 40.2016C135.352 40.3816 135.664 40.4776 136.048 40.4776C136.528 40.4776 136.972 40.3336 137.356 40.0456C137.74 39.7576 137.932 39.4096 137.932 39.0256V37.8976ZM146.118 32.5576V41.1016H145.158V40.1896C144.762 40.9096 144.078 41.2696 143.118 41.2696C142.23 41.2696 141.534 40.9816 141.018 40.3936C140.502 39.8056 140.25 39.0016 140.25 37.9936C140.25 37.0576 140.49 36.2896 140.97 35.6656C141.45 35.0416 142.158 34.7296 143.07 34.7296C143.958 34.7296 144.63 35.0656 145.098 35.7376V32.5576H146.118ZM143.202 35.6056C142.614 35.6056 142.146 35.8216 141.81 36.2416C141.474 36.6736 141.306 37.2496 141.306 37.9696C141.306 38.7256 141.474 39.3256 141.822 39.7696C142.17 40.2136 142.638 40.4296 143.226 40.4296C143.814 40.4296 144.282 40.2256 144.618 39.7936C144.954 39.3616 145.122 38.7736 145.122 38.0056C145.122 37.3336 144.954 36.7576 144.642 36.3016C144.33 35.8456 143.85 35.6056 143.202 35.6056ZM153.787 32.5336V33.4216C153.607 33.3976 153.415 33.3736 153.223 33.3736C152.899 33.3736 152.683 33.4336 152.587 33.5296C152.491 33.6376 152.443 33.8656 152.443 34.2016V34.9096H153.631V35.7496H152.443V41.1016H151.411V35.7496H150.367V34.9096H151.411V34.0816C151.411 33.5296 151.555 33.1216 151.843 32.8696C152.131 32.6176 152.551 32.4856 153.127 32.4856C153.295 32.4856 153.523 32.5096 153.787 32.5336ZM157.769 34.7656L157.757 35.8336C157.685 35.8216 157.601 35.8216 157.493 35.8216C157.169 35.8216 156.881 35.8696 156.641 35.9656C156.401 36.0616 156.221 36.1936 156.077 36.3496C155.933 36.5176 155.825 36.7096 155.729 36.9496C155.645 37.1896 155.585 37.4296 155.561 37.6696C155.537 37.9096 155.525 38.1856 155.525 38.4856V41.1016H154.505V34.9096H155.477V36.2416C155.885 35.2576 156.641 34.7656 157.769 34.7656ZM161.039 34.7296C161.975 34.7296 162.695 35.0176 163.223 35.5936C163.739 36.1576 164.003 36.9496 164.003 37.9696C164.003 39.0256 163.739 39.8416 163.223 40.4176C162.695 41.0056 161.963 41.2936 161.027 41.2936C160.079 41.2936 159.335 41.0056 158.807 40.4296C158.267 39.8536 158.003 39.0616 158.003 38.0296C158.003 37.0216 158.267 36.2176 158.819 35.6176C159.359 35.0296 160.103 34.7296 161.039 34.7296ZM161.015 35.5936C160.415 35.5936 159.935 35.8096 159.587 36.2416C159.227 36.6856 159.059 37.2736 159.059 38.0056C159.059 38.7736 159.227 39.3616 159.575 39.7936C159.923 40.2256 160.415 40.4296 161.039 40.4296C161.639 40.4296 162.107 40.2136 162.443 39.7816C162.779 39.3496 162.959 38.7616 162.959 37.9936C162.959 37.2616 162.779 36.6736 162.431 36.2416C162.083 35.8096 161.615 35.5936 161.015 35.5936ZM166.177 34.9096L166.165 35.8216C166.441 35.4496 166.729 35.1856 167.041 35.0176C167.353 34.8496 167.737 34.7656 168.181 34.7656C169.033 34.7656 169.609 35.1136 169.909 35.8336C170.437 35.1136 171.121 34.7536 171.961 34.7536C172.597 34.7536 173.077 34.9216 173.413 35.2816C173.749 35.6416 173.917 36.1336 173.917 36.7816V41.1136H172.897V37.2136C172.897 36.6976 172.813 36.3136 172.657 36.0496C172.489 35.7856 172.165 35.6656 171.661 35.6656C170.605 35.6656 170.077 36.3016 170.077 37.5976V41.1136H169.057V37.1416C169.057 36.6616 168.973 36.3016 168.817 36.0496C168.661 35.7976 168.361 35.6776 167.917 35.6776C167.281 35.6776 166.837 35.8696 166.597 36.2536C166.357 36.6376 166.237 37.1656 166.237 37.8256V41.1016H165.217V34.9096H166.177ZM184.116 38.8456C184.02 39.5896 183.744 40.1896 183.264 40.6216C182.784 41.0656 182.172 41.2816 181.404 41.2816C180.468 41.2816 179.748 40.9936 179.232 40.4176C178.728 39.8416 178.464 39.0616 178.464 38.0896C178.464 37.0576 178.74 36.2416 179.268 35.6416C179.808 35.0416 180.528 34.7296 181.44 34.7296C182.208 34.7296 182.808 34.9216 183.264 35.3056C183.72 35.6896 183.996 36.2296 184.068 36.9376H183.012C182.832 36.0376 182.316 35.5936 181.464 35.5936C180.864 35.5936 180.396 35.8096 180.06 36.2416C179.712 36.6736 179.544 37.2736 179.544 38.0176C179.544 38.7616 179.7 39.3616 180.036 39.7936C180.36 40.2256 180.816 40.4416 181.392 40.4416C181.848 40.4416 182.232 40.2976 182.52 40.0336C182.808 39.7576 183 39.3616 183.084 38.8456H184.116ZM187.945 34.7296C188.881 34.7296 189.601 35.0176 190.129 35.5936C190.645 36.1576 190.909 36.9496 190.909 37.9696C190.909 39.0256 190.645 39.8416 190.129 40.4176C189.601 41.0056 188.869 41.2936 187.933 41.2936C186.985 41.2936 186.241 41.0056 185.713 40.4296C185.173 39.8536 184.909 39.0616 184.909 38.0296C184.909 37.0216 185.173 36.2176 185.725 35.6176C186.265 35.0296 187.009 34.7296 187.945 34.7296ZM187.921 35.5936C187.321 35.5936 186.841 35.8096 186.493 36.2416C186.133 36.6856 185.965 37.2736 185.965 38.0056C185.965 38.7736 186.133 39.3616 186.481 39.7936C186.829 40.2256 187.321 40.4296 187.945 40.4296C188.545 40.4296 189.013 40.2136 189.349 39.7816C189.685 39.3496 189.865 38.7616 189.865 37.9936C189.865 37.2616 189.685 36.6736 189.337 36.2416C188.989 35.8096 188.521 35.5936 187.921 35.5936ZM193.083 34.9096L193.071 35.8216C193.347 35.4496 193.635 35.1856 193.947 35.0176C194.259 34.8496 194.643 34.7656 195.087 34.7656C195.939 34.7656 196.515 35.1136 196.815 35.8336C197.343 35.1136 198.027 34.7536 198.867 34.7536C199.503 34.7536 199.983 34.9216 200.319 35.2816C200.655 35.6416 200.823 36.1336 200.823 36.7816V41.1136H199.803V37.2136C199.803 36.6976 199.719 36.3136 199.563 36.0496C199.395 35.7856 199.071 35.6656 198.567 35.6656C197.511 35.6656 196.983 36.3016 196.983 37.5976V41.1136H195.963V37.1416C195.963 36.6616 195.879 36.3016 195.723 36.0496C195.567 35.7976 195.267 35.6776 194.823 35.6776C194.187 35.6776 193.743 35.8696 193.503 36.2536C193.263 36.6376 193.143 37.1656 193.143 37.8256V41.1016H192.123V34.9096H193.083ZM203.314 34.9096V35.7856C203.758 35.0776 204.454 34.7176 205.402 34.7176C206.266 34.7176 206.95 35.0176 207.454 35.5936C207.958 36.1816 208.222 36.9736 208.222 37.9696C208.222 38.9776 207.97 39.7696 207.466 40.3696C206.962 40.9696 206.29 41.2576 205.45 41.2576C204.562 41.2576 203.866 40.9216 203.374 40.2376V43.4896H202.354V34.9096H203.314ZM205.246 35.5696C204.646 35.5696 204.178 35.7856 203.842 36.2176C203.506 36.6496 203.338 37.2376 203.338 37.9816C203.338 38.7376 203.506 39.3256 203.854 39.7576C204.202 40.1896 204.682 40.4056 205.282 40.4056C205.858 40.4056 206.326 40.1896 206.662 39.7576C206.998 39.3256 207.166 38.7376 207.166 37.9936C207.166 37.2376 206.986 36.6496 206.65 36.2176C206.314 35.7856 205.846 35.5696 205.246 35.5696ZM214.603 34.9096L214.591 41.1016H213.643V40.1296C213.115 40.8976 212.407 41.2696 211.507 41.2696C210.859 41.2696 210.343 41.0896 209.983 40.7296C209.623 40.3696 209.443 39.8536 209.443 39.1696V34.9096H210.463V38.8936C210.463 39.3856 210.559 39.7576 210.751 40.0096C210.943 40.2616 211.279 40.3816 211.771 40.3816C212.971 40.3816 213.583 39.6376 213.583 38.1496V34.9096H214.603ZM218.787 34.9096V35.7496H217.551V39.3616C217.551 39.5656 217.551 39.6976 217.551 39.7576C217.551 39.8296 217.575 39.9136 217.623 40.0216C217.659 40.1296 217.731 40.2016 217.827 40.2256C217.923 40.2616 218.055 40.2736 218.235 40.2736C218.379 40.2736 218.571 40.2616 218.787 40.2376V41.1136C218.499 41.1496 218.235 41.1616 218.007 41.1616C217.719 41.1616 217.479 41.1376 217.287 41.0656C217.095 41.0056 216.939 40.9336 216.843 40.8496C216.747 40.7776 216.675 40.6336 216.627 40.4296C216.579 40.2256 216.543 40.0576 216.543 39.9136C216.531 39.7696 216.531 39.5416 216.531 39.2056V39.1576V39.0976V39.0376V35.7496H215.487V34.9096H216.531V33.0736H217.551V34.9096H218.787ZM225.212 39.1456C224.9 40.5856 224 41.3056 222.512 41.3056C221.6 41.3056 220.88 41.0296 220.364 40.4536C219.848 39.8896 219.596 39.0976 219.596 38.0896C219.596 37.0936 219.86 36.2896 220.388 35.6656C220.916 35.0416 221.612 34.7296 222.476 34.7296C223.424 34.7296 224.132 35.0536 224.588 35.7016C225.044 36.3496 225.284 37.1536 225.284 38.1376V38.2816H220.628L220.616 38.3536C220.616 39.0136 220.784 39.5296 221.132 39.9016C221.468 40.2856 221.948 40.4656 222.548 40.4656C222.992 40.4656 223.34 40.3696 223.604 40.1536C223.868 39.9496 224.072 39.6136 224.216 39.1456H225.212ZM224.228 37.4536C224.18 36.8656 224 36.4096 223.688 36.0736C223.376 35.7376 222.956 35.5696 222.452 35.5696C221.948 35.5696 221.54 35.7376 221.216 36.0736C220.88 36.4096 220.688 36.8776 220.628 37.4536H224.228ZM229.594 34.7656L229.582 35.8336C229.51 35.8216 229.426 35.8216 229.318 35.8216C228.994 35.8216 228.706 35.8696 228.466 35.9656C228.226 36.0616 228.046 36.1936 227.902 36.3496C227.758 36.5176 227.65 36.7096 227.554 36.9496C227.47 37.1896 227.41 37.4296 227.386 37.6696C227.362 37.9096 227.35 38.1856 227.35 38.4856V41.1016H226.33V34.9096H227.302V36.2416C227.71 35.2576 228.466 34.7656 229.594 34.7656Z" fill="#888888"/>
<path d="M116.119 54.1016H111.011L118.121 63.0983L111 72.1013H116.11L123.233 63.0983L116.119 54.1016Z" fill="url(#paint4_linear_228_12105)" fill-opacity="0.02"/>
<path d="M136.872 54.1016H131.764L138.875 63.0983L131.753 72.1013H136.863L143.986 63.0983L136.872 54.1016Z" fill="url(#paint5_linear_228_12105)" fill-opacity="0.04"/>
<path d="M157.626 54.1016H152.518L159.628 63.0983L152.507 72.1013H157.617L164.74 63.0983L157.626 54.1016Z" fill="url(#paint6_linear_228_12105)" fill-opacity="0.08"/>
<path d="M178.379 54.1016H173.271L180.382 63.0983L173.26 72.1013H178.371L185.493 63.0983L178.379 54.1016Z" fill="url(#paint7_linear_228_12105)" fill-opacity="0.12"/>
<path d="M199.133 54.1016H194.025L201.135 63.0983L194.014 72.1013H199.124L206.246 63.0983L199.133 54.1016Z" fill="url(#paint8_linear_228_12105)" fill-opacity="0.16"/>
<path d="M219.886 54.1016H214.778L221.889 63.0983L214.768 72.1013H219.878L227 63.0983L219.886 54.1016Z" fill="url(#paint9_linear_228_12105)" fill-opacity="0.2"/>
<path d="M276 56.9761L271.309 61.8061H273.918V72.1427H278.082V61.8061H280.691L276 56.9761Z" fill="black"/>
<path d="M276 55.3511L268.958 61.1848H272.874V71.6011H279.126V61.1848H283.042L276 55.3511Z" fill="url(#paint10_linear_228_12105)"/>
<g filter="url(#filter1_b_228_12105)">
<path d="M294.529 46.0172C294.538 45.8174 294.544 45.6159 294.544 45.4138C294.545 38.0385 288.56 32.0596 281.178 32.0596C275.833 32.0596 271.222 35.1964 269.085 39.7269C267.897 38.8802 266.43 38.3787 264.842 38.3787C260.891 38.3787 257.688 41.4754 257.688 45.2947C257.688 45.8618 257.76 46.4127 257.893 46.9397C253.386 47.899 250 51.9756 250 56.8603C250 62.4579 254.446 66.7262 259.93 66.7262H292.497C297.745 66.7262 302 62.2445 302 56.3837C302 51.3017 298.8 47.0567 294.529 46.0172Z" fill="url(#paint11_linear_228_12105)" fill-opacity="0.12"/>
</g>
<defs>
<filter id="filter0_b_228_12105" x="39" y="23.4673" width="34" height="57.2676" filterUnits="userSpaceOnUse" color-interpolation-filters="sRGB">
<feFlood flood-opacity="0" result="BackgroundImageFix"/>
<feGaussianBlur in="BackgroundImageFix" stdDeviation="0.5"/>
<feComposite in2="SourceAlpha" operator="in" result="effect1_backgroundBlur_228_12105"/>
<feBlend mode="normal" in="SourceGraphic" in2="effect1_backgroundBlur_228_12105" result="shape"/>
</filter>
<filter id="filter1_b_228_12105" x="249" y="31.0596" width="54" height="36.6665" filterUnits="userSpaceOnUse" color-interpolation-filters="sRGB">
<feFlood flood-opacity="0" result="BackgroundImageFix"/>
<feGaussianBlur in="BackgroundImageFix" stdDeviation="0.5"/>
<feComposite in2="SourceAlpha" operator="in" result="effect1_backgroundBlur_228_12105"/>
<feBlend mode="normal" in="SourceGraphic" in2="effect1_backgroundBlur_228_12105" result="shape"/>
</filter>
<linearGradient id="paint0_linear_228_12105" x1="64.5618" y1="59.8428" x2="48.3525" y2="45.7948" gradientUnits="userSpaceOnUse">
<stop stop-color="#CD3EFF"/>
<stop offset="1" stop-color="#FFB2E0"/>
</linearGradient>
<linearGradient id="paint1_linear_228_12105" x1="56" y1="71.8921" x2="56" y2="79.7351" gradientUnits="userSpaceOnUse">
<stop stop-color="#A385FF"/>
<stop offset="1" stop-color="white"/>
</linearGradient>
<linearGradient id="paint2_linear_228_12105" x1="55.9997" y1="30.7334" x2="55.9997" y2="71.0808" gradientUnits="userSpaceOnUse">
<stop stop-color="#A385FF"/>
<stop offset="1" stop-color="white"/>
</linearGradient>
<linearGradient id="paint3_linear_228_12105" x1="55.9997" y1="24.4673" x2="55.9997" y2="29.923" gradientUnits="userSpaceOnUse">
<stop stop-color="#A385FF"/>
<stop offset="1" stop-color="white"/>
</linearGradient>
<linearGradient id="paint4_linear_228_12105" x1="117.116" y1="54.1016" x2="117.116" y2="72.1013" gradientUnits="userSpaceOnUse">
<stop stop-color="#A385FF"/>
<stop offset="1" stop-color="white"/>
</linearGradient>
<linearGradient id="paint5_linear_228_12105" x1="137.87" y1="54.1016" x2="137.87" y2="72.1013" gradientUnits="userSpaceOnUse">
<stop stop-color="#A385FF"/>
<stop offset="1" stop-color="white"/>
</linearGradient>
<linearGradient id="paint6_linear_228_12105" x1="158.623" y1="54.1016" x2="158.623" y2="72.1013" gradientUnits="userSpaceOnUse">
<stop stop-color="#A385FF"/>
<stop offset="1" stop-color="white"/>
</linearGradient>
<linearGradient id="paint7_linear_228_12105" x1="179.377" y1="54.1016" x2="179.377" y2="72.1013" gradientUnits="userSpaceOnUse">
<stop stop-color="#A385FF"/>
<stop offset="1" stop-color="white"/>
</linearGradient>
<linearGradient id="paint8_linear_228_12105" x1="200.13" y1="54.1016" x2="200.13" y2="72.1013" gradientUnits="userSpaceOnUse">
<stop stop-color="#A385FF"/>
<stop offset="1" stop-color="white"/>
</linearGradient>
<linearGradient id="paint9_linear_228_12105" x1="220.884" y1="54.1016" x2="220.884" y2="72.1013" gradientUnits="userSpaceOnUse">
<stop stop-color="#A385FF"/>
<stop offset="1" stop-color="white"/>
</linearGradient>
<linearGradient id="paint10_linear_228_12105" x1="283.042" y1="71.6011" x2="266.957" y2="57.6607" gradientUnits="userSpaceOnUse">
<stop stop-color="#CD3EFF"/>
<stop offset="1" stop-color="#FFB2E0"/>
</linearGradient>
<linearGradient id="paint11_linear_228_12105" x1="276" y1="32.0596" x2="276" y2="66.7262" gradientUnits="userSpaceOnUse">
<stop stop-color="#A385FF"/>
<stop offset="1" stop-color="white"/>
</linearGradient>
</defs>
</svg>
