    <svg
              xmlns="http://www.w3.org/2000/svg"
              width="65"
              height="58"
              viewBox="0 0 65 58"
              fill="none"
            >
              <circle
                cx="31.8616"
                cy="29.0002"
                r="28.8518"
                fill="url(#paint0_linear_3792_7119)"
              />
              <path
                fill-rule="evenodd"
                clip-rule="evenodd"
                d="M3.31009 11.5852C1.48198 11.5852 0 13.0672 0 14.8953C0 16.7234 1.48198 18.2054 3.31009 18.2054C15.4478 18.2054 28.888 26.9909 28.888 43.7833C28.888 45.6114 30.37 47.0934 32.1981 47.0934C32.2231 47.0934 32.248 47.0931 32.2728 47.0926C32.2976 47.0931 32.3225 47.0934 32.3474 47.0934C34.1756 47.0934 35.6575 45.6114 35.6575 43.7833C35.6575 26.9909 49.0978 18.2054 61.2355 18.2054C63.0636 18.2054 64.5455 16.7234 64.5455 14.8953C64.5455 13.0672 63.0636 11.5852 61.2355 11.5852C50.2283 11.5852 37.9688 17.5277 32.2728 29.1466C26.5767 17.5277 14.3173 11.5852 3.31009 11.5852Z"
                fill="white"
              />
              <defs>
                <linearGradient
                  id="paint0_linear_3792_7119"
                  x1="24.4783"
                  y1="-2.53512"
                  x2="49.7037"
                  y2="52.7462"
                  gradientUnits="userSpaceOnUse"
                >
                  <stop stop-color="#FFB3E0" />
                  <stop offset="1" stop-color="#CD3EFF" />
                </linearGradient>
              </defs>
            </svg>