<svg xmlns="http://www.w3.org/2000/svg" width="24" height="22" viewBox="0 0 24 22" fill="none">
  <path d="M12.271 11.7305L3.00394 12.6274L0.564858 20.427C0.469402 20.7295 0.496606 21.0574 0.640531 21.3401C0.784456 21.6227 1.03398 21.8374 1.33471 21.9378C1.63567 22.0382 1.96383 22.0164 2.24875 21.8772L22.5593 12.0422C22.8202 11.9151 23.0238 11.6943 23.1294 11.424C23.235 11.1537 23.235 10.8535 23.1294 10.5832C23.0238 10.3129 22.8202 10.0921 22.5593 9.96495L2.26268 0.123036C1.97779 -0.0164383 1.64938 -0.038204 1.34844 0.0622005C1.04773 0.162848 0.798453 0.377508 0.654268 0.659921C0.510343 0.94258 0.48314 1.2705 0.578596 1.57295L3.01768 9.37255L12.2677 10.2695C12.6413 10.3066 12.9262 10.6209 12.9262 10.9963C12.9262 11.3719 12.6413 11.6862 12.2677 11.7231L12.271 11.7305Z" fill="white"/>
</svg>