<svg width="25" height="18" viewBox="0 0 25 18" fill="none" xmlns="http://www.w3.org/2000/svg">
<path d="M8.84076 6.00574V11.9938" stroke="white" stroke-miterlimit="10" stroke-linecap="round"/>
<path d="M11.5869 8.52721L9.23119 6.17152C9.18003 6.12028 9.11926 6.07963 9.05237 6.0519C8.98548 6.02416 8.91378 6.00989 8.84137 6.00989C8.76896 6.00989 8.69726 6.02416 8.63037 6.0519C8.56348 6.07963 8.50272 6.12028 8.45155 6.17152L6.09467 8.52721" stroke="white" stroke-linecap="round" stroke-linejoin="round"/>
<path d="M16.6826 12.6946C16.6826 13.8365 16.229 14.9316 15.4216 15.739C14.6142 16.5464 13.5191 17 12.3773 17H5.3054C4.74001 17 4.18015 16.8886 3.6578 16.6723C3.13544 16.4559 2.66082 16.1388 2.26103 15.739C1.45361 14.9316 1.00001 13.8365 1.00001 12.6946V5.31497C0.998751 4.74877 1.10918 4.18789 1.32498 3.66443C1.54079 3.14097 1.85772 2.66521 2.25764 2.2644C2.65756 1.8636 3.1326 1.54561 3.65558 1.32864C4.17856 1.11168 4.7392 0.999999 5.3054 1H12.3773C12.9436 0.99984 13.5044 1.11145 14.0275 1.32843C14.5507 1.54542 15.0258 1.86351 15.4258 2.26448C15.8258 2.66544 16.1427 3.1414 16.3583 3.66507C16.574 4.18874 16.6842 4.74983 16.6826 5.31617M23.7545 5.93174V12.0814C23.7545 12.3808 23.6695 12.6754 23.509 12.9293C23.3465 13.184 23.1163 13.3884 22.8443 13.5198C22.5741 13.655 22.2698 13.7067 21.9701 13.6683C21.6746 13.6329 21.3944 13.5178 21.1593 13.3353L17.297 10.2359C17.1115 10.0833 16.9615 9.892 16.8575 9.67545C16.7534 9.45889 16.6979 9.22226 16.6946 8.98204C16.6946 8.74251 16.7485 8.50778 16.8539 8.29341C16.9641 8.09222 17.115 7.91617 17.297 7.77605L21.1593 4.7018C21.3944 4.51862 21.6752 4.40346 21.9713 4.36886C22.2707 4.33054 22.5749 4.38204 22.8443 4.51737C23.1129 4.64471 23.3405 4.84467 23.5013 5.09462C23.6622 5.34457 23.7499 5.63454 23.7545 5.93174Z" stroke="white" stroke-linecap="round" stroke-linejoin="round"/>
</svg>
