<svg xmlns="http://www.w3.org/2000/svg" width="19" height="19" viewBox="0 0 19 19" fill="none">
  <path d="M5.45 9.14768C5.45 7.10318 5.45 6.08092 6.08225 5.44567C6.71525 4.81042 7.733 4.81042 9.77 4.81042H11.93C13.9663 4.81042 14.9848 4.81042 15.617 5.44567C16.25 6.08092 16.25 7.10318 16.25 9.14768V12.7627C16.25 14.8072 16.25 15.8294 15.617 16.4647C14.9848 17.0999 13.9663 17.0999 11.93 17.0999H9.77C7.733 17.0999 6.71525 17.0999 6.08225 16.4647C5.44925 15.8294 5.45 14.8072 5.45 12.7627V9.14768Z" fill="#AAAAAA"/>
  <path opacity="0.5" d="M3.629 2.97898C2.75 3.85723 2.75 5.27173 2.75 8.09998V9.59998C2.75 12.4282 2.75 13.8427 3.629 14.721C4.09175 15.1845 4.70375 15.4035 5.594 15.507C5.45 14.877 5.45 14.01 5.45 12.762V9.14773C5.45 7.10323 5.45 6.08098 6.08225 5.44573C6.71525 4.81048 7.733 4.81048 9.77 4.81048H11.93C13.169 4.81048 14.03 4.81048 14.6585 4.95298C14.555 4.05823 14.336 3.44398 13.871 2.97898C12.9928 2.09998 11.5783 2.09998 8.75 2.09998C5.92175 2.09998 4.50725 2.09998 3.629 2.97898Z" fill="#AAAAAA"/>
</svg>