<svg xmlns="http://www.w3.org/2000/svg" width="19" height="18" viewBox="0 0 19 18" fill="none">
  <path fill-rule="evenodd" clip-rule="evenodd" d="M1.54968 2.24091C1.88911 2.10076 2.27097 2.2859 2.51139 2.56362C2.68418 2.76344 2.89883 2.92278 3.14011 3.03033C3.42695 3.15857 3.74228 3.20982 4.05497 3.17904C4.36767 3.14826 4.66695 3.03651 4.92329 2.8548C5.17963 2.67309 5.38418 2.4277 5.51676 2.14284C5.64935 1.85797 5.7054 1.54347 5.67938 1.23034C5.6511 0.878053 5.77581 0.49234 6.09724 0.341911L6.62438 0.0937695C6.92076 -0.0295866 7.2538 -0.0312967 7.55144 0.0890092C7.84907 0.209315 8.08738 0.441964 8.2148 0.736624L8.8358 2.17405L8.76894 2.31933L8.76766 2.3219L4.66624 11.7937L4.22139 12.8056L0.420829 4.01133C0.306566 3.72651 0.303705 3.40911 0.412816 3.12228C0.521926 2.83545 0.735012 2.6002 1.00968 2.46333L1.54968 2.24091ZM16.1065 4.81747C16.3443 4.53718 16.7275 4.35333 17.0669 4.49218L17.6365 4.72747C17.9186 4.86748 18.1375 5.10874 18.2495 5.40308C18.3615 5.69742 18.3584 6.02318 18.2408 6.31532L13.5196 17.2439C13.3894 17.5465 13.1449 17.7855 12.8394 17.909C12.534 18.0325 12.1921 18.0305 11.8881 17.9034L6.1821 15.4721C5.87953 15.3421 5.64045 15.098 5.51673 14.7928C5.39301 14.4876 5.39463 14.1459 5.52124 13.8419L6.13967 12.4366L10.2449 2.95705C10.375 2.65448 10.6191 2.4154 10.9243 2.29168C11.2295 2.16796 11.5712 2.16958 11.8752 2.29619L12.4332 2.55719C12.7546 2.70762 12.8794 3.09333 12.8472 3.4469C12.8235 3.7153 12.8582 3.98567 12.9489 4.23936C13.0397 4.49306 13.1844 4.72407 13.3731 4.91647C13.5537 5.09968 13.7705 5.24334 14.0096 5.33833C14.2488 5.43332 14.505 5.47756 14.7622 5.46826C15.0193 5.45895 15.2717 5.39629 15.5034 5.28426C15.735 5.17223 15.9408 5.01327 16.1078 4.81747" fill="white"/>
</svg>