<svg xmlns="http://www.w3.org/2000/svg" width="10" height="16" viewBox="0 0 10 16" fill="none">
  <path d="M5.3615 3.02623V2.27623V1.13323C5.3615 0.896824 5.17993 0.740234 4.9995 0.740234C4.8205 0.740234 4.6385 0.896379 4.6385 1.13323V2.27623V3.02623H3.8885H3.6055C2.35706 3.02623 1.3055 4.07385 1.3055 5.41023C1.3055 6.0736 1.4541 6.57987 1.75777 6.96049L1.75779 6.96052C2.05348 7.33117 2.45818 7.53248 2.87445 7.67702C2.87505 7.67722 2.87565 7.67743 2.87624 7.67764L6.90347 9.05034L6.91066 9.05279L6.91065 9.05283C7.27773 9.18212 7.5312 9.32727 7.69714 9.53471L5.3615 3.02623ZM5.3615 3.02623H6.1115M5.3615 3.02623H6.1115M6.1115 3.02623H6.1145C7.52418 3.02623 8.6945 4.20303 8.6945 5.70423C8.6945 5.94109 8.51249 6.09723 8.3335 6.09723C8.15351 6.09723 7.9725 5.9421 7.9725 5.70423C7.9725 4.67505 7.16343 3.81123 6.1145 3.81123H3.6055V3.81116M6.1115 3.02623L3.6055 3.81116M3.6055 3.81116L3.59483 3.81131M3.6055 3.81116L3.59483 3.81131M3.59483 3.81131C3.17411 3.8173 2.77293 3.9898 2.47916 4.29102C2.18643 4.59117 2.02414 4.99475 2.0275 5.41388C2.02803 5.94843 2.14574 6.24938 2.30284 6.44575L2.8885 5.97723L2.30284 6.44576C2.46879 6.65319 2.72225 6.79835 3.08935 6.92764L3.08933 6.92768L3.09652 6.93013L7.12375 8.30283C7.12432 8.30303 7.12489 8.30323 7.12546 8.30343C7.54176 8.44797 7.94649 8.64927 8.2422 9.01995L8.24223 9.01998C8.5459 9.4006 8.6945 9.90687 8.6945 10.5702C8.6945 11.9066 7.64293 12.9542 6.3945 12.9542H6.1115H5.3615V13.7042V14.8472C5.3615 15.0836 5.17993 15.2402 4.9995 15.2402C4.82136 15.2402 4.6395 15.085 4.6395 14.8472V13.7042V12.9542H3.8895H3.8855C2.47567 12.9542 1.3055 11.7783 1.3055 10.2762C1.3055 10.0389 1.48693 9.88323 1.6665 9.88323C1.84648 9.88323 2.0275 10.0384 2.0275 10.2762C2.0275 11.3054 2.83656 12.1692 3.8855 12.1692H6.3945V12.1693L6.40517 12.1692C6.82588 12.1632 7.22707 11.9907 7.52083 11.6895C7.81356 11.3893 7.97585 10.9857 7.97249 10.5666M3.59483 3.81131L7.97249 10.5666M7.97249 10.5666C7.97196 10.032 7.85425 9.7311 7.69715 9.53471L7.97249 10.5666Z" fill="black"/>
  <path d="M5.3615 3.02623V2.27623V1.13323C5.3615 0.896824 5.17993 0.740234 4.9995 0.740234C4.8205 0.740234 4.6385 0.896379 4.6385 1.13323V2.27623V3.02623H3.8885H3.6055C2.35706 3.02623 1.3055 4.07385 1.3055 5.41023C1.3055 6.0736 1.4541 6.57987 1.75777 6.96049L1.75779 6.96052C2.05348 7.33117 2.45818 7.53248 2.87445 7.67702C2.87505 7.67722 2.87565 7.67743 2.87624 7.67764L6.90347 9.05034L6.91066 9.05279L6.91065 9.05283C7.27773 9.18212 7.5312 9.32727 7.69714 9.53471L5.3615 3.02623ZM5.3615 3.02623H6.1115M5.3615 3.02623H6.1115M6.1115 3.02623H6.1145C7.52418 3.02623 8.6945 4.20303 8.6945 5.70423C8.6945 5.94109 8.51249 6.09723 8.3335 6.09723C8.15351 6.09723 7.9725 5.9421 7.9725 5.70423C7.9725 4.67505 7.16343 3.81123 6.1145 3.81123H3.6055V3.81116M6.1115 3.02623L3.6055 3.81116M3.6055 3.81116L3.59483 3.81131M3.6055 3.81116L3.59483 3.81131M3.59483 3.81131C3.17411 3.8173 2.77293 3.9898 2.47916 4.29102C2.18643 4.59117 2.02414 4.99475 2.0275 5.41388C2.02803 5.94843 2.14574 6.24938 2.30284 6.44575L2.8885 5.97723L2.30284 6.44576C2.46879 6.65319 2.72225 6.79835 3.08935 6.92764L3.08933 6.92768L3.09652 6.93013L7.12375 8.30283C7.12432 8.30303 7.12489 8.30323 7.12546 8.30343C7.54176 8.44797 7.94649 8.64927 8.2422 9.01995L8.24223 9.01998C8.5459 9.4006 8.6945 9.90687 8.6945 10.5702C8.6945 11.9066 7.64293 12.9542 6.3945 12.9542H6.1115H5.3615V13.7042V14.8472C5.3615 15.0836 5.17993 15.2402 4.9995 15.2402C4.82136 15.2402 4.6395 15.085 4.6395 14.8472V13.7042V12.9542H3.8895H3.8855C2.47567 12.9542 1.3055 11.7783 1.3055 10.2762C1.3055 10.0389 1.48693 9.88323 1.6665 9.88323C1.84648 9.88323 2.0275 10.0384 2.0275 10.2762C2.0275 11.3054 2.83656 12.1692 3.8855 12.1692H6.3945V12.1693L6.40517 12.1692C6.82588 12.1632 7.22707 11.9907 7.52083 11.6895C7.81356 11.3893 7.97585 10.9857 7.97249 10.5666M3.59483 3.81131L7.97249 10.5666M7.97249 10.5666C7.97196 10.032 7.85425 9.7311 7.69715 9.53471L7.97249 10.5666Z" fill="url(#paint0_linear_1423_7792)"/>
  <path d="M5.3615 3.02623V2.27623V1.13323C5.3615 0.896824 5.17993 0.740234 4.9995 0.740234C4.8205 0.740234 4.6385 0.896379 4.6385 1.13323V2.27623V3.02623H3.8885H3.6055C2.35706 3.02623 1.3055 4.07385 1.3055 5.41023C1.3055 6.0736 1.4541 6.57987 1.75777 6.96049L1.75779 6.96052C2.05348 7.33117 2.45818 7.53248 2.87445 7.67702C2.87505 7.67722 2.87565 7.67743 2.87624 7.67764L6.90347 9.05034L6.91066 9.05279L6.91065 9.05283C7.27773 9.18212 7.5312 9.32727 7.69714 9.53471L5.3615 3.02623ZM5.3615 3.02623H6.1115M5.3615 3.02623H6.1115M6.1115 3.02623H6.1145C7.52418 3.02623 8.6945 4.20303 8.6945 5.70423C8.6945 5.94109 8.51249 6.09723 8.3335 6.09723C8.15351 6.09723 7.9725 5.9421 7.9725 5.70423C7.9725 4.67505 7.16343 3.81123 6.1145 3.81123H3.6055V3.81116M6.1115 3.02623L3.6055 3.81116M3.6055 3.81116L3.59483 3.81131M3.6055 3.81116L3.59483 3.81131M3.59483 3.81131C3.17411 3.8173 2.77293 3.9898 2.47916 4.29102C2.18643 4.59117 2.02414 4.99475 2.0275 5.41388C2.02803 5.94843 2.14574 6.24938 2.30284 6.44575L2.8885 5.97723L2.30284 6.44576C2.46879 6.65319 2.72225 6.79835 3.08935 6.92764L3.08933 6.92768L3.09652 6.93013L7.12375 8.30283C7.12432 8.30303 7.12489 8.30323 7.12546 8.30343C7.54176 8.44797 7.94649 8.64927 8.2422 9.01995L8.24223 9.01998C8.5459 9.4006 8.6945 9.90687 8.6945 10.5702C8.6945 11.9066 7.64293 12.9542 6.3945 12.9542H6.1115H5.3615V13.7042V14.8472C5.3615 15.0836 5.17993 15.2402 4.9995 15.2402C4.82136 15.2402 4.6395 15.085 4.6395 14.8472V13.7042V12.9542H3.8895H3.8855C2.47567 12.9542 1.3055 11.7783 1.3055 10.2762C1.3055 10.0389 1.48693 9.88323 1.6665 9.88323C1.84648 9.88323 2.0275 10.0384 2.0275 10.2762C2.0275 11.3054 2.83656 12.1692 3.8855 12.1692H6.3945V12.1693L6.40517 12.1692C6.82588 12.1632 7.22707 11.9907 7.52083 11.6895C7.81356 11.3893 7.97585 10.9857 7.97249 10.5666M3.59483 3.81131L7.97249 10.5666M7.97249 10.5666C7.97196 10.032 7.85425 9.7311 7.69715 9.53471L7.97249 10.5666Z" stroke="url(#paint1_linear_1423_7792)" stroke-width="1.5"/>
  <defs>
    <linearGradient id="paint0_linear_1423_7792" x1="5.54467" y1="15.9902" x2="5.84026" y2="3.86089" gradientUnits="userSpaceOnUse">
      <stop stop-color="#D1CECE" stop-opacity="0.8"/>
      <stop offset="1" stop-color="#FFEBC8"/>
    </linearGradient>
    <linearGradient id="paint1_linear_1423_7792" x1="5.54467" y1="15.9902" x2="5.84026" y2="3.86089" gradientUnits="userSpaceOnUse">
      <stop stop-color="#D1CECE" stop-opacity="0.8"/>
      <stop offset="1" stop-color="#FFEBC8"/>
    </linearGradient>
  </defs>
</svg>