<svg width="48" height="48" viewBox="0 0 48 48" fill="none" xmlns="http://www.w3.org/2000/svg">
<rect y="0.000976562" width="48" height="48" rx="24" fill="#272727"/>
<path fill-rule="evenodd" clip-rule="evenodd" d="M29.1395 10.4296H18.8605C17.7043 10.4303 16.5957 10.8451 15.7781 11.5827C14.9605 12.3204 14.5008 13.3206 14.5 14.3639V33.6381C14.5008 34.6813 14.9605 35.6816 15.7781 36.4193C16.5957 37.1569 17.7043 37.5717 18.8605 37.5724H29.1395C30.2957 37.5717 31.4043 37.1569 32.2219 36.4193C33.0395 35.6816 33.4992 34.6813 33.5 33.6381V14.3639C33.4992 13.3206 33.0395 12.3204 32.2219 11.5827C31.4043 10.8451 30.2957 10.4303 29.1395 10.4296ZM24 34.7153C23.6868 34.7153 23.3807 34.6315 23.1203 34.4745C22.86 34.3175 22.657 34.0944 22.5372 33.8334C22.4174 33.5724 22.386 33.2851 22.4471 33.008C22.5082 32.7309 22.659 32.4763 22.8804 32.2766C23.1018 32.0768 23.384 31.9407 23.6911 31.8856C23.9982 31.8305 24.3166 31.8588 24.6059 31.9669C24.8952 32.075 25.1425 32.2581 25.3165 32.493C25.4905 32.728 25.5833 33.0042 25.5833 33.2867C25.5833 33.6656 25.4165 34.029 25.1196 34.2969C24.8227 34.5648 24.4199 34.7153 24 34.7153ZM25.4131 15.8582H23.0211C22.6432 15.8582 22.3347 16.1654 22.3347 16.5446V19.9935H20.9221C20.6459 19.9935 20.4048 20.1505 20.2943 20.4038C20.1838 20.657 20.2303 20.94 20.4182 21.1434L23.7123 24.7182C23.8416 24.8576 24.0262 24.9391 24.2162 24.9391C24.4075 24.9391 24.5907 24.8583 24.72 24.7182L28.0153 21.1434C28.2032 20.94 28.2497 20.657 28.1392 20.4038C28.0287 20.1505 27.789 19.9935 27.5114 19.9935H26.0989L26.0995 16.5446C26.0995 16.1654 25.7923 15.8582 25.4131 15.8582ZM19.5412 25.6807H28.8047C29.091 25.6807 29.3221 25.9117 29.3221 26.198C29.3221 26.4843 29.091 26.7154 28.8047 26.7154H19.5412C19.2549 26.7154 19.0238 26.4843 19.0238 26.198C19.0238 25.9117 19.2549 25.6807 19.5412 25.6807Z" fill="white"/>
</svg>
