<svg xmlns="http://www.w3.org/2000/svg" width="24" height="24" viewBox="0 0 24 24" fill="none">
  <path fill-rule="evenodd" clip-rule="evenodd" d="M5 19.9995C4.20435 19.9995 3.44129 19.6834 2.87868 19.1208C2.31607 18.5582 2 17.7952 2 16.9995V6.99951C2 6.20386 2.31607 5.4408 2.87868 4.87819C3.44129 4.31558 4.20435 3.99951 5 3.99951H19C19.7956 3.99951 20.5587 4.31558 21.1213 4.87819C21.6839 5.4408 22 6.20386 22 6.99951V16.9995C22 17.7952 21.6839 18.5582 21.1213 19.1208C20.5587 19.6834 19.7956 19.9995 19 19.9995H5ZM7.625 8.21951C7.52313 8.13253 7.40483 8.0669 7.27711 8.02651C7.1494 7.98613 7.01487 7.97182 6.88151 7.98443C6.74816 7.99703 6.61869 8.0363 6.50081 8.09991C6.38292 8.16351 6.27901 8.25015 6.19525 8.35468C6.11149 8.45921 6.04959 8.57951 6.01321 8.70842C5.97684 8.83734 5.96673 8.97225 5.9835 9.10515C6.00026 9.23805 6.04356 9.36622 6.11081 9.48206C6.17806 9.59791 6.2679 9.69906 6.375 9.77951L10.125 12.7805C10.6571 13.2065 11.3184 13.4386 12 13.4386C12.6816 13.4386 13.3429 13.2065 13.875 12.7805L17.625 9.78051C17.7276 9.69844 17.813 9.59696 17.8763 9.48188C17.9396 9.36681 17.9797 9.24038 17.9942 9.10982C18.0087 8.97926 17.9973 8.84713 17.9607 8.72096C17.9241 8.5948 17.8631 8.47707 17.781 8.37451C17.6989 8.27195 17.5974 8.18656 17.4824 8.12321C17.3673 8.05986 17.2409 8.01981 17.1103 8.00532C16.9798 7.99083 16.8476 8.00221 16.7215 8.03878C16.5953 8.07536 16.4776 8.13644 16.375 8.21851L12.625 11.2185C12.4476 11.3605 12.2272 11.4379 12 11.4379C11.7728 11.4379 11.5524 11.3605 11.375 11.2185L7.625 8.21951Z" fill="white"/>
</svg>