<svg xmlns="http://www.w3.org/2000/svg" width="20" height="10" viewBox="0 0 20 10" fill="none">
  <path d="M19.583 7.60905C19.4954 7.659 19.3988 7.69118 19.2988 7.70376C19.1987 7.71634 19.0972 7.70906 19 7.68235C18.9027 7.65564 18.8117 7.61001 18.7321 7.54809C18.6526 7.48616 18.586 7.40915 18.5362 7.32146L16.7148 4.1388C15.6559 4.85478 14.4878 5.39415 13.256 5.73588L13.8188 9.11218C13.8354 9.21158 13.8322 9.31327 13.8095 9.41145C13.7868 9.50963 13.7449 9.60236 13.6863 9.68436C13.6278 9.76635 13.5536 9.836 13.4681 9.88932C13.3826 9.94263 13.2874 9.97857 13.188 9.99508C13.1471 10.0018 13.1057 10.0053 13.0643 10.0056C12.8829 10.0054 12.7074 9.94077 12.5691 9.82335C12.4308 9.70593 12.3386 9.54328 12.3089 9.3643L11.7558 6.04935C10.5893 6.21168 9.40599 6.21168 8.23952 6.04935L7.68639 9.3643C7.65663 9.54361 7.56415 9.70651 7.42544 9.82397C7.28674 9.94143 7.11082 10.0058 6.92907 10.0056C6.88668 10.0055 6.84436 10.0019 6.80253 9.99508C6.70312 9.97857 6.60794 9.94263 6.52242 9.88932C6.43691 9.836 6.36274 9.76635 6.30416 9.68436C6.24558 9.60236 6.20373 9.50963 6.18101 9.41145C6.15829 9.31327 6.15514 9.21158 6.17175 9.11218L6.73734 5.73588C5.5061 5.39307 4.33865 4.85273 3.28051 4.13592L1.46486 7.32146C1.36316 7.49867 1.19524 7.62822 0.998018 7.68161C0.800801 7.73501 0.590451 7.70787 0.413242 7.60617C0.236033 7.50447 0.106481 7.33654 0.0530872 7.13933C-0.000307042 6.94211 0.0268297 6.73176 0.128528 6.55455L2.04579 3.19934C1.37235 2.61752 0.753094 1.9758 0.195632 1.28207C0.126111 1.20445 0.0731378 1.11347 0.0399459 1.0147C0.00675413 0.915922 -0.00596004 0.811417 0.00257981 0.707565C0.0111196 0.603712 0.0407343 0.502689 0.0896159 0.410662C0.138497 0.318635 0.20562 0.237535 0.286888 0.172312C0.368155 0.10709 0.461862 0.0591131 0.562288 0.0313105C0.662714 0.00350794 0.767752 -0.00353737 0.870991 0.0106052C0.97423 0.0247477 1.0735 0.0597814 1.16275 0.113567C1.252 0.167353 1.32936 0.238763 1.39009 0.323438C2.98142 2.29247 5.76529 4.63729 9.99669 4.63729C14.2281 4.63729 17.012 2.28959 18.6033 0.323438C18.6633 0.23703 18.7405 0.163901 18.83 0.1086C18.9195 0.0533003 19.0195 0.0170119 19.1236 0.0019932C19.2278 -0.0130255 19.3339 -0.00645329 19.4354 0.0213009C19.5369 0.049055 19.6316 0.0973977 19.7136 0.163321C19.7956 0.229244 19.8632 0.311337 19.9121 0.404494C19.961 0.49765 19.9902 0.599876 19.9979 0.704812C20.0057 0.809749 19.9917 0.91515 19.9569 1.01446C19.9222 1.11377 19.8673 1.20486 19.7958 1.28207C19.2384 1.9758 18.6191 2.61752 17.9457 3.19934L19.8629 6.55455C19.9144 6.64201 19.948 6.73882 19.9618 6.83936C19.9756 6.9399 19.9693 7.04218 19.9432 7.14026C19.9172 7.23835 19.8719 7.33029 19.8101 7.41076C19.7483 7.49123 19.6711 7.55863 19.583 7.60905Z" fill="white" fill-opacity="0.48"/>
</svg>