<svg xmlns="http://www.w3.org/2000/svg" width="4" height="6" viewBox="0 0 4 6" fill="none">
  <path d="M0.137325 0.147185C0.180566 0.110474 0.231934 0.0813475 0.288487 0.0614745C0.345041 0.0416015 0.405668 0.0313721 0.466897 0.0313721C0.528126 0.0313721 0.588754 0.0416015 0.645307 0.0614745C0.701861 0.0813475 0.753229 0.110474 0.796469 0.147185L3.89109 2.76786C3.92562 2.79703 3.95301 2.83169 3.97169 2.86984C3.99038 2.90799 4 2.94889 4 2.99019C4 3.03149 3.99038 3.07239 3.97169 3.11054C3.95301 3.14869 3.92562 3.18335 3.89109 3.21252L0.796469 5.83319C0.613994 5.98772 0.3198 5.98772 0.137325 5.83319C-0.0451498 5.67867 -0.0451498 5.42953 0.137325 5.275L2.83348 2.98861L0.133602 0.702225C-0.0451493 0.55085 -0.0451498 0.298559 0.137325 0.147185Z" fill="white"/>
</svg>