<svg width="24" height="24" viewBox="0 0 24 24" fill="none" xmlns="http://www.w3.org/2000/svg">
<g id="icon_check_select">
<path id="&#229;&#189;&#162;&#231;&#138;&#182;" d="M12 2C17.5228 2 22 6.47715 22 12C22 17.5228 17.5228 22 12 22C6.47715 22 2 17.5228 2 12C2 6.47715 6.47715 2 12 2Z" fill="#F54100"/>
<path id="&#229;&#189;&#162;&#231;&#138;&#182;_2" d="M10.5857 13.331L15.5355 8.38128C15.926 7.99075 16.5592 7.99075 16.9497 8.38128C17.3402 8.7718 17.3402 9.40497 16.9497 9.79549L11.3636 15.3816C10.934 15.8112 10.2375 15.8112 9.80793 15.3816L7.05021 12.6239C6.65969 12.2334 6.65969 11.6002 7.05021 11.2097C7.44074 10.8192 8.0739 10.8192 8.46442 11.2097L10.5857 13.331Z" fill="white"/>
</g>
</svg>
