<svg xmlns="http://www.w3.org/2000/svg" width="16" height="16" viewBox="0 0 16 16" fill="none">
  <path d="M12.5142 9.44624L14.7671 7.19305C16.4105 5.54995 16.4105 2.87582 14.7671 1.23272C13.1238 -0.410907 10.4498 -0.410907 8.80657 1.23272L5.5554 4.48389C3.91195 6.12698 3.91195 8.80112 5.5554 10.4442C5.79805 10.687 6.06364 10.8929 6.34469 11.0639L8.0852 9.32322C7.75366 9.24394 7.43919 9.07666 7.18108 8.81872C6.4341 8.07175 6.4341 6.85618 7.18108 6.10939L10.4322 2.85822C11.1792 2.11124 12.3948 2.11124 13.1416 2.85822C13.8886 3.60519 13.8886 4.82058 13.1416 5.56755L12.1864 6.52287C12.58 7.44921 12.6888 8.46799 12.5142 9.44624Z" fill="white"/>
  <path d="M3.48589 6.55395L1.23306 8.80696C-0.410571 10.4502 -0.410571 13.1242 1.23306 14.7675C2.87615 16.4109 5.55029 16.4109 7.19356 14.7675L10.4446 11.5163C12.088 9.87303 12.0878 7.19907 10.4446 5.55597C10.2021 5.31314 9.9365 5.10729 9.65545 4.93628L7.91494 6.67697C8.24629 6.75643 8.56076 6.92335 8.81906 7.18147C9.56603 7.92844 9.56603 9.14383 8.81906 9.89081L5.56771 13.142C4.82074 13.8889 3.60535 13.8889 2.85837 13.142C2.1114 12.395 2.1114 11.1796 2.85837 10.4326L3.81369 9.4775C3.41994 8.55116 3.31115 7.5322 3.48589 6.55395Z" fill="white"/>
</svg>