<svg xmlns="http://www.w3.org/2000/svg" width="16" height="16" viewBox="0 0 16 16" fill="none">
  <path d="M9.5641 0.5H6.56588C6.09221 0.5 5.70549 0.885006 5.70549 1.36039V5.68339H3.93492C3.58874 5.68339 3.28647 5.88012 3.14801 6.19759C3.00954 6.51507 3.0678 6.86968 3.30336 7.12467L7.43226 11.6055C7.59438 11.7802 7.82572 11.8824 8.06383 11.8824C8.30363 11.8824 8.53329 11.7811 8.6954 11.6055L12.8258 7.12467C13.0614 6.86968 13.1196 6.51507 12.9812 6.19759C12.8427 5.8801 12.5421 5.68339 12.1943 5.68339H10.4237L10.4245 1.36039C10.4245 0.885028 10.0395 0.5 9.5641 0.5Z" fill="white"/>
  <path d="M14.8258 13.9752H1.1742C0.752295 13.9752 0.411812 14.3157 0.411812 14.7376C0.411812 15.1595 0.752295 15.5 1.1742 15.5H14.8258C15.2477 15.5 15.5882 15.1595 15.5882 14.7376C15.5882 14.3157 15.2477 13.9752 14.8258 13.9752Z" fill="white"/>
</svg>