<svg width="16" height="16" viewBox="0 0 16 16" fill="none" xmlns="http://www.w3.org/2000/svg">
<g id="Frame" clip-path="url(#clip0_46_3663)">
<g id="Vector">
<path d="M8 15.3335C6.9981 15.3334 6.01934 15.0323 5.19061 14.4693C4.36187 13.9062 3.7214 13.1072 3.35223 12.1758C2.98306 11.2444 2.90222 10.2236 3.12019 9.24567C3.33816 8.26777 3.84489 7.37791 4.57467 6.69145C5.46934 5.84945 7.66667 4.33346 7.33333 1.00012C11.3333 3.66679 13.3333 6.33346 9.33334 10.3335C10 10.3335 11 10.3335 12.6667 8.68679C12.8467 9.20212 13 9.75612 13 10.3335C13 11.6595 12.4732 12.9313 11.5355 13.869C10.5979 14.8067 9.32608 15.3335 8 15.3335Z" fill="black"/>
<path d="M8 15.3335C6.9981 15.3334 6.01934 15.0323 5.19061 14.4693C4.36187 13.9062 3.7214 13.1072 3.35223 12.1758C2.98306 11.2444 2.90222 10.2236 3.12019 9.24567C3.33816 8.26777 3.84489 7.37791 4.57467 6.69145C5.46934 5.84945 7.66667 4.33346 7.33333 1.00012C11.3333 3.66679 13.3333 6.33346 9.33334 10.3335C10 10.3335 11 10.3335 12.6667 8.68679C12.8467 9.20212 13 9.75612 13 10.3335C13 11.6595 12.4732 12.9313 11.5355 13.869C10.5979 14.8067 9.32608 15.3335 8 15.3335Z" fill="url(#paint0_linear_46_3663)"/>
</g>
</g>
<defs>
<linearGradient id="paint0_linear_46_3663" x1="8.00021" y1="1.00012" x2="8.00021" y2="15.3335" gradientUnits="userSpaceOnUse">
<stop stop-color="#FFA132"/>
<stop offset="1" stop-color="#FF3232"/>
</linearGradient>
<clipPath id="clip0_46_3663">
<rect width="16" height="16" fill="white"/>
</clipPath>
</defs>
</svg>
