<svg xmlns="http://www.w3.org/2000/svg" width="28" height="28" viewBox="0 0 28 28" fill="none">
  <path d="M24.5 14C24.5 16.0767 23.8842 18.1068 22.7304 19.8335C21.5767 21.5602 19.9368 22.906 18.0182 23.7007C16.0996 24.4955 13.9884 24.7034 11.9516 24.2982C9.91476 23.8931 8.04383 22.8931 6.57538 21.4246C5.10693 19.9562 4.1069 18.0852 3.70176 16.0484C3.29661 14.0116 3.50455 11.9004 4.29927 9.98182C5.09399 8.0632 6.4398 6.42332 8.16652 5.26957C9.89323 4.11581 11.9233 3.5 14 3.5C16.94 3.5 19.7517 4.66667 21.8633 6.69667L24.5 9.33333" stroke="#444444" stroke-width="1.90909" stroke-linecap="round" stroke-linejoin="round"/>
  <path d="M24.5003 3.5V9.33333H18.667" stroke="#444444" stroke-width="1.90909" stroke-linecap="round" stroke-linejoin="round"/>
</svg>