<svg width="29" height="29" viewBox="0 0 29 29" fill="none" xmlns="http://www.w3.org/2000/svg">
<path d="M0.956758 8.75945C1.62356 4.75867 4.75867 1.62356 8.75945 0.956758C12.5603 0.323288 16.4397 0.323289 20.2406 0.956759C24.2413 1.62356 27.3764 4.75866 28.0432 8.75945C28.6767 12.5603 28.6767 16.4397 28.0432 20.2406C27.3764 24.2413 24.2413 27.3764 20.2406 28.0432C16.4397 28.6767 12.5603 28.6767 8.75945 28.0432C4.75867 27.3764 1.62356 24.2413 0.956758 20.2406C0.323288 16.4397 0.323288 12.5603 0.956758 8.75945Z" fill="url(#paint0_linear_3781_1777)"/>
<path d="M7.42676 15.0371C7.42676 18.5963 10.312 21.4815 13.8712 21.4815C17.4304 21.4815 20.3156 18.5963 20.3156 15.0371C20.3156 11.4779 17.4304 8.59265 13.8712 8.59265C11.3061 8.59265 9.091 10.0913 8.05378 12.2608" stroke="white" stroke-width="1.75331" stroke-linecap="round"/>
<path d="M20.5425 14.4776C22.2707 15.7421 23.1927 17.0468 22.8462 18.0121C22.2294 19.7305 17.8269 19.7229 13.0129 17.9951C8.19883 16.2672 4.79625 13.4736 5.413 11.7552C5.72868 10.8756 7.03618 10.4483 8.88304 10.4723L9.00913 10.4723" stroke="white" stroke-width="1.75331"/>
<defs>
<linearGradient id="paint0_linear_3781_1777" x1="21.8948" y1="2.9704" x2="3.48021" y2="28.6949" gradientUnits="userSpaceOnUse">
<stop stop-color="#FF8517"/>
<stop offset="0.500036" stop-color="#F54100"/>
<stop offset="1" stop-color="#FF4E00"/>
</linearGradient>
</defs>
</svg>
