<svg xmlns="http://www.w3.org/2000/svg" width="10" height="14" viewBox="0 0 10 14" fill="none">
  <path d="M9.2651 0.490391C9.16609 0.406335 9.04848 0.339646 8.91899 0.294144C8.7895 0.248642 8.65069 0.22522 8.51049 0.22522C8.3703 0.22522 8.23148 0.248642 8.102 0.294144C7.97251 0.339646 7.85489 0.406335 7.75589 0.490391L0.670255 6.49084C0.59121 6.55764 0.528499 6.63699 0.485711 6.72434C0.442923 6.81169 0.420898 6.90533 0.420898 6.9999C0.420898 7.09447 0.442923 7.18811 0.485711 7.27546C0.528499 7.36281 0.59121 7.44216 0.670255 7.50896L7.75589 13.5094C8.17369 13.8632 8.8473 13.8632 9.2651 13.5094C9.68291 13.1556 9.68291 12.5852 9.2651 12.2313L3.09182 6.99629L9.27363 1.76124C9.68291 1.41465 9.68291 0.836987 9.2651 0.490391Z" fill="white"/>
</svg>