<svg xmlns="http://www.w3.org/2000/svg" width="24" height="25" viewBox="0 0 24 25" fill="none">
  <path fill-rule="evenodd" clip-rule="evenodd" d="M2 12.9189C2 12.5047 2.33579 12.1689 2.75 12.1689H14.791C15.2052 12.1689 15.541 12.5047 15.541 12.9189C15.541 13.3331 15.2052 13.6689 14.791 13.6689H2.75C2.33579 13.6689 2 13.3331 2 12.9189Z" fill="black"/>
  <path fill-rule="evenodd" clip-rule="evenodd" d="M11.3319 9.47369C11.6242 9.1802 12.0991 9.17922 12.3926 9.47151L15.3206 12.3875C15.4619 12.5282 15.5414 12.7195 15.5414 12.9189C15.5414 13.1184 15.4619 13.3096 15.3206 13.4503L12.3926 16.3663C12.0991 16.6586 11.6242 16.6576 11.3319 16.3642C11.0396 16.0707 11.0406 15.5958 11.3341 15.3035L13.7285 12.9189L11.3341 10.5343C11.0406 10.2421 11.0396 9.76719 11.3319 9.47369Z" fill="black"/>
  <path fill-rule="evenodd" clip-rule="evenodd" d="M9.32939 5.24794C8.55268 5.82349 8.16438 6.7644 8.0047 8.49669C7.96668 8.90916 7.60149 9.2127 7.18903 9.17468C6.77656 9.13666 6.47301 8.77147 6.51103 8.35901C6.68135 6.5113 7.12806 5.01221 8.43634 4.04276C9.69065 3.1133 11.5804 2.79785 14.2578 2.79785C17.8077 2.79785 19.9902 3.35439 21.1103 5.17779C21.6441 6.04685 21.88 7.12315 21.9947 8.35524C22.1088 9.5825 22.1088 11.0568 22.1088 12.7662V12.8294C22.1088 14.5388 22.1088 16.0132 21.9947 17.2404C21.88 18.4725 21.6441 19.5488 21.1103 20.4179C19.9902 22.2413 17.8077 22.7978 14.2578 22.7978C11.5804 22.7978 9.69065 22.4824 8.43634 21.5529C7.12806 20.5835 6.68135 19.0844 6.51103 17.2367C6.47301 16.8242 6.77656 16.459 7.18903 16.421C7.60149 16.383 7.96668 16.6865 8.0047 17.099C8.16438 18.8313 8.55268 19.7722 9.32939 20.3477C10.1601 20.9633 11.6053 21.2978 14.2578 21.2978C17.809 21.2978 19.177 20.6994 19.8322 19.6328C20.1859 19.0568 20.3938 18.2544 20.5011 17.1015C20.6081 15.9513 20.6088 14.545 20.6088 12.7978C20.6088 11.0506 20.6081 9.64439 20.5011 8.49421C20.3938 7.3413 20.1859 6.53885 19.8322 5.96291C19.177 4.89631 17.809 4.29785 14.2578 4.29785C11.6053 4.29785 10.1601 4.63239 9.32939 5.24794Z" fill="black"/>
</svg>