<svg xmlns="http://www.w3.org/2000/svg" width="24" height="24" viewBox="0 0 24 24" fill="none">
  <path d="M8.28572 22.2021L16.8571 22.2021C17.4255 22.2021 17.9705 21.9764 18.3724 21.5745C18.7742 21.1727 19 20.6276 19 20.0593L19 4.34501C19 3.77668 18.7742 3.23164 18.3724 2.82978C17.9705 2.42791 17.4255 2.20215 16.8571 2.20215L8.28572 2.20215C7.7174 2.20215 7.17235 2.42791 6.77049 2.82978C6.36862 3.23164 6.14286 3.77668 6.14286 4.345L6.14286 20.0593C6.14286 20.6276 6.36862 21.1727 6.77049 21.5745C7.17235 21.9764 7.71739 22.2021 8.28572 22.2021ZM12.5714 17.2021C12.7833 17.2021 12.9905 17.265 13.1667 17.3827C13.3429 17.5004 13.4802 17.6678 13.5613 17.8636C13.6424 18.0593 13.6636 18.2748 13.6223 18.4826C13.5809 18.6904 13.4789 18.8813 13.329 19.0312C13.1792 19.181 12.9883 19.2831 12.7805 19.3244C12.5726 19.3658 12.3572 19.3445 12.1614 19.2634C11.9656 19.1824 11.7983 19.045 11.6806 18.8688C11.5628 18.6926 11.5 18.4855 11.5 18.2736C11.5 17.9894 11.6129 17.7169 11.8138 17.516C12.0147 17.315 12.2873 17.2021 12.5714 17.2021Z" fill="white"/>
</svg>