<svg xmlns="http://www.w3.org/2000/svg" width="22" height="16" viewBox="0 0 22 16" fill="none">
  <path d="M21.3905 6.36545V7.97342C21.3905 8.14964 21.3205 8.31865 21.1959 8.44326C21.0713 8.56787 20.9023 8.63787 20.726 8.63787H17.7227C17.3333 8.63787 16.9598 8.48316 16.6844 8.20778C16.409 7.93239 16.2543 7.55889 16.2543 7.16943C16.2543 6.77998 16.409 6.40648 16.6844 6.13109C16.9598 5.85571 17.3333 5.701 17.7227 5.701H20.726C20.9023 5.701 21.0713 5.771 21.1959 5.89561C21.3205 6.02022 21.3905 6.18923 21.3905 6.36545ZM9.05827 11.7209C9.05852 12.2829 8.948 12.8395 8.73304 13.3587C8.51809 13.878 8.2029 14.3498 7.80551 14.7472C7.40811 15.1446 6.93629 15.4598 6.41702 15.6748C5.89775 15.8897 5.34121 16.0002 4.7792 16C3.75636 16.0007 2.76716 15.6347 1.99104 14.9685C1.21491 14.3023 0.703284 13.38 0.548962 12.3689C0.394641 11.3577 0.60785 10.3248 1.14991 9.45741C1.69197 8.59002 2.52698 7.94565 3.50345 7.64119C3.91538 7.50728 4.34605 7.43999 4.7792 7.44186H4.83236C5.95772 7.45672 7.032 7.914 7.82283 8.71478C8.61366 9.51556 9.05748 10.5955 9.05827 11.7209ZM6.86558 11.7209C6.86645 11.6334 6.84985 11.5466 6.81677 11.4656C6.78369 11.3846 6.73478 11.311 6.6729 11.2492C6.61103 11.1873 6.53743 11.1384 6.45643 11.1053C6.37542 11.0722 6.28863 11.0556 6.20113 11.0565H5.44365V10.299C5.44315 10.1229 5.37299 9.95422 5.24849 9.82972C5.12399 9.70522 4.95527 9.63505 4.7792 9.63455C4.60384 9.63732 4.43644 9.70822 4.31243 9.83223C4.18841 9.95624 4.11752 10.1236 4.11475 10.299V11.0565H3.35727C3.18105 11.0565 3.01204 11.1265 2.88744 11.2511C2.76283 11.3757 2.69282 11.5447 2.69282 11.7209C2.69282 11.8972 2.76283 12.0662 2.88744 12.1908C3.01204 12.3154 3.18105 12.3854 3.35727 12.3854H4.11475V13.1429C4.11528 13.3189 4.18545 13.4876 4.30994 13.6121C4.43444 13.7366 4.60314 13.8068 4.7792 13.8073C4.8667 13.8082 4.95349 13.7916 5.03449 13.7585C5.11549 13.7254 5.18908 13.6765 5.25096 13.6146C5.31283 13.5527 5.36174 13.4791 5.39483 13.3981C5.42791 13.3171 5.44451 13.2304 5.44365 13.1429V12.3854H6.20113C6.28862 12.3862 6.37542 12.3696 6.45642 12.3366C6.53743 12.3035 6.61102 12.2546 6.67289 12.1927C6.73476 12.1308 6.78367 12.0572 6.81676 11.9762C6.84985 11.8952 6.86644 11.8084 6.86558 11.7209ZM14.932 7.17608C14.9314 6.43453 15.2248 5.72299 15.7479 5.19739C16.271 4.6718 16.9812 4.37502 17.7227 4.37209H20.4204V3.32226C20.4201 2.44124 20.07 1.5964 19.447 0.973421C18.824 0.350446 17.9792 0.000320516 17.0981 0H6.82571C5.94469 0.000320516 5.09985 0.350446 4.47687 0.973421C3.8539 1.5964 3.50377 2.44124 3.50345 3.32226V6.25914C4.46968 6.03486 5.47809 6.07058 6.42603 6.36265C7.37397 6.65472 8.22761 7.19272 8.90007 7.9219C9.57254 8.65107 10.0398 9.54539 10.2543 10.5138C10.4689 11.4823 10.423 12.4903 10.1214 13.4352C10.0205 13.7517 9.89155 14.0586 9.73601 14.3522H17.0981C17.9792 14.3518 18.824 14.0017 19.447 13.3787C20.07 12.7558 20.4201 11.9109 20.4204 11.0299V9.96678H17.7227C17.3562 9.96682 16.9933 9.89467 16.6547 9.75444C16.3161 9.61421 16.0084 9.40866 15.7493 9.14951C15.4901 8.89036 15.2846 8.58269 15.1444 8.24409C15.0041 7.90548 14.932 7.54257 14.932 7.17608Z" fill="white"/>
</svg>