<svg xmlns="http://www.w3.org/2000/svg" width="89" height="16" viewBox="0 0 89 16" fill="none">
  <path d="M83.9417 6.40249L85.8304 10.9638H85.8526L87.6967 6.40249H89L85.0241 15.5583H83.7873L85.2673 12.3554L82.6496 6.40249H83.9417ZM79.6566 6.19265C80.5401 6.19265 81.2357 6.42458 81.7439 6.89949C82.252 7.3744 82.5059 8.01497 82.5059 8.8433V12.764H81.3682V11.8805H81.3133C80.8162 12.6094 80.1644 12.9739 79.347 12.9739C78.6514 12.9739 78.066 12.764 77.5913 12.3554C77.1162 11.9357 76.8842 11.4166 76.8842 10.7981C76.8842 10.1465 77.1273 9.61639 77.6355 9.22983C78.1325 8.8433 78.7951 8.64449 79.6232 8.64449C80.33 8.64449 80.9153 8.77704 81.3793 9.03105V8.75492C81.3793 8.33524 81.2138 7.99289 80.8823 7.69466C80.5512 7.40751 80.1644 7.26393 79.7227 7.26393C79.0601 7.26393 78.5301 7.54006 78.1433 8.10332L77.0943 7.44066C77.6685 6.61233 78.5301 6.19265 79.6566 6.19265ZM73.6262 3.46472C74.4324 3.46472 75.1173 3.72979 75.6804 4.27097C76.2546 4.81214 76.5308 5.46373 76.5308 6.2258C76.5308 7.00996 76.2435 7.67262 75.6804 8.1917C75.128 8.72185 74.4436 8.98692 73.6262 8.98692H71.6603V12.753H70.4673V3.46472H73.6262ZM79.811 9.58324C79.3251 9.58324 78.9276 9.70474 78.5961 9.93666C78.2758 10.1796 78.1102 10.4668 78.1102 10.8092C78.1102 11.1184 78.2427 11.3835 78.5078 11.5823C78.7728 11.7921 79.082 11.8915 79.4354 11.8915C79.9324 11.8915 80.3853 11.7038 80.7828 11.3393C81.1804 10.9638 81.3682 10.5331 81.3682 10.025C80.9929 9.72682 80.4736 9.58324 79.811 9.58324ZM73.6592 4.62438H71.6603V7.86037H73.6592C74.1344 7.86037 74.5319 7.70577 74.8411 7.38546C75.1614 7.06519 75.3158 6.68969 75.3158 6.24789C75.3158 5.81719 75.1614 5.44165 74.8411 5.12138C74.5319 4.79005 74.1344 4.62438 73.6592 4.62438Z" fill="#5F6368"/>
  <path d="M53.6135 6.20366C54.4198 6.20366 55.0604 6.55707 55.3919 6.95466H55.4468V6.40247H56.8607V12.4769C56.8607 14.9729 55.3919 16 53.6469 16C52.0122 16 51.0293 14.8956 50.6536 14.001L51.9461 13.4598C52.1777 14.012 52.7412 14.6637 53.6469 14.6637C54.7624 14.6637 55.4468 13.9678 55.4468 12.6757V12.1897H55.3919C55.0604 12.5983 54.4198 12.9628 53.6135 12.9628C51.9238 12.9628 50.3778 11.4939 50.3778 9.59429C50.3778 7.68362 51.9238 6.20366 53.6135 6.20366ZM63.3329 6.21472C65.0891 6.21472 65.9395 7.60634 66.2264 8.36837L66.3812 8.75493L61.8641 10.6214C62.2063 11.2952 62.7475 11.6486 63.4985 11.6486C64.2498 11.6265 64.7799 11.262 65.1663 10.6987L66.3147 11.4718C65.9395 12.0241 65.0449 12.9739 63.4985 12.9739C61.5768 12.9739 60.1521 11.4939 60.1521 9.59432C60.1521 7.58421 61.5991 6.21472 63.3329 6.21472ZM30.2667 2.47076C31.8681 2.47076 33.0057 3.10029 33.8561 3.91757L32.84 4.93365C32.2215 4.35937 31.3932 3.90655 30.2556 3.90655C28.1462 3.90655 26.4895 5.60737 26.4895 7.71685C26.4895 9.82629 28.1352 11.5272 30.2556 11.5272C31.6251 11.5272 32.4093 10.9749 32.9063 10.4779C33.3149 10.0693 33.58 9.48393 33.6904 8.67769H30.2225V7.24194H35.082C35.1372 7.49595 35.1593 7.80519 35.1593 8.13652C35.1593 9.20784 34.8611 10.5442 33.9224 11.494C32.9946 12.4548 31.8239 12.9629 30.2667 12.9629C27.3731 12.9629 24.9434 10.6104 24.9434 7.71685C24.9434 4.82322 27.3731 2.47076 30.2667 2.47076ZM39.0474 6.20366C40.9139 6.20366 42.438 7.62839 42.438 9.58322C42.438 11.527 40.9139 12.9628 39.0474 12.9628C37.1809 12.9628 35.6568 11.527 35.6568 9.58322C35.6568 7.62839 37.1809 6.20366 39.0474 6.20366ZM46.4246 6.20366C48.291 6.20366 49.8151 7.62839 49.8151 9.58322C49.8151 11.527 48.291 12.9628 46.4246 12.9628C44.5579 12.9628 43.0337 11.527 43.0337 9.58322C43.0337 7.62839 44.5579 6.20366 46.4246 6.20366ZM59.4124 2.82422V12.7531H57.9324V2.82422H59.4124ZM39.0584 7.54004C38.0424 7.54004 37.1588 8.36837 37.1588 9.58322C37.1588 10.7871 38.0424 11.6264 39.0584 11.6264C40.0745 11.6264 40.9581 10.7871 40.9581 9.58322C40.9581 8.36837 40.0745 7.54004 39.0584 7.54004ZM46.4246 7.54004C45.4083 7.54004 44.5248 8.36837 44.5248 9.58322C44.5248 10.7871 45.4083 11.6264 46.4246 11.6264C47.4406 11.6264 48.324 10.7871 48.324 9.58322C48.324 8.36837 47.4406 7.54004 46.4246 7.54004ZM53.7572 7.52898C52.7301 7.52898 51.8797 8.40148 51.8797 9.59429C51.8797 10.776 52.7412 11.6264 53.7572 11.6264C54.7624 11.6264 55.5575 10.776 55.5575 9.59429C55.5575 8.40148 54.7624 7.52898 53.7572 7.52898ZM63.3771 7.50693C62.6262 7.50693 61.5768 8.18062 61.621 9.48385L64.6362 8.22479C64.4706 7.80511 63.9736 7.50693 63.3771 7.50693Z" fill="#5F6368"/>
  <path d="M17.1106 2.98428C15.3237 1.95273 13.0386 2.5657 12.0059 4.35269L9.40283 8.86206C8.6496 10.1642 9.61927 10.6192 10.7005 11.2675L13.2054 12.7132C14.0536 13.2025 15.137 12.9121 15.6263 12.0649L18.3023 7.43073C19.2013 5.87348 18.6679 3.88331 17.1106 2.98428Z" fill="#EA4335"/>
  <path d="M14.1652 4.85074L11.6603 3.40505C10.2776 2.63747 9.49457 2.58666 8.92686 3.48899L5.23258 9.887C4.20103 11.6729 4.81509 13.9568 6.60095 14.9862C8.15819 15.8852 10.1484 15.3517 11.0474 13.7945L14.8124 7.27276C15.3039 6.42458 15.0134 5.34001 14.1652 4.85074Z" fill="#FBBC04"/>
  <path d="M14.6476 1.56183L12.8883 0.545752C10.9423 -0.57746 8.45402 0.0885143 7.33082 2.03453L3.98107 7.83612C3.48629 8.69206 3.78007 9.78765 4.63602 10.2813L6.60632 11.4189C7.5793 11.9811 8.82288 11.6475 9.38505 10.6745L13.2119 4.04682C14.0049 2.674 15.7598 2.20351 17.1326 2.99649L14.6476 1.56183Z" fill="#34A853"/>
  <path d="M7.80648 3.69437L5.90466 2.59877C5.05644 2.11061 3.97301 2.39997 3.48375 3.24597L1.202 7.18882C0.0787922 9.12929 0.744764 11.6121 2.69077 12.732L4.13868 13.5658L5.89471 14.5775L6.65678 15.0159C5.30384 14.1103 4.87422 12.2957 5.70143 10.8666L6.2923 9.84607L8.45589 6.10756C8.94405 5.26379 8.65359 4.18253 7.80648 3.69437Z" fill="#4285F4"/>
</svg>