<svg xmlns="http://www.w3.org/2000/svg" width="24" height="25" viewBox="0 0 24 25" fill="none">
  <path d="M9.5 16.0879C13.5668 16.0879 17 16.7571 17 19.3415C17 21.9259 13.5448 22.5728 9.5 22.5728C5.4332 22.5728 2 21.9026 2 19.3192C2 16.7348 5.45422 16.0879 9.5 16.0879ZM18.999 8.57275C19.4952 8.57275 19.8979 8.9822 19.8979 9.48437V10.6606H21.101C21.5962 10.6606 22 11.0701 22 11.5722C22 12.0744 21.5962 12.4838 21.101 12.4838H19.8979V13.6611C19.8979 14.1633 19.4952 14.5728 18.999 14.5728C18.5038 14.5728 18.1 14.1633 18.1 13.6611V12.4838H16.899C16.4027 12.4838 16 12.0744 16 11.5722C16 11.0701 16.4027 10.6606 16.899 10.6606H18.1V9.48437C18.1 8.9822 18.5038 8.57275 18.999 8.57275ZM9.5 3.57275C12.2546 3.57275 14.4626 5.80938 14.4626 8.5996C14.4626 11.3898 12.2546 13.6264 9.5 13.6264C6.74543 13.6264 4.53737 11.3898 4.53737 8.5996C4.53737 5.80938 6.74543 3.57275 9.5 3.57275Z" fill="white"/>
</svg>