<svg xmlns="http://www.w3.org/2000/svg" width="20" height="20" viewBox="0 0 20 20" fill="none">
  <path fill-rule="evenodd" clip-rule="evenodd" d="M13.3695 16.8463C13.2544 18.607 11.7798 20 10.0019 20C8.22307 20 6.74857 18.6069 6.63341 16.8463H13.3703H13.3695ZM3.93444 6.06575C3.93444 2.72782 6.6631 0 10.001 0C13.3398 0 16.0668 2.72782 16.0668 6.06575V9.65126L19.8102 14.31C20.1071 14.6776 20.0479 15.2163 19.6803 15.5124C19.5232 15.639 19.3332 15.7031 19.1441 15.7031H0.856914C0.383225 15.7031 0 15.3191 0 14.8462C0 14.6217 0.0863504 14.4169 0.228613 14.2632L3.93434 9.65133L3.93444 6.06575Z" fill="white"/>
</svg>