<svg width="221" height="221" viewBox="0 0 221 221" fill="none" xmlns="http://www.w3.org/2000/svg">
<rect x="0.5" y="0.572632" width="219.999" height="220" rx="20" fill="white"/>
<path d="M92.4995 20.5726H78.0996V27.7726H92.4995V20.5726Z" fill="black"/>
<path d="M106.9 20.5726H114.1V27.7726H128.5V34.9725H106.9V20.5726Z" fill="black"/>
<path d="M135.699 20.5726H142.899V99.7722H135.699V85.3723H128.499V92.5722H121.297V85.3723H114.099V78.1723H106.899V56.5724H99.6995V42.1725H78.0996V34.9725H92.4995V27.7726H99.6995V34.9725H106.899V42.1725H128.499V49.3725H114.099V70.9723H121.297V63.7724H128.499V78.1723H135.699V56.5724H128.499V49.3725H135.699V20.5726Z" fill="black"/>
<path d="M20.5 20.5726V70.9723H70.8997V20.5726H20.5ZM63.6998 63.7724H27.7V27.7726H63.6998V63.7724Z" fill="black"/>
<path d="M150.1 20.5726V70.9723H200.499V20.5726H150.1ZM193.299 63.7724H157.3V27.7726H193.299V63.7724Z" fill="black"/>
<path d="M56.5003 34.9735H34.9004V56.5734H56.5003V34.9735Z" fill="black"/>
<path d="M186.1 34.9735H164.5V56.5734H186.1V34.9735Z" fill="black"/>
<path d="M78.0996 49.3723H92.4995V63.7722H85.2996V56.5722H78.0996V49.3723Z" fill="black"/>
<path d="M78.0996 63.7709H85.2996V70.9709H92.4995V63.7709H99.6995V78.1709H106.899V85.3708H114.099V92.5708H106.899V99.7707H99.6995V85.3708H92.4995V78.1709H78.0996V63.7709Z" fill="black"/>
<path d="M70.8999 78.1718H56.5V85.3718H70.8999V78.1718Z" fill="black"/>
<path d="M171.7 78.1718H164.5V85.3718H171.7V78.1718Z" fill="black"/>
<path d="M178.898 78.1718H186.098V92.5718H200.498V114.172H186.098V99.7717H178.898V78.1718Z" fill="black"/>
<path d="M200.499 78.1718H193.299V85.3718H200.499V78.1718Z" fill="black"/>
<path d="M42.0991 85.3723H27.6992V92.5723H42.0991V85.3723Z" fill="black"/>
<path d="M56.5007 85.3723H49.3008V92.5723H56.5007V85.3723Z" fill="black"/>
<path d="M27.7 92.5728H20.5V99.7727H27.7V92.5728Z" fill="black"/>
<path d="M70.8992 92.5728H63.6992V99.7727H70.8992V92.5728Z" fill="black"/>
<path d="M34.8992 99.771H49.2991V114.171H42.0991V121.371H34.8992V114.171H27.6992V106.971H34.8992V99.771Z" fill="black"/>
<path d="M63.7 99.771H56.5V106.971H63.7V99.771Z" fill="black"/>
<path d="M135.7 99.771H128.5V106.971H135.7V99.771Z" fill="black"/>
<path d="M70.8992 106.971H63.6992V114.171H70.8992V106.971Z" fill="black"/>
<path d="M27.7 114.172H20.5V142.972H27.7V114.172Z" fill="black"/>
<path d="M56.5007 114.172H49.3008V121.375H56.5007V114.172Z" fill="black"/>
<path d="M49.2996 121.372H42.0996V128.572H49.2996V121.372Z" fill="black"/>
<path d="M70.8992 121.372H63.6992V128.572H70.8992V121.372Z" fill="black"/>
<path d="M78.0996 121.372H85.2996V128.572H92.4995V142.972H85.2996V150.172H78.0996V121.372Z" fill="black"/>
<path d="M171.696 121.372H157.299V128.572H171.696V121.372Z" fill="black"/>
<path d="M200.5 121.372H186.1V128.572H200.5V121.372Z" fill="black"/>
<path d="M56.5007 128.573H49.3008V135.773H56.5007V128.573Z" fill="black"/>
<path d="M42.1004 135.771H34.9004V142.974H42.1004V135.771Z" fill="black"/>
<path d="M70.8999 135.771H56.5V142.974H70.8999V135.771Z" fill="black"/>
<path d="M99.7 142.971H92.5V150.171H99.7V142.971Z" fill="black"/>
<path d="M200.5 142.971V135.772H186.1V128.572H171.7V135.772H142.9V128.572H150.1V121.372H157.3V114.172H171.7V121.372H178.9V99.7717H171.7V92.5718H164.5V99.7717H157.3V92.5718H164.5V85.3718H157.3V78.1718H150.1V99.7717H142.9V121.372H128.5V106.972H121.297V121.372H114.097V99.7717H106.897V114.172H99.6975V99.7717H78.0977V106.972H85.2976V121.372H92.5003V128.572H99.7003V121.372H106.9V128.572H99.7003V142.971H106.9V150.171H114.1V135.772H121.3V150.171H128.5V142.971H135.7V150.171H128.5V157.371H121.297V178.971H106.9V186.171H121.297V193.371H106.9V200.571H142.9V193.371H135.7V186.171H128.5V164.571H135.7V171.771H142.9V178.971H150.1V171.771H171.7V178.971H178.9V171.771H186.1V164.571H178.9V150.171H171.7V142.971H200.5ZM135.7 135.772H128.5V128.572H135.7V135.772ZM164.5 164.571H142.9V142.971H164.5V164.571Z" fill="black"/>
<path d="M106.899 150.172H99.6992V164.572H106.899V150.172Z" fill="black"/>
<path d="M157.302 150.172H150.1V157.375H157.302V150.172Z" fill="black"/>
<path d="M200.499 150.172H193.299V164.572H200.499V150.172Z" fill="black"/>
<path d="M20.5 150.172V200.572H70.8997V150.172H20.5ZM63.6998 193.372H27.7V157.372H63.6998V193.372Z" fill="black"/>
<path d="M78.0996 157.372H92.4995V171.772H99.6995V178.972H92.4995V186.172H85.2996V164.572H78.0996V157.372Z" fill="black"/>
<path d="M56.5003 164.571H34.9004V186.171H56.5003V164.571Z" fill="black"/>
<path d="M114.1 164.571H106.9V171.771H114.1V164.571Z" fill="black"/>
<path d="M200.499 171.771H193.299V200.571H200.499V171.771Z" fill="black"/>
<path d="M142.902 178.972H135.699V186.172H142.902V178.972Z" fill="black"/>
<path d="M150.1 178.972H164.5V186.172H178.899V200.571H171.699V193.371H157.3V200.571H150.1V178.972Z" fill="black"/>
<path d="M186.098 178.972H178.898V186.172H186.098V178.972Z" fill="black"/>
<path d="M106.899 186.172H99.6992V193.375H106.899V186.172Z" fill="black"/>
<path d="M92.5007 193.372H85.3008V200.572H92.5007V193.372Z" fill="black"/>
</svg>
