<svg xmlns="http://www.w3.org/2000/svg" width="48" height="49" viewBox="0 0 48 49" fill="none">
  <rect y="0.572754" width="48" height="48" rx="20" fill="white" fill-opacity="0.12"/>
  <path d="M32.4594 25.4272C28.6214 25.4272 25.5 28.5536 25.5 32.3916C25.5 36.2295 28.6263 39.351 32.4594 39.351C36.2925 39.351 39.4237 36.2295 39.4237 32.3916C39.4237 28.5536 36.2974 25.4272 32.4594 25.4272ZM34.8398 33.1916H33.2545V34.7719C33.2545 35.2136 32.9011 35.567 32.4594 35.567C32.0177 35.567 31.6643 35.2136 31.6643 34.7719V33.1916H30.084C29.6423 33.1916 29.2889 32.8382 29.2889 32.3965C29.2889 31.9548 29.6423 31.6014 30.084 31.6014H31.6643V30.0161C31.6643 29.5744 32.0275 29.2211 32.4594 29.2211C32.8913 29.2211 33.2545 29.5744 33.2545 30.0161V31.6014H34.8398C35.2815 31.6014 35.6348 31.9548 35.6348 32.3965C35.6348 32.8382 35.2815 33.1916 34.8398 33.1916Z" fill="white"/>
  <path fill-rule="evenodd" clip-rule="evenodd" d="M34.3415 23.7475C34.9469 23.9189 35.5247 24.1555 36.0671 24.4495C36.0868 24.1523 36.0969 23.8524 36.0969 23.5502C36.0969 16.0768 30.0201 10 22.5502 10C15.0803 10 9 16.0768 9 23.5502C9 31.0236 15.0768 37.0969 22.5467 37.0969C23.4178 37.0969 24.2687 37.0121 25.094 36.8529C24.7348 36.3486 24.4294 35.8035 24.1859 35.2258C23.6503 35.3007 23.1032 35.3397 22.5467 35.3397C16.0464 35.3397 10.7537 30.0505 10.7537 23.5467C10.7537 20.9634 11.5763 18.5061 13.127 16.4478C13.316 16.1993 13.6731 16.1503 13.9216 16.3393C14.1701 16.5283 14.2192 16.8854 14.0301 17.1339C12.63 18.9926 11.8879 21.2084 11.8879 23.5467C11.8879 29.4239 16.666 34.202 22.5432 34.202C22.9723 34.202 23.3947 34.1764 23.8095 34.1267C23.6221 33.4252 23.5222 32.6879 23.5222 31.9272C23.5222 27.2328 27.3277 23.4272 32.0222 23.4272C32.4225 23.4272 32.8164 23.4549 33.202 23.5085C33.1813 17.6487 28.4077 12.8879 22.5432 12.8879C20.2504 12.8879 18.0626 13.6055 16.2214 14.9671C15.9694 15.1561 15.6158 15.1001 15.4268 14.8481C15.2413 14.5961 15.2938 14.239 15.5493 14.0535C17.5866 12.5483 20.0089 11.7537 22.5467 11.7537C29.0505 11.7537 34.3432 17.0429 34.3432 23.5502C34.3432 23.6161 34.3426 23.6819 34.3415 23.7475ZM20.4814 25.7835L20.2049 26.5606L20.2084 26.5431C20.1804 26.6236 20.2084 26.7111 20.2749 26.7601C20.6845 27.0541 21.3285 27.2572 21.9656 27.2992V28.2863C21.9656 28.3913 22.0531 28.4753 22.1546 28.4753H22.8862C22.9913 28.4753 23.0753 28.3913 23.0753 28.2863V27.2397C24.1744 26.9981 24.9025 26.179 24.9025 25.1184C24.9025 24.0578 24.3319 23.3717 22.9913 22.8256C21.9691 22.4021 21.6751 22.1465 21.6751 21.6845C21.6751 21.3099 21.9481 20.8759 22.7112 20.8759C23.4186 20.8759 23.8709 21.131 24.068 21.2422L24.0764 21.2469C24.1254 21.2714 24.1814 21.2749 24.2339 21.2609C24.2829 21.2434 24.3249 21.2014 24.3424 21.1489L24.633 20.3858C24.661 20.2983 24.6295 20.2038 24.5489 20.1548C24.1359 19.9132 23.6773 19.7767 23.1383 19.7347V18.7931C23.1383 18.6881 23.0543 18.6041 22.9492 18.6041H22.2352C22.1301 18.6041 22.0461 18.6881 22.0461 18.7931V19.8047C20.982 20.0393 20.2994 20.8164 20.2994 21.8245C20.2994 23.0391 21.2725 23.5922 22.3262 24.0053C23.1698 24.3483 23.5128 24.6948 23.5128 25.2094C23.5128 25.773 23.0368 26.151 22.3262 26.151C21.7801 26.151 21.213 25.9795 20.765 25.6855C20.723 25.6575 20.66 25.6505 20.604 25.6645C20.5444 25.6855 20.5024 25.7275 20.4814 25.7835Z" fill="white"/>
</svg>