<svg xmlns="http://www.w3.org/2000/svg" width="24" height="24" viewBox="0 0 24 24" fill="none">
  <path d="M11.2289 7.29052V3.2815C11.2289 2.85523 11.5689 2.5 11.9989 2.5C12.3839 2.5 12.7101 2.79849 12.7617 3.17658L12.7689 3.2815V7.29052L17.5488 7.29083C19.9288 7.29083 21.8841 9.23978 21.9939 11.6704L21.9988 11.8861V16.9254C21.9988 19.373 20.1114 21.3822 17.7668 21.495L17.5588 21.5H6.43878C4.05878 21.5 2.11287 19.5608 2.00362 17.1213L1.99878 16.9047L1.99878 11.8758C1.99878 9.4281 3.87669 7.40921 6.22077 7.29585L6.42878 7.29083H11.2288V13.6932L9.62878 12.041C9.32878 11.7312 8.83878 11.7312 8.53878 12.041C8.38878 12.1959 8.31878 12.4024 8.31878 12.6089C8.31878 12.7659 8.36358 12.9295 8.4583 13.0679L8.53878 13.1666L11.4488 16.1819C11.5888 16.3368 11.7888 16.4194 11.9988 16.4194C12.1654 16.4194 12.3321 16.362 12.4641 16.2533L12.5388 16.1819L15.4488 13.1666C15.7488 12.8568 15.7488 12.3508 15.4488 12.041C15.1761 11.7594 14.7463 11.7338 14.445 11.9642L14.3588 12.041L12.7688 13.6932V7.29083L11.2289 7.29052Z" fill="white"/>
</svg>