<svg width="10" height="14" viewBox="0 0 10 14" fill="none" xmlns="http://www.w3.org/2000/svg">
<path d="M8.95833 0.326379C8.86008 0.242965 8.74336 0.176786 8.61486 0.131631C8.48636 0.0864755 8.34861 0.0632324 8.20948 0.0632324C8.07036 0.0632324 7.9326 0.0864755 7.8041 0.131631C7.6756 0.176786 7.55889 0.242965 7.46064 0.326379L0.429094 6.28102C0.350652 6.34731 0.288419 6.42605 0.245958 6.51274C0.203497 6.59942 0.181641 6.69235 0.181641 6.7862C0.181641 6.88004 0.203497 6.97297 0.245958 7.05965C0.288419 7.14634 0.350652 7.22508 0.429094 7.29137L7.46064 13.246C7.87525 13.5971 8.54371 13.5971 8.95833 13.246C9.37295 12.8949 9.37295 12.3288 8.95833 11.9777L2.83217 6.78261L8.96679 1.58753C9.37294 1.24358 9.37295 0.670329 8.95833 0.326379Z" fill="white"/>
</svg>
