<svg width="205" height="74" viewBox="0 0 205 74" fill="none" xmlns="http://www.w3.org/2000/svg">
<g filter="url(#filter0_d_7203_1865)">
<path fill-rule="evenodd" clip-rule="evenodd" d="M12.2927 23.6291H69.1983C69.0678 23.2599 68.9303 22.894 68.786 22.5316C69.6825 22.4418 70.5776 22.3968 71.4659 22.3968C73.3529 22.3968 74.8872 20.8868 74.9264 19.0093V18.8618C74.9246 18.7739 74.9195 18.6869 74.9112 18.6008H7.44958C7.439 18.711 7.43359 18.8227 7.43359 18.9356C7.43359 20.8472 8.98326 22.3969 10.8949 22.3969C11.5051 22.3969 12.1186 22.4182 12.7334 22.4605C12.5787 22.8462 12.4318 23.2358 12.2927 23.6291Z" fill="white"/>
<path fill-rule="evenodd" clip-rule="evenodd" d="M10.9961 38.7045H70.4993C70.774 37.0693 70.9171 35.3895 70.9174 33.6763H10.5781C10.5784 35.3895 10.7215 37.0693 10.9961 38.7045Z" fill="white"/>
<path fill-rule="evenodd" clip-rule="evenodd" d="M18.2572 53.7961H63.2219C64.6023 52.2545 65.8265 50.5701 66.8697 48.7678H14.6094C15.6525 50.5701 16.8767 52.2545 18.2572 53.7961Z" fill="white"/>
<path fill-rule="evenodd" clip-rule="evenodd" d="M70.041 33.6696V33.6715H9.71462C9.71494 35.3847 9.85806 37.0646 10.1327 38.6998H69.6235C67.2289 52.9676 54.8197 63.8392 39.8714 63.8392C30.9393 63.8392 22.9138 59.9576 17.3898 53.7892H60.7692C62.1497 52.2477 63.3739 50.5633 64.417 48.761H13.7417C11.1724 44.3219 9.70176 39.1675 9.70176 33.6696C9.70176 29.7057 10.4662 25.9204 11.8557 22.453L11.8562 22.4531C11.7014 22.8389 11.5544 23.2287 11.4153 23.6222H68.3211C68.1905 23.2528 68.0529 22.8867 67.9085 22.524L67.9151 22.5234C69.2869 25.9716 70.041 29.7325 70.041 33.6696ZM73.8689 20.0334C73.9858 19.6863 74.0491 19.3146 74.0491 18.9281C74.0491 18.8154 74.0437 18.7039 74.0332 18.594H6.57358C6.73706 16.8344 8.2176 15.4569 10.0199 15.4569C11.8182 15.4569 13.6485 15.6086 15.4795 15.9109C20.9659 8.38826 29.8478 3.5 39.8714 3.5C49.9552 3.5 58.8836 8.44721 64.3618 16.0469C66.449 15.6541 68.5409 15.4569 70.5912 15.4569C72.5028 15.4569 74.0524 17.0066 74.0524 18.9182C74.0524 19.3084 73.9879 19.6834 73.8689 20.0334ZM6.55929 18.8482C6.55883 18.8715 6.55859 18.8948 6.55859 18.9182C6.55859 18.9416 6.55883 18.9649 6.55929 18.9882V18.8482Z" fill="white"/>
<path fill-rule="evenodd" clip-rule="evenodd" d="M9.09505 23.6291H66.0006C65.8701 23.2599 65.7326 22.8941 65.5884 22.5316C66.4854 22.4418 67.3811 22.3967 68.2701 22.3967C70.1817 22.3967 71.7314 20.847 71.7314 18.9354C71.7314 18.8226 71.726 18.7109 71.7154 18.6008H4.25352C4.2452 18.6876 4.24008 18.7753 4.23828 18.8638V19.007C4.27639 20.8856 5.81114 22.3967 7.69883 22.3967C8.30859 22.3967 8.9215 22.4179 9.53584 22.4602C9.3811 22.846 9.23411 23.2357 9.09505 23.6291Z" fill="white"/>
<path fill-rule="evenodd" clip-rule="evenodd" d="M7.79693 38.7045H67.3001C67.5748 37.0693 67.7178 35.3895 67.7181 33.6763H7.37891C7.3792 35.3895 7.52229 37.0693 7.79693 38.7045Z" fill="white"/>
<path fill-rule="evenodd" clip-rule="evenodd" d="M15.0618 53.7961H60.0267C61.4071 52.2545 62.6313 50.5701 63.6744 48.7678H11.4141C12.4572 50.5701 13.6814 52.2545 15.0618 53.7961Z" fill="white"/>
<path fill-rule="evenodd" clip-rule="evenodd" d="M6.52301 33.6749H66.8455C66.8454 29.7384 66.0914 25.9779 64.72 22.5301L64.7174 22.5303C64.8618 22.8928 64.9993 23.2588 65.1298 23.6281H8.22409C8.36318 23.2346 8.5102 22.8448 8.66496 22.459L8.6603 22.4587C7.27074 25.9261 6.50627 29.7115 6.50627 33.6755C6.50627 50.3377 20.0137 63.8451 36.6759 63.8451C45.6106 63.8451 53.6382 59.9612 59.1624 53.7896H14.2075C12.827 52.2481 11.6028 50.5637 10.5596 48.7614H62.8087C64.5758 45.7068 65.8228 42.3137 66.4285 38.7032H6.94107C6.66642 37.068 6.52331 35.3881 6.52301 33.6749ZM70.8566 18.9834C70.857 18.9637 70.8571 18.9439 70.8571 18.9242C70.8571 18.9044 70.857 18.8847 70.8566 18.865V18.9834ZM70.8421 18.5998H3.38215C3.3716 18.7098 3.36621 18.8214 3.36621 18.9342C3.36621 19.2706 3.41422 19.5959 3.50376 19.9035C3.41234 19.5929 3.36328 19.2643 3.36328 18.9242C3.36328 17.0126 4.91295 15.4629 6.82456 15.4629C8.62279 15.4629 10.453 15.6146 12.284 15.9169C17.7703 8.39415 26.6522 3.50586 36.6759 3.50586C46.7598 3.50586 55.6882 8.45312 61.1664 16.0529C63.2536 15.6601 65.3455 15.4629 67.3959 15.4629C69.1981 15.4629 70.6786 16.8403 70.8421 18.5998Z" fill="white"/>
<path fill-rule="evenodd" clip-rule="evenodd" d="M12.2927 23.6291H69.1983C69.0678 23.2599 68.9303 22.894 68.786 22.5316C69.6825 22.4418 70.5776 22.3968 71.4659 22.3968C73.3529 22.3968 74.8872 20.8868 74.9264 19.0093V18.8618C74.9246 18.7739 74.9195 18.6869 74.9112 18.6008H7.44958C7.439 18.711 7.43359 18.8227 7.43359 18.9356C7.43359 20.8472 8.98326 22.3969 10.8949 22.3969C11.5051 22.3969 12.1186 22.4182 12.7334 22.4605C12.5787 22.8462 12.4318 23.2358 12.2927 23.6291Z" fill="#FE0144" style="mix-blend-mode:multiply"/>
<path fill-rule="evenodd" clip-rule="evenodd" d="M10.9961 38.7045H70.4993C70.774 37.0693 70.9171 35.3895 70.9174 33.6763H10.5781C10.5784 35.3895 10.7215 37.0693 10.9961 38.7045Z" fill="#FE0144" style="mix-blend-mode:multiply"/>
<path fill-rule="evenodd" clip-rule="evenodd" d="M18.265 53.7961H63.2297C64.6101 52.2545 65.8344 50.5701 66.8775 48.7678H14.6172C15.6603 50.5701 16.8845 52.2545 18.265 53.7961Z" fill="#FE0144" style="mix-blend-mode:multiply"/>
<path fill-rule="evenodd" clip-rule="evenodd" d="M70.0396 33.6696V33.6715H9.71668C9.717 35.3847 9.86011 37.0646 10.1348 38.6998H69.6221C67.2275 52.9676 54.8183 63.8392 39.87 63.8392C30.9379 63.8392 22.9124 59.9576 17.3884 53.7892H60.769C62.1495 52.2477 63.3738 50.5633 64.4169 48.761H13.7403C11.171 44.3219 9.70037 39.1675 9.70037 33.6696C9.70037 30.1469 10.3041 26.7651 11.4138 23.6222H68.3178C68.1872 23.2529 68.0497 22.8868 67.9053 22.5242L67.9138 22.5234C69.2855 25.9716 70.0396 29.7325 70.0396 33.6696ZM73.6504 20.54C73.9042 20.0586 74.0479 19.5101 74.0479 18.9281C74.0479 18.8154 74.0425 18.7039 74.0319 18.594H6.57422C6.73769 16.8344 8.21824 15.4569 10.0205 15.4569C11.8182 15.4569 13.6479 15.6085 15.4784 15.9106C20.9647 8.38813 29.8465 3.5 39.87 3.5C49.954 3.5 58.8825 8.44735 64.3606 16.0472C66.4485 15.6542 68.5409 15.4569 70.5918 15.4569C72.5034 15.4569 74.0531 17.0066 74.0531 18.9182C74.0531 19.5042 73.9074 20.0563 73.6504 20.54Z" fill="#FE0144" style="mix-blend-mode:multiply"/>
<path fill-rule="evenodd" clip-rule="evenodd" d="M9.09505 23.6291H66.0006C65.8701 23.2599 65.7326 22.8941 65.5884 22.5316C66.4854 22.4418 67.3811 22.3967 68.2701 22.3967C70.1817 22.3967 71.7314 20.847 71.7314 18.9354C71.7314 18.8226 71.726 18.7109 71.7154 18.6008H4.25352C4.2452 18.6876 4.24008 18.7753 4.23828 18.8638V19.007C4.27639 20.8856 5.81114 22.3967 7.69883 22.3967C8.30859 22.3967 8.9215 22.4179 9.53584 22.4602C9.3811 22.846 9.23411 23.2357 9.09505 23.6291Z" fill="#4DE5FF" style="mix-blend-mode:multiply"/>
<path fill-rule="evenodd" clip-rule="evenodd" d="M7.79693 38.7045H67.3001C67.5748 37.0693 67.7178 35.3895 67.7181 33.6763H7.37891C7.3792 35.3895 7.52229 37.0693 7.79693 38.7045Z" fill="#4DE5FF" style="mix-blend-mode:multiply"/>
<path fill-rule="evenodd" clip-rule="evenodd" d="M15.0697 53.7961H60.0344C61.4148 52.2545 62.639 50.5701 63.6822 48.7678H11.4219C12.465 50.5701 13.6892 52.2545 15.0697 53.7961Z" fill="#4DE5FF" style="mix-blend-mode:multiply"/>
<path fill-rule="evenodd" clip-rule="evenodd" d="M36.6366 64.5C21.6683 64.5 9.26502 53.3144 7.04484 38.7024H66.2283C64.0081 53.3144 51.6049 64.5 36.6366 64.5ZM6.69279 33.6742H66.5803C66.5441 30.1495 65.9209 26.7682 64.8055 23.6267H8.46759C7.35222 26.7682 6.72901 30.1495 6.69279 33.6742ZM70.8566 18.9819L70.857 18.9581L70.8571 18.9227C70.8571 18.903 70.857 18.8832 70.8566 18.8635V18.9819ZM70.8421 18.5985C70.6787 16.8389 69.1981 15.4614 67.3959 15.4614C65.2546 15.4614 63.0679 15.6765 60.8886 16.1049C55.4464 8.46693 46.611 3.5 36.6366 3.5C26.7293 3.5 17.9458 8.40025 12.4949 15.9509C10.5936 15.625 8.69185 15.4614 6.82456 15.4614C4.91295 15.4614 3.36328 17.0111 3.36328 18.9227C3.36328 19.2542 3.40988 19.5748 3.49689 19.8783C3.41176 19.5779 3.36621 19.2607 3.36621 18.933C3.36621 18.8201 3.37161 18.7085 3.38216 18.5985H70.8421ZM59.1717 53.7892H14.2075C12.827 52.2477 11.6028 50.5633 10.5597 48.761H62.8196C61.7765 50.5633 60.5522 52.2477 59.1717 53.7892Z" fill="#4DE5FF" style="mix-blend-mode:multiply"/>
<ellipse cx="38.662" cy="33.5331" rx="29.1855" ry="30.017" fill="url(#paint0_linear_7203_1865)"/>
<path fill-rule="evenodd" clip-rule="evenodd" d="M9.78586 15.418C7.93661 15.418 6.4375 16.9598 6.4375 18.8617C6.4375 20.7637 7.93661 22.3055 9.78586 22.3055C22.0639 22.3055 35.6596 31.4459 35.6596 48.9164C35.6596 50.8184 37.1587 52.3602 39.0079 52.3602C39.0332 52.3602 39.0584 52.3599 39.0835 52.3593C39.1086 52.3599 39.1338 52.3602 39.159 52.3602C41.0083 52.3602 42.5074 50.8184 42.5074 48.9164C42.5074 31.4459 56.1031 22.3055 68.3811 22.3055C70.2304 22.3055 71.7295 20.7637 71.7295 18.8617C71.7295 16.9598 70.2304 15.418 68.3811 15.418C57.2466 15.418 44.8454 21.6004 39.0835 33.6887C33.3216 21.6004 20.9204 15.418 9.78586 15.418Z" fill="white"/>
<path d="M96.463 26.282L96.5978 25.1699H88.9135L89.3517 22.1029H97.0359L97.2044 20.9233L88.6776 21.1592L89.1157 18.0586L114.73 17.3171L114.292 20.384L104.08 20.7211L103.878 22.1029H113.517L113.078 25.1699H103.439L103.271 26.282H114.932L114.494 29.4501H102.833L102.631 30.933H112.202L113.685 29.6186L113.045 34.2022H95.3508L96.0248 29.4501H86.3858L86.8239 26.282H96.463ZM109.978 11.4865H116.954L116.55 14.3512H113.314L114.325 16.5082H109.203L108.293 14.5872L107.282 16.5082H101.518L104.451 11.0484L103.709 10.0373H110.753L109.978 11.4865ZM96.5304 11.4865H102.867L102.462 14.3512H99.9007L100.878 16.5082H95.7552L94.8789 14.5872L93.8341 16.5082H88.071L91.0031 11.0484L90.2616 10.0373H97.3055L96.5304 11.4865ZM119.412 31.2027L120.255 25.271H145.666L144.824 31.2027H146.172L145.835 33.663H117.727L118.064 31.2027H119.412ZM141.386 16.8453L141.049 15.5982L140.881 17.0138H126.827L126.995 15.7668L126.355 16.8453H120.592L124.434 11.1158L123.659 10.0036H145.296L147.621 16.8453H141.386ZM145.97 18.0923L145.06 24.361H121.266L122.176 18.0923H145.97ZM127.737 14.5198H140.78L140.51 13.3739H128.411L127.737 14.5198ZM138.623 21.9344L138.791 20.6874H127.838L127.669 21.9344H138.623ZM138.319 27.8998L137.881 31.2027H139.431L139.903 27.8998H138.319ZM131.511 31.2027H133.062L133.5 27.8998H131.949L131.511 31.2027ZM125.141 31.2027H126.692L127.13 27.8998H125.613L125.141 31.2027Z" fill="white"/>
<mask id="path-22-outside-1_7203_1865" maskUnits="userSpaceOnUse" x="85.1836" y="44.5161" width="112" height="19" fill="black">
<rect fill="white" x="85.1836" y="44.5161" width="112" height="19"/>
<path d="M89.3852 44.7628H92.3672L89.7435 59.9155L89.0038 62.5161H86.2992L89.3852 44.7628ZM98.1694 56.0667L98.1463 56.3209C98.0538 57.0915 97.8805 57.862 97.6262 58.6326C97.3719 59.4031 97.0213 60.1043 96.5744 60.7362C96.1275 61.3603 95.5727 61.8612 94.91 62.2387C94.255 62.6086 93.4768 62.782 92.5753 62.7588C91.7816 62.7357 91.1228 62.5315 90.5988 62.1463C90.0748 61.761 89.6665 61.264 89.3736 60.6552C89.0885 60.0465 88.8921 59.3877 88.7842 58.6788C88.6763 57.9699 88.6378 57.2803 88.6686 56.6099L88.7495 55.9511C88.8728 55.2422 89.077 54.5217 89.3621 53.7897C89.6472 53.0577 90.0171 52.3835 90.4717 51.767C90.934 51.1506 91.4811 50.6574 92.1129 50.2876C92.7525 49.9177 93.4845 49.7443 94.309 49.7675C95.172 49.7829 95.8732 49.9871 96.4126 50.38C96.952 50.7653 97.3603 51.2662 97.6377 51.8826C97.9228 52.499 98.1001 53.1733 98.1694 53.9053C98.2465 54.6373 98.2465 55.3578 98.1694 56.0667ZM95.1643 56.3094L95.1874 56.0551C95.2336 55.6852 95.2568 55.2807 95.2568 54.8415C95.2568 54.4023 95.2067 53.9862 95.1065 53.5932C95.0063 53.1925 94.8214 52.865 94.5517 52.6108C94.2897 52.3488 93.9044 52.2101 93.3959 52.1947C92.9259 52.1716 92.5059 52.2486 92.1361 52.4258C91.7662 52.5954 91.4464 52.8304 91.1767 53.1309C90.907 53.4314 90.6836 53.7743 90.5063 54.1596C90.3368 54.5448 90.2097 54.9455 90.1249 55.3616L89.8591 57.1878C89.8283 57.6887 89.8706 58.1779 89.9862 58.6557C90.1095 59.1257 90.333 59.5187 90.6566 59.8346C90.9802 60.1428 91.4349 60.3047 92.0205 60.3201C92.5753 60.3432 93.0414 60.2353 93.419 59.9964C93.7966 59.7499 94.1009 59.4262 94.3321 59.0255C94.571 58.6172 94.7559 58.1741 94.8869 57.6964C95.0179 57.2186 95.1104 56.7563 95.1643 56.3094ZM106.062 62.7473C105.207 62.7319 104.444 62.5662 103.774 62.2503C103.103 61.9344 102.545 61.5028 102.098 60.9558C101.651 60.4087 101.324 59.773 101.115 59.0487C100.915 58.3244 100.846 57.55 100.907 56.7255L100.954 56.2516C101.038 55.3963 101.243 54.5795 101.566 53.8013C101.898 53.0153 102.337 52.318 102.884 51.7092C103.439 51.0928 104.09 50.6112 104.837 50.2645C105.592 49.9177 106.428 49.7559 107.345 49.779C108.216 49.7944 108.956 49.9755 109.565 50.3222C110.173 50.6613 110.659 51.1198 111.021 51.6977C111.391 52.2679 111.641 52.9151 111.772 53.6394C111.903 54.3638 111.926 55.1189 111.841 55.9048L111.668 57.1878H102.144L102.479 55.0842L108.987 55.0958L109.033 54.8299C109.102 54.3753 109.079 53.9477 108.963 53.547C108.856 53.1463 108.651 52.8227 108.351 52.5761C108.058 52.3218 107.661 52.187 107.16 52.1716C106.606 52.1561 106.136 52.2756 105.75 52.5299C105.365 52.7764 105.045 53.1039 104.791 53.5123C104.544 53.9207 104.352 54.3676 104.213 54.853C104.074 55.3308 103.978 55.797 103.924 56.2516L103.878 56.7139C103.839 57.1454 103.851 57.5731 103.913 57.9969C103.982 58.4207 104.109 58.8059 104.294 59.1527C104.487 59.4994 104.752 59.7807 105.092 59.9964C105.431 60.2122 105.85 60.3278 106.351 60.3432C106.983 60.3586 107.561 60.2314 108.085 59.9618C108.617 59.6844 109.098 59.3222 109.53 58.8753L110.928 60.4588C110.574 60.9827 110.135 61.4181 109.611 61.7648C109.087 62.1039 108.517 62.3543 107.9 62.5161C107.291 62.6779 106.679 62.755 106.062 62.7473ZM120.971 59.8577L121.884 54.044C121.931 53.6741 121.907 53.3389 121.815 53.0384C121.73 52.7302 121.568 52.4836 121.329 52.2987C121.091 52.1138 120.767 52.0174 120.359 52.0097C119.996 52.002 119.661 52.0637 119.353 52.1947C119.053 52.3257 118.798 52.5144 118.59 52.761C118.382 53.0076 118.24 53.3081 118.163 53.6626L115.181 53.6857C115.227 53.0076 115.423 52.422 115.77 51.9288C116.117 51.428 116.556 51.0196 117.088 50.7037C117.619 50.38 118.197 50.1412 118.821 49.9871C119.445 49.833 120.058 49.7636 120.659 49.779C121.514 49.7944 122.277 49.9755 122.948 50.3222C123.618 50.669 124.13 51.1621 124.485 51.8017C124.839 52.4335 124.97 53.2041 124.878 54.1133L123.988 59.5688C123.919 60.0157 123.868 60.478 123.838 60.9558C123.807 61.4258 123.868 61.8766 124.023 62.3081L124.011 62.5161L121.064 62.5277C120.933 62.0962 120.867 61.6531 120.867 61.1985C120.875 60.7439 120.91 60.2969 120.971 59.8577ZM122.231 54.8993L121.931 56.7139L120.208 56.7024C119.854 56.7024 119.496 56.7409 119.133 56.8179C118.779 56.895 118.448 57.0183 118.139 57.1878C117.831 57.3496 117.573 57.5692 117.365 57.8466C117.157 58.124 117.03 58.463 116.984 58.8637C116.945 59.172 116.98 59.4416 117.088 59.6728C117.196 59.904 117.357 60.0889 117.573 60.2276C117.797 60.3586 118.062 60.4279 118.371 60.4356C118.794 60.4433 119.21 60.3624 119.619 60.1929C120.027 60.0157 120.382 59.7691 120.682 59.4532C120.99 59.1373 121.202 58.7713 121.318 58.3552L122.023 59.6959C121.853 60.1505 121.622 60.5666 121.329 60.9442C121.037 61.3218 120.698 61.6493 120.312 61.9266C119.927 62.1963 119.507 62.4044 119.053 62.5508C118.606 62.7049 118.136 62.7781 117.642 62.7704C116.949 62.755 116.313 62.5932 115.735 62.2849C115.165 61.9767 114.714 61.5491 114.383 61.002C114.052 60.4549 113.901 59.8231 113.932 59.1065C113.971 58.2897 114.175 57.6116 114.545 57.0722C114.922 56.5251 115.408 56.0936 116.001 55.7777C116.594 55.4618 117.242 55.2345 117.943 55.0958C118.652 54.9571 119.349 54.8877 120.035 54.8877L122.231 54.8993ZM130.309 44.7628H133.291L130.667 59.9155L129.928 62.5161H127.223L130.309 44.7628ZM139.093 56.0667L139.07 56.3209C138.978 57.0915 138.804 57.862 138.55 58.6326C138.296 59.4031 137.945 60.1043 137.498 60.7362C137.051 61.3603 136.496 61.8612 135.834 62.2387C135.179 62.6086 134.401 62.782 133.499 62.7588C132.705 62.7357 132.047 62.5315 131.523 62.1463C130.999 61.761 130.59 61.264 130.297 60.6552C130.012 60.0465 129.816 59.3877 129.708 58.6788C129.6 57.9699 129.561 57.2803 129.592 56.6099L129.673 55.9511C129.797 55.2422 130.001 54.5217 130.286 53.7897C130.571 53.0577 130.941 52.3835 131.395 51.767C131.858 51.1506 132.405 50.6574 133.037 50.2876C133.676 49.9177 134.408 49.7443 135.233 49.7675C136.096 49.7829 136.797 49.9871 137.336 50.38C137.876 50.7653 138.284 51.2662 138.561 51.8826C138.847 52.499 139.024 53.1733 139.093 53.9053C139.17 54.6373 139.17 55.3578 139.093 56.0667ZM136.088 56.3094L136.111 56.0551C136.157 55.6852 136.18 55.2807 136.18 54.8415C136.18 54.4023 136.13 53.9862 136.03 53.5932C135.93 53.1925 135.745 52.865 135.475 52.6108C135.213 52.3488 134.828 52.2101 134.32 52.1947C133.85 52.1716 133.43 52.2486 133.06 52.4258C132.69 52.5954 132.37 52.8304 132.1 53.1309C131.831 53.4314 131.607 53.7743 131.43 54.1596C131.261 54.5448 131.133 54.9455 131.049 55.3616L130.783 57.1878C130.752 57.6887 130.794 58.1779 130.91 58.6557C131.033 59.1257 131.257 59.5187 131.58 59.8346C131.904 60.1428 132.359 60.3047 132.944 60.3201C133.499 60.3432 133.965 60.2353 134.343 59.9964C134.72 59.7499 135.025 59.4262 135.256 59.0255C135.495 58.6172 135.68 58.1741 135.811 57.6964C135.942 57.2186 136.034 56.7563 136.088 56.3094ZM141.808 56.4596L141.843 56.2169C141.935 55.3385 142.147 54.5102 142.478 53.7319C142.817 52.946 143.261 52.2525 143.808 51.6514C144.362 51.0504 145.017 50.5842 145.772 50.2529C146.535 49.9139 147.383 49.7559 148.315 49.779C149.209 49.7944 149.98 49.9794 150.627 50.3338C151.282 50.6805 151.814 51.1506 152.222 51.7439C152.638 52.3295 152.927 52.9999 153.089 53.755C153.258 54.5025 153.305 55.2923 153.228 56.1244L153.204 56.3787C153.104 57.2494 152.885 58.0739 152.546 58.8522C152.207 59.6227 151.76 60.3047 151.205 60.898C150.65 61.4913 149.995 61.9536 149.24 62.2849C148.485 62.6163 147.645 62.7704 146.72 62.7473C145.834 62.7319 145.064 62.5508 144.409 62.204C143.761 61.8573 143.23 61.395 142.814 60.8171C142.405 60.2314 142.116 59.5649 141.947 58.8175C141.785 58.0701 141.739 57.2841 141.808 56.4596ZM144.813 56.2169L144.79 56.4712C144.759 56.8642 144.752 57.2841 144.767 57.731C144.79 58.1779 144.871 58.5979 145.01 58.9909C145.148 59.3838 145.368 59.7075 145.668 59.9618C145.969 60.2083 146.374 60.3393 146.882 60.3547C147.429 60.3701 147.899 60.2623 148.292 60.0311C148.693 59.7922 149.024 59.4763 149.286 59.0833C149.548 58.6827 149.756 58.2434 149.91 57.7657C150.064 57.288 150.168 56.8218 150.222 56.3672L150.246 56.1244C150.284 55.7315 150.292 55.3077 150.269 54.853C150.246 54.3984 150.165 53.9746 150.026 53.5816C149.887 53.181 149.668 52.8535 149.367 52.5992C149.067 52.3372 148.658 52.1985 148.142 52.1831C147.595 52.16 147.121 52.2717 146.72 52.5183C146.327 52.7649 146 53.0885 145.738 53.4892C145.476 53.8899 145.268 54.3329 145.114 54.8184C144.967 55.2961 144.867 55.7623 144.813 56.2169ZM159.421 50.0102L160.947 53.9631L163.767 50.0102H167.154L162.531 56.2747L165.189 62.5161H162.114L160.439 58.3552L157.48 62.5161H154.093L158.89 55.9973L156.347 50.0102H159.421ZM168.204 61.0713C168.197 60.5859 168.359 60.1814 168.69 59.8577C169.021 59.5341 169.43 59.3723 169.915 59.3723C170.385 59.3646 170.782 59.511 171.105 59.8115C171.437 60.1043 171.606 60.4896 171.614 60.9673C171.622 61.4605 171.456 61.865 171.117 62.1809C170.786 62.4968 170.381 62.6548 169.903 62.6548C169.441 62.6625 169.04 62.52 168.701 62.2272C168.37 61.9344 168.204 61.5491 168.204 61.0713ZM183.356 50.0102L182.974 52.2062H176.005L176.386 50.0102H183.356ZM178.779 46.9357H181.761L179.715 58.9331C179.684 59.2028 179.684 59.4339 179.715 59.6266C179.754 59.8192 179.842 59.9695 179.981 60.0773C180.127 60.1852 180.347 60.243 180.64 60.2507C180.802 60.2584 180.963 60.2507 181.125 60.2276C181.295 60.2045 181.46 60.1852 181.622 60.1698L181.414 62.4814C181.121 62.5662 180.825 62.6278 180.524 62.6664C180.224 62.7126 179.919 62.7357 179.611 62.7357C178.894 62.7203 178.309 62.5585 177.854 62.2503C177.407 61.9421 177.091 61.5221 176.906 60.9904C176.722 60.4511 176.66 59.8385 176.722 59.1527L178.779 46.9357ZM188.764 60.0658L193.133 50.0102H196.334L190.209 62.5161H188.255L188.764 60.0658ZM188.255 50.0102L189.538 60.3779L189.296 62.5161H187.446L185.216 50.0102H188.255Z"/>
</mask>
<path d="M89.3852 44.7628H92.3672L89.7435 59.9155L89.0038 62.5161H86.2992L89.3852 44.7628ZM98.1694 56.0667L98.1463 56.3209C98.0538 57.0915 97.8805 57.862 97.6262 58.6326C97.3719 59.4031 97.0213 60.1043 96.5744 60.7362C96.1275 61.3603 95.5727 61.8612 94.91 62.2387C94.255 62.6086 93.4768 62.782 92.5753 62.7588C91.7816 62.7357 91.1228 62.5315 90.5988 62.1463C90.0748 61.761 89.6665 61.264 89.3736 60.6552C89.0885 60.0465 88.8921 59.3877 88.7842 58.6788C88.6763 57.9699 88.6378 57.2803 88.6686 56.6099L88.7495 55.9511C88.8728 55.2422 89.077 54.5217 89.3621 53.7897C89.6472 53.0577 90.0171 52.3835 90.4717 51.767C90.934 51.1506 91.4811 50.6574 92.1129 50.2876C92.7525 49.9177 93.4845 49.7443 94.309 49.7675C95.172 49.7829 95.8732 49.9871 96.4126 50.38C96.952 50.7653 97.3603 51.2662 97.6377 51.8826C97.9228 52.499 98.1001 53.1733 98.1694 53.9053C98.2465 54.6373 98.2465 55.3578 98.1694 56.0667ZM95.1643 56.3094L95.1874 56.0551C95.2336 55.6852 95.2568 55.2807 95.2568 54.8415C95.2568 54.4023 95.2067 53.9862 95.1065 53.5932C95.0063 53.1925 94.8214 52.865 94.5517 52.6108C94.2897 52.3488 93.9044 52.2101 93.3959 52.1947C92.9259 52.1716 92.5059 52.2486 92.1361 52.4258C91.7662 52.5954 91.4464 52.8304 91.1767 53.1309C90.907 53.4314 90.6836 53.7743 90.5063 54.1596C90.3368 54.5448 90.2097 54.9455 90.1249 55.3616L89.8591 57.1878C89.8283 57.6887 89.8706 58.1779 89.9862 58.6557C90.1095 59.1257 90.333 59.5187 90.6566 59.8346C90.9802 60.1428 91.4349 60.3047 92.0205 60.3201C92.5753 60.3432 93.0414 60.2353 93.419 59.9964C93.7966 59.7499 94.1009 59.4262 94.3321 59.0255C94.571 58.6172 94.7559 58.1741 94.8869 57.6964C95.0179 57.2186 95.1104 56.7563 95.1643 56.3094ZM106.062 62.7473C105.207 62.7319 104.444 62.5662 103.774 62.2503C103.103 61.9344 102.545 61.5028 102.098 60.9558C101.651 60.4087 101.324 59.773 101.115 59.0487C100.915 58.3244 100.846 57.55 100.907 56.7255L100.954 56.2516C101.038 55.3963 101.243 54.5795 101.566 53.8013C101.898 53.0153 102.337 52.318 102.884 51.7092C103.439 51.0928 104.09 50.6112 104.837 50.2645C105.592 49.9177 106.428 49.7559 107.345 49.779C108.216 49.7944 108.956 49.9755 109.565 50.3222C110.173 50.6613 110.659 51.1198 111.021 51.6977C111.391 52.2679 111.641 52.9151 111.772 53.6394C111.903 54.3638 111.926 55.1189 111.841 55.9048L111.668 57.1878H102.144L102.479 55.0842L108.987 55.0958L109.033 54.8299C109.102 54.3753 109.079 53.9477 108.963 53.547C108.856 53.1463 108.651 52.8227 108.351 52.5761C108.058 52.3218 107.661 52.187 107.16 52.1716C106.606 52.1561 106.136 52.2756 105.75 52.5299C105.365 52.7764 105.045 53.1039 104.791 53.5123C104.544 53.9207 104.352 54.3676 104.213 54.853C104.074 55.3308 103.978 55.797 103.924 56.2516L103.878 56.7139C103.839 57.1454 103.851 57.5731 103.913 57.9969C103.982 58.4207 104.109 58.8059 104.294 59.1527C104.487 59.4994 104.752 59.7807 105.092 59.9964C105.431 60.2122 105.85 60.3278 106.351 60.3432C106.983 60.3586 107.561 60.2314 108.085 59.9618C108.617 59.6844 109.098 59.3222 109.53 58.8753L110.928 60.4588C110.574 60.9827 110.135 61.4181 109.611 61.7648C109.087 62.1039 108.517 62.3543 107.9 62.5161C107.291 62.6779 106.679 62.755 106.062 62.7473ZM120.971 59.8577L121.884 54.044C121.931 53.6741 121.907 53.3389 121.815 53.0384C121.73 52.7302 121.568 52.4836 121.329 52.2987C121.091 52.1138 120.767 52.0174 120.359 52.0097C119.996 52.002 119.661 52.0637 119.353 52.1947C119.053 52.3257 118.798 52.5144 118.59 52.761C118.382 53.0076 118.24 53.3081 118.163 53.6626L115.181 53.6857C115.227 53.0076 115.423 52.422 115.77 51.9288C116.117 51.428 116.556 51.0196 117.088 50.7037C117.619 50.38 118.197 50.1412 118.821 49.9871C119.445 49.833 120.058 49.7636 120.659 49.779C121.514 49.7944 122.277 49.9755 122.948 50.3222C123.618 50.669 124.13 51.1621 124.485 51.8017C124.839 52.4335 124.97 53.2041 124.878 54.1133L123.988 59.5688C123.919 60.0157 123.868 60.478 123.838 60.9558C123.807 61.4258 123.868 61.8766 124.023 62.3081L124.011 62.5161L121.064 62.5277C120.933 62.0962 120.867 61.6531 120.867 61.1985C120.875 60.7439 120.91 60.2969 120.971 59.8577ZM122.231 54.8993L121.931 56.7139L120.208 56.7024C119.854 56.7024 119.496 56.7409 119.133 56.8179C118.779 56.895 118.448 57.0183 118.139 57.1878C117.831 57.3496 117.573 57.5692 117.365 57.8466C117.157 58.124 117.03 58.463 116.984 58.8637C116.945 59.172 116.98 59.4416 117.088 59.6728C117.196 59.904 117.357 60.0889 117.573 60.2276C117.797 60.3586 118.062 60.4279 118.371 60.4356C118.794 60.4433 119.21 60.3624 119.619 60.1929C120.027 60.0157 120.382 59.7691 120.682 59.4532C120.99 59.1373 121.202 58.7713 121.318 58.3552L122.023 59.6959C121.853 60.1505 121.622 60.5666 121.329 60.9442C121.037 61.3218 120.698 61.6493 120.312 61.9266C119.927 62.1963 119.507 62.4044 119.053 62.5508C118.606 62.7049 118.136 62.7781 117.642 62.7704C116.949 62.755 116.313 62.5932 115.735 62.2849C115.165 61.9767 114.714 61.5491 114.383 61.002C114.052 60.4549 113.901 59.8231 113.932 59.1065C113.971 58.2897 114.175 57.6116 114.545 57.0722C114.922 56.5251 115.408 56.0936 116.001 55.7777C116.594 55.4618 117.242 55.2345 117.943 55.0958C118.652 54.9571 119.349 54.8877 120.035 54.8877L122.231 54.8993ZM130.309 44.7628H133.291L130.667 59.9155L129.928 62.5161H127.223L130.309 44.7628ZM139.093 56.0667L139.07 56.3209C138.978 57.0915 138.804 57.862 138.55 58.6326C138.296 59.4031 137.945 60.1043 137.498 60.7362C137.051 61.3603 136.496 61.8612 135.834 62.2387C135.179 62.6086 134.401 62.782 133.499 62.7588C132.705 62.7357 132.047 62.5315 131.523 62.1463C130.999 61.761 130.59 61.264 130.297 60.6552C130.012 60.0465 129.816 59.3877 129.708 58.6788C129.6 57.9699 129.561 57.2803 129.592 56.6099L129.673 55.9511C129.797 55.2422 130.001 54.5217 130.286 53.7897C130.571 53.0577 130.941 52.3835 131.395 51.767C131.858 51.1506 132.405 50.6574 133.037 50.2876C133.676 49.9177 134.408 49.7443 135.233 49.7675C136.096 49.7829 136.797 49.9871 137.336 50.38C137.876 50.7653 138.284 51.2662 138.561 51.8826C138.847 52.499 139.024 53.1733 139.093 53.9053C139.17 54.6373 139.17 55.3578 139.093 56.0667ZM136.088 56.3094L136.111 56.0551C136.157 55.6852 136.18 55.2807 136.18 54.8415C136.18 54.4023 136.13 53.9862 136.03 53.5932C135.93 53.1925 135.745 52.865 135.475 52.6108C135.213 52.3488 134.828 52.2101 134.32 52.1947C133.85 52.1716 133.43 52.2486 133.06 52.4258C132.69 52.5954 132.37 52.8304 132.1 53.1309C131.831 53.4314 131.607 53.7743 131.43 54.1596C131.261 54.5448 131.133 54.9455 131.049 55.3616L130.783 57.1878C130.752 57.6887 130.794 58.1779 130.91 58.6557C131.033 59.1257 131.257 59.5187 131.58 59.8346C131.904 60.1428 132.359 60.3047 132.944 60.3201C133.499 60.3432 133.965 60.2353 134.343 59.9964C134.72 59.7499 135.025 59.4262 135.256 59.0255C135.495 58.6172 135.68 58.1741 135.811 57.6964C135.942 57.2186 136.034 56.7563 136.088 56.3094ZM141.808 56.4596L141.843 56.2169C141.935 55.3385 142.147 54.5102 142.478 53.7319C142.817 52.946 143.261 52.2525 143.808 51.6514C144.362 51.0504 145.017 50.5842 145.772 50.2529C146.535 49.9139 147.383 49.7559 148.315 49.779C149.209 49.7944 149.98 49.9794 150.627 50.3338C151.282 50.6805 151.814 51.1506 152.222 51.7439C152.638 52.3295 152.927 52.9999 153.089 53.755C153.258 54.5025 153.305 55.2923 153.228 56.1244L153.204 56.3787C153.104 57.2494 152.885 58.0739 152.546 58.8522C152.207 59.6227 151.76 60.3047 151.205 60.898C150.65 61.4913 149.995 61.9536 149.24 62.2849C148.485 62.6163 147.645 62.7704 146.72 62.7473C145.834 62.7319 145.064 62.5508 144.409 62.204C143.761 61.8573 143.23 61.395 142.814 60.8171C142.405 60.2314 142.116 59.5649 141.947 58.8175C141.785 58.0701 141.739 57.2841 141.808 56.4596ZM144.813 56.2169L144.79 56.4712C144.759 56.8642 144.752 57.2841 144.767 57.731C144.79 58.1779 144.871 58.5979 145.01 58.9909C145.148 59.3838 145.368 59.7075 145.668 59.9618C145.969 60.2083 146.374 60.3393 146.882 60.3547C147.429 60.3701 147.899 60.2623 148.292 60.0311C148.693 59.7922 149.024 59.4763 149.286 59.0833C149.548 58.6827 149.756 58.2434 149.91 57.7657C150.064 57.288 150.168 56.8218 150.222 56.3672L150.246 56.1244C150.284 55.7315 150.292 55.3077 150.269 54.853C150.246 54.3984 150.165 53.9746 150.026 53.5816C149.887 53.181 149.668 52.8535 149.367 52.5992C149.067 52.3372 148.658 52.1985 148.142 52.1831C147.595 52.16 147.121 52.2717 146.72 52.5183C146.327 52.7649 146 53.0885 145.738 53.4892C145.476 53.8899 145.268 54.3329 145.114 54.8184C144.967 55.2961 144.867 55.7623 144.813 56.2169ZM159.421 50.0102L160.947 53.9631L163.767 50.0102H167.154L162.531 56.2747L165.189 62.5161H162.114L160.439 58.3552L157.48 62.5161H154.093L158.89 55.9973L156.347 50.0102H159.421ZM168.204 61.0713C168.197 60.5859 168.359 60.1814 168.69 59.8577C169.021 59.5341 169.43 59.3723 169.915 59.3723C170.385 59.3646 170.782 59.511 171.105 59.8115C171.437 60.1043 171.606 60.4896 171.614 60.9673C171.622 61.4605 171.456 61.865 171.117 62.1809C170.786 62.4968 170.381 62.6548 169.903 62.6548C169.441 62.6625 169.04 62.52 168.701 62.2272C168.37 61.9344 168.204 61.5491 168.204 61.0713ZM183.356 50.0102L182.974 52.2062H176.005L176.386 50.0102H183.356ZM178.779 46.9357H181.761L179.715 58.9331C179.684 59.2028 179.684 59.4339 179.715 59.6266C179.754 59.8192 179.842 59.9695 179.981 60.0773C180.127 60.1852 180.347 60.243 180.64 60.2507C180.802 60.2584 180.963 60.2507 181.125 60.2276C181.295 60.2045 181.46 60.1852 181.622 60.1698L181.414 62.4814C181.121 62.5662 180.825 62.6278 180.524 62.6664C180.224 62.7126 179.919 62.7357 179.611 62.7357C178.894 62.7203 178.309 62.5585 177.854 62.2503C177.407 61.9421 177.091 61.5221 176.906 60.9904C176.722 60.4511 176.66 59.8385 176.722 59.1527L178.779 46.9357ZM188.764 60.0658L193.133 50.0102H196.334L190.209 62.5161H188.255L188.764 60.0658ZM188.255 50.0102L189.538 60.3779L189.296 62.5161H187.446L185.216 50.0102H188.255Z" fill="white"/>
<path d="M89.3852 44.7628V44.6363H89.2788L89.2606 44.7411L89.3852 44.7628ZM92.3672 44.7628L92.4918 44.7843L92.5174 44.6363H92.3672V44.7628ZM89.7435 59.9155L89.8658 59.9503L89.8681 59.9371L89.7435 59.9155ZM89.0038 62.5161V62.6426H89.0993L89.1254 62.5507L89.0038 62.5161ZM86.2992 62.5161L86.1746 62.4945L86.1488 62.6426H86.2992V62.5161ZM98.1694 56.0667L98.0437 56.053L98.0435 56.0552L98.1694 56.0667ZM98.1463 56.3209L98.2719 56.336L98.2722 56.3324L98.1463 56.3209ZM96.5744 60.7362L96.6772 60.8098L96.6776 60.8092L96.5744 60.7362ZM94.91 62.2387L94.9722 62.3488L94.9726 62.3486L94.91 62.2387ZM92.5753 62.7588L92.5716 62.8852L92.572 62.8852L92.5753 62.7588ZM89.3736 60.6552L89.2591 60.7089L89.2597 60.7101L89.3736 60.6552ZM88.6686 56.6099L88.5427 56.5944L88.5423 56.6041L88.6686 56.6099ZM88.7495 55.9511L88.6248 55.9294L88.624 55.9357L88.7495 55.9511ZM89.3621 53.7897L89.2443 53.7438L89.3621 53.7897ZM90.4717 51.767L90.3705 51.6911L90.3699 51.692L90.4717 51.767ZM92.1129 50.2876L92.0496 50.1781L92.0491 50.1784L92.1129 50.2876ZM94.309 49.7675L94.3054 49.8939L94.3067 49.8939L94.309 49.7675ZM96.4126 50.38L96.3381 50.4822L96.3391 50.4829L96.4126 50.38ZM97.6377 51.8826L97.5224 51.9345L97.523 51.9357L97.6377 51.8826ZM98.1694 53.9053L98.0435 53.9172L98.0437 53.9185L98.1694 53.9053ZM95.1643 56.3094L95.2899 56.3245L95.2902 56.3208L95.1643 56.3094ZM95.1874 56.0551L95.0619 56.0394L95.0615 56.0436L95.1874 56.0551ZM95.1065 53.5932L94.9838 53.6239L94.984 53.6244L95.1065 53.5932ZM94.5517 52.6108L94.4623 52.7002L94.465 52.7028L94.5517 52.6108ZM93.3959 52.1947L93.3897 52.321L93.3921 52.3211L93.3959 52.1947ZM92.1361 52.4258L92.1887 52.5408L92.1907 52.5399L92.1361 52.4258ZM90.5063 54.1596L90.3915 54.1067L90.3906 54.1086L90.5063 54.1596ZM90.1249 55.3616L90.0008 55.3363L89.9998 55.3434L90.1249 55.3616ZM89.8591 57.1878L89.7335 57.1695L89.7329 57.18L89.8591 57.1878ZM89.9862 58.6557L89.8633 58.6854L89.8639 58.6878L89.9862 58.6557ZM90.6566 59.8346L90.5683 59.9251L90.5694 59.9262L90.6566 59.8346ZM92.0205 60.3201L92.0257 60.1937L92.0238 60.1937L92.0205 60.3201ZM93.419 59.9964L93.4866 60.1033L93.4881 60.1023L93.419 59.9964ZM94.3321 59.0255L94.2229 58.9617L94.2226 58.9624L94.3321 59.0255ZM89.3852 44.8892H92.3672V44.6363H89.3852V44.8892ZM92.2426 44.7412L89.6189 59.894L89.8681 59.9371L92.4918 44.7843L92.2426 44.7412ZM89.6219 59.8809L88.8822 62.4815L89.1254 62.5507L89.8651 59.9501L89.6219 59.8809ZM89.0038 62.3897H86.2992V62.6426H89.0038V62.3897ZM86.4238 62.5378L89.5098 44.7844L89.2606 44.7411L86.1746 62.4945L86.4238 62.5378ZM98.0435 56.0552L98.0204 56.3095L98.2722 56.3324L98.2953 56.0781L98.0435 56.0552ZM98.0207 56.3059C97.9293 57.0677 97.7579 57.83 97.5061 58.5929L97.7463 58.6722C98.0031 57.894 98.1783 57.1153 98.2718 56.336L98.0207 56.3059ZM97.5061 58.5929C97.2556 59.3522 96.9105 60.042 96.4712 60.6631L96.6776 60.8092C97.1321 60.1666 97.4882 59.4541 97.7463 58.6722L97.5061 58.5929ZM96.4716 60.6625C96.0352 61.2719 95.4941 61.7604 94.8474 62.1288L94.9726 62.3486C95.6512 61.9619 96.2197 61.4487 96.6772 60.8098L96.4716 60.6625ZM94.8478 62.1286C94.2164 62.4852 93.4617 62.6551 92.5785 62.6324L92.572 62.8852C93.4919 62.9088 94.2937 62.732 94.9722 62.3488L94.8478 62.1286ZM92.5789 62.6324C91.8052 62.6099 91.1728 62.4113 90.6737 62.0444L90.5239 62.2481C91.0728 62.6517 91.758 62.8615 92.5716 62.8852L92.5789 62.6324ZM90.6737 62.0444C90.1671 61.6718 89.7718 61.1913 89.4876 60.6004L89.2597 60.7101C89.5611 61.3367 89.9826 61.8501 90.5239 62.2481L90.6737 62.0444ZM89.4882 60.6016C89.2085 60.0046 89.0154 59.3575 88.9092 58.6598L88.6592 58.6978C88.7687 59.4179 88.9686 60.0885 89.2591 60.7089L89.4882 60.6016ZM88.9092 58.6598C88.8025 57.9585 88.7645 57.2772 88.7949 56.6157L88.5423 56.6041C88.5111 57.2833 88.5501 57.9813 88.6592 58.6978L88.9092 58.6598ZM88.7941 56.6253L88.875 55.9665L88.624 55.9357L88.5431 56.5945L88.7941 56.6253ZM88.8741 55.9727C88.9958 55.2728 89.1976 54.5605 89.4799 53.8356L89.2443 53.7438C88.9564 54.4829 88.7498 55.2115 88.6249 55.9294L88.8741 55.9727ZM89.4799 53.8356C89.7611 53.1137 90.1256 52.4493 90.5734 51.8421L90.3699 51.692C89.9085 52.3176 89.5333 53.0017 89.2443 53.7438L89.4799 53.8356ZM90.5728 51.8429C91.0256 51.2392 91.5602 50.7576 92.1768 50.3967L92.0491 50.1784C91.4019 50.5572 90.8424 51.062 90.3705 51.6911L90.5728 51.8429ZM92.1762 50.397C92.7932 50.0402 93.5016 49.8713 94.3054 49.8939L94.3125 49.6411C93.4674 49.6174 92.7118 49.7952 92.0496 50.1781L92.1762 50.397ZM94.3067 49.8939C95.1513 49.909 95.8251 50.1085 96.3381 50.4822L96.487 50.2778C95.9212 49.8656 95.1926 49.6568 94.3112 49.641L94.3067 49.8939ZM96.3391 50.4829C96.8599 50.8549 97.254 51.338 97.5224 51.9345L97.753 51.8307C97.4667 51.1943 97.044 50.6757 96.4861 50.2771L96.3391 50.4829ZM97.523 51.9357C97.8016 52.5381 97.9754 53.1983 98.0435 53.9172L98.2953 53.8934C98.2247 53.1483 98.0441 52.46 97.7525 51.8295L97.523 51.9357ZM98.0437 53.9185C98.1198 54.6419 98.1198 55.3533 98.0437 56.053L98.2951 56.0803C98.3732 55.3622 98.3731 54.6327 98.2952 53.892L98.0437 53.9185ZM95.2902 56.3208L95.3133 56.0665L95.0615 56.0436L95.0384 56.2979L95.2902 56.3208ZM95.3129 56.0708C95.3599 55.6949 95.3832 55.285 95.3832 54.8415H95.1303C95.1303 55.2764 95.1074 55.6756 95.0619 56.0394L95.3129 56.0708ZM95.3832 54.8415C95.3832 54.3926 95.332 53.966 95.229 53.562L94.984 53.6244C95.0813 54.0064 95.1303 54.4119 95.1303 54.8415H95.3832ZM95.2292 53.5625C95.1238 53.1412 94.9277 52.7915 94.6385 52.5188L94.465 52.7028C94.7151 52.9386 94.8888 53.2439 94.9838 53.6239L95.2292 53.5625ZM94.6411 52.5214C94.349 52.2292 93.9283 52.0843 93.3997 52.0683L93.3921 52.3211C93.8806 52.3359 94.2304 52.4683 94.4623 52.7002L94.6411 52.5214ZM93.4021 52.0684C92.9142 52.0444 92.4729 52.1242 92.0814 52.3118L92.1907 52.5399C92.539 52.373 92.9375 52.2987 93.3897 52.321L93.4021 52.0684ZM92.0834 52.3109C91.6979 52.4876 91.364 52.7329 91.0826 53.0464L91.2708 53.2153C91.5289 52.9278 91.8345 52.7031 92.1887 52.5408L92.0834 52.3109ZM91.0826 53.0464C90.804 53.3568 90.5737 53.7105 90.3915 54.1067L90.6212 54.2124C90.7934 53.8381 91.01 53.5059 91.2708 53.2153L91.0826 53.0464ZM90.3906 54.1086C90.2174 54.5022 90.0876 54.9115 90.001 55.3364L90.2488 55.3868C90.3318 54.9795 90.4562 54.5874 90.6221 54.2105L90.3906 54.1086ZM89.9998 55.3434L89.734 57.1696L89.9842 57.206L90.2501 55.3798L89.9998 55.3434ZM89.7329 57.18C89.7013 57.6932 89.7447 58.1952 89.8633 58.6854L90.1091 58.626C89.9966 58.1607 89.9552 57.6841 89.9853 57.1956L89.7329 57.18ZM89.8639 58.6878C89.9926 59.1783 90.227 59.592 90.5683 59.9251L90.7449 59.7441C90.4389 59.4454 90.2265 59.0732 90.1085 58.6236L89.8639 58.6878ZM90.5694 59.9262C90.922 60.262 91.4102 60.4305 92.0171 60.4465L92.0238 60.1937C91.4595 60.1788 91.0385 60.0237 90.7438 59.7431L90.5694 59.9262ZM92.0152 60.4464C92.5894 60.4703 93.0825 60.3589 93.4866 60.1033L93.3514 59.8896C93.0004 60.1117 92.5611 60.216 92.0257 60.1937L92.0152 60.4464ZM93.4881 60.1023C93.8828 59.8446 94.2008 59.5062 94.4416 59.0887L94.2226 58.9624C94.0011 59.3463 93.7104 59.6551 93.3499 59.8906L93.4881 60.1023ZM94.4413 59.0894C94.686 58.671 94.8751 58.2177 95.0088 57.7298L94.7649 57.6629C94.6367 58.1305 94.456 58.5633 94.223 58.9617L94.4413 59.0894ZM95.0088 57.7298C95.1413 57.2466 95.2351 56.7782 95.2898 56.3245L95.0388 56.2942C94.9856 56.7344 94.8945 57.1906 94.7649 57.6629L95.0088 57.7298ZM106.062 62.7473L106.06 62.8737L106.061 62.8737L106.062 62.7473ZM101.115 59.0487L100.994 59.0824L100.994 59.0836L101.115 59.0487ZM100.907 56.7255L100.782 56.7132L100.781 56.716L100.907 56.7255ZM100.954 56.2516L100.828 56.2391L100.828 56.2393L100.954 56.2516ZM101.566 53.8013L101.45 53.7521L101.45 53.7527L101.566 53.8013ZM102.884 51.7092L102.79 51.6246L102.79 51.6247L102.884 51.7092ZM104.837 50.2645L104.784 50.1495L104.784 50.1497L104.837 50.2645ZM107.345 49.779L107.342 49.9054L107.343 49.9054L107.345 49.779ZM109.565 50.3222L109.502 50.4321L109.503 50.4327L109.565 50.3222ZM111.021 51.6977L110.914 51.7648L110.915 51.7665L111.021 51.6977ZM111.841 55.9048L111.967 55.9218L111.967 55.9184L111.841 55.9048ZM111.668 57.1878V57.3142H111.779L111.793 57.2047L111.668 57.1878ZM102.144 57.1878L102.019 57.1679L101.996 57.3142H102.144V57.1878ZM102.479 55.0842L102.48 54.9578L102.371 54.9576L102.354 55.0643L102.479 55.0842ZM108.987 55.0958L108.986 55.2222L109.093 55.2224L109.111 55.1174L108.987 55.0958ZM109.033 54.8299L109.157 54.8516L109.158 54.849L109.033 54.8299ZM108.963 53.547L108.841 53.5799L108.842 53.582L108.963 53.547ZM108.351 52.5761L108.268 52.6716L108.271 52.6738L108.351 52.5761ZM107.16 52.1716L107.164 52.0452L107.164 52.0452L107.16 52.1716ZM105.75 52.5299L105.818 52.6364L105.82 52.6354L105.75 52.5299ZM104.791 53.5123L104.684 53.4455L104.683 53.4469L104.791 53.5123ZM104.213 54.853L104.335 54.8883L104.335 54.8878L104.213 54.853ZM103.924 56.2516L103.799 56.2367L103.798 56.239L103.924 56.2516ZM103.878 56.7139L103.752 56.7013L103.752 56.7027L103.878 56.7139ZM103.913 57.9969L103.787 58.0151L103.788 58.0173L103.913 57.9969ZM104.294 59.1527L104.182 59.2122L104.183 59.2141L104.294 59.1527ZM106.351 60.3432L106.347 60.4696L106.348 60.4696L106.351 60.3432ZM108.085 59.9618L108.143 60.0742L108.144 60.0739L108.085 59.9618ZM109.53 58.8753L109.625 58.7916L109.534 58.689L109.439 58.7875L109.53 58.8753ZM110.928 60.4588L111.033 60.5296L111.088 60.4485L111.023 60.3751L110.928 60.4588ZM109.611 61.7648L109.679 61.871L109.681 61.8703L109.611 61.7648ZM107.9 62.5161L107.868 62.3938L107.868 62.3939L107.9 62.5161ZM106.065 62.6208C105.224 62.6057 104.48 62.4431 103.828 62.1359L103.72 62.3647C104.409 62.6893 105.19 62.858 106.06 62.8737L106.065 62.6208ZM103.828 62.1359C103.174 61.8276 102.63 61.4075 102.196 60.8758L102 61.0358C102.459 61.5982 103.033 62.0411 103.72 62.3647L103.828 62.1359ZM102.196 60.8758C101.761 60.3428 101.441 59.7227 101.237 59.0138L100.994 59.0836C101.206 59.8232 101.542 60.4745 102 61.0358L102.196 60.8758ZM101.237 59.015C101.041 58.306 100.973 57.5463 101.034 56.7349L100.781 56.716C100.719 57.5536 100.789 58.3427 100.994 59.0824L101.237 59.015ZM101.033 56.7377L101.08 56.2639L100.828 56.2393L100.782 56.7132L101.033 56.7377ZM101.08 56.2641C101.163 55.4209 101.364 54.6163 101.683 53.8498L101.45 53.7527C101.121 54.5427 100.914 55.3717 100.828 56.2391L101.08 56.2641ZM101.683 53.8504C102.009 53.0768 102.441 52.3916 102.978 51.7938L102.79 51.6247C102.233 52.2443 101.786 52.9538 101.45 53.7521L101.683 53.8504ZM102.978 51.7938C103.521 51.19 104.159 50.7187 104.89 50.3792L104.784 50.1497C104.021 50.5037 103.356 50.9956 102.79 51.6246L102.978 51.7938ZM104.89 50.3794C105.626 50.0415 106.442 49.8827 107.342 49.9054L107.349 49.6526C106.414 49.6291 105.559 49.7939 104.784 50.1495L104.89 50.3794ZM107.343 49.9054C108.198 49.9206 108.916 50.0981 109.502 50.4321L109.627 50.2124C108.996 49.8529 108.234 49.6683 107.348 49.6526L107.343 49.9054ZM109.503 50.4327C110.094 50.7616 110.563 51.2054 110.914 51.7648L111.128 51.6305C110.754 51.0342 110.253 50.5609 109.626 50.2118L109.503 50.4327ZM110.915 51.7665C111.275 52.3215 111.519 52.9528 111.648 53.6619L111.897 53.6169C111.763 52.8775 111.507 52.2143 111.127 51.6289L110.915 51.7665ZM111.648 53.6619C111.776 54.3735 111.799 55.1165 111.716 55.8913L111.967 55.9184C112.053 55.1213 112.03 54.354 111.897 53.6169L111.648 53.6619ZM111.716 55.8879L111.543 57.1709L111.793 57.2047L111.967 55.9218L111.716 55.8879ZM111.668 57.0613H102.144V57.3142H111.668V57.0613ZM102.269 57.2077L102.604 55.1041L102.354 55.0643L102.019 57.1679L102.269 57.2077ZM102.479 55.2107L108.986 55.2222L108.987 54.9693L102.48 54.9578L102.479 55.2107ZM109.111 55.1174L109.157 54.8516L108.908 54.8083L108.862 55.0741L109.111 55.1174ZM109.158 54.849C109.23 54.3782 109.206 53.9319 109.085 53.5119L108.842 53.582C108.952 53.9634 108.975 54.3724 108.908 54.8109L109.158 54.849ZM109.086 53.5141C108.971 53.0898 108.753 52.7428 108.431 52.4783L108.271 52.6738C108.549 52.9025 108.74 53.2028 108.841 53.5798L109.086 53.5141ZM108.434 52.4806C108.113 52.2023 107.686 52.0612 107.164 52.0452L107.157 52.2979C107.637 52.3127 108.003 52.4414 108.268 52.6716L108.434 52.4806ZM107.164 52.0452C106.589 52.0292 106.092 52.153 105.681 52.4243L105.82 52.6354C106.18 52.3981 106.623 52.2831 107.157 52.298L107.164 52.0452ZM105.682 52.4234C105.28 52.6806 104.947 53.0219 104.684 53.4455L104.898 53.5791C105.143 53.1859 105.45 52.8723 105.818 52.6364L105.682 52.4234ZM104.683 53.4469C104.43 53.8654 104.233 54.3227 104.091 54.8183L104.335 54.8878C104.47 54.4125 104.659 53.9759 104.899 53.5777L104.683 53.4469ZM104.092 54.8178C103.951 55.3016 103.853 55.7746 103.799 56.2367L104.05 56.2665C104.103 55.8193 104.198 55.3599 104.335 54.8883L104.092 54.8178ZM103.798 56.239L103.752 56.7013L104.004 56.7265L104.05 56.2642L103.798 56.239ZM103.752 56.7027C103.713 57.1439 103.724 57.5814 103.787 58.0151L104.038 57.9787C103.977 57.5647 103.966 57.147 104.004 56.7252L103.752 56.7027ZM103.788 58.0173C103.859 58.4535 103.99 58.8521 104.182 59.2122L104.406 59.0932C104.228 58.7597 104.105 58.3878 104.037 57.9764L103.788 58.0173ZM104.183 59.2141C104.386 59.5795 104.667 59.8762 105.024 60.1031L105.159 59.8898C104.838 59.6851 104.587 59.4194 104.405 59.0913L104.183 59.2141ZM105.024 60.1031C105.386 60.3337 105.829 60.4536 106.347 60.4696L106.355 60.2168C105.872 60.2019 105.475 60.0906 105.159 59.8898L105.024 60.1031ZM106.348 60.4696C107 60.4855 107.599 60.3543 108.143 60.0742L108.027 59.8493C107.523 60.1086 106.967 60.2317 106.354 60.2168L106.348 60.4696ZM108.144 60.0739C108.688 59.79 109.18 59.4195 109.621 58.9631L109.439 58.7875C109.016 59.2249 108.546 59.5788 108.027 59.8497L108.144 60.0739ZM109.435 58.959L110.834 60.5425L111.023 60.3751L109.625 58.7916L109.435 58.959ZM110.824 60.3879C110.478 60.8983 110.051 61.3218 109.541 61.6594L109.681 61.8703C110.218 61.5143 110.669 61.0672 111.033 60.5296L110.824 60.3879ZM109.542 61.6587C109.03 61.9903 108.472 62.2353 107.868 62.3938L107.932 62.6384C108.561 62.4733 109.144 62.2175 109.679 61.871L109.542 61.6587ZM107.868 62.3939C107.27 62.5528 106.669 62.6284 106.064 62.6208L106.061 62.8737C106.689 62.8816 107.313 62.803 107.933 62.6383L107.868 62.3939ZM120.971 59.8577L120.846 59.8381L120.846 59.8402L120.971 59.8577ZM121.884 54.044L122.009 54.0636L122.01 54.0597L121.884 54.044ZM121.815 53.0384L121.693 53.072L121.694 53.0756L121.815 53.0384ZM120.359 52.0097L120.356 52.1362L120.356 52.1362L120.359 52.0097ZM119.353 52.1947L119.304 52.0783L119.303 52.0788L119.353 52.1947ZM118.163 53.6626L118.164 53.789L118.265 53.7882L118.286 53.6894L118.163 53.6626ZM115.181 53.6857L115.054 53.6771L115.045 53.8132L115.182 53.8121L115.181 53.6857ZM115.77 51.9288L115.873 52.0016L115.874 52.0008L115.77 51.9288ZM117.088 50.7037L117.152 50.8124L117.153 50.8117L117.088 50.7037ZM120.659 49.779L120.656 49.9054L120.657 49.9054L120.659 49.779ZM124.485 51.8017L124.374 51.863L124.375 51.8636L124.485 51.8017ZM124.878 54.1133L125.003 54.1337L125.004 54.1261L124.878 54.1133ZM123.988 59.5688L123.863 59.5484L123.863 59.5494L123.988 59.5688ZM123.838 60.9558L123.964 60.964L123.964 60.9639L123.838 60.9558ZM124.023 62.3081L124.149 62.3151L124.15 62.2896L124.142 62.2655L124.023 62.3081ZM124.011 62.5161L124.011 62.6426L124.131 62.6421L124.137 62.5231L124.011 62.5161ZM121.064 62.5277L120.943 62.5644L120.97 62.6545L121.064 62.6541L121.064 62.5277ZM120.867 61.1985L120.741 61.1963V61.1985H120.867ZM122.231 54.8993L122.356 54.9199L122.38 54.7736L122.232 54.7728L122.231 54.8993ZM121.931 56.7139L121.93 56.8404L122.038 56.8411L122.055 56.7346L121.931 56.7139ZM120.208 56.7024L120.209 56.5759H120.208V56.7024ZM119.133 56.8179L119.107 56.6943L119.107 56.6944L119.133 56.8179ZM118.139 57.1878L118.198 57.2998L118.2 57.2986L118.139 57.1878ZM116.984 58.8637L117.109 58.8794L117.109 58.8782L116.984 58.8637ZM117.573 60.2276L117.505 60.3341L117.509 60.3367L117.573 60.2276ZM118.371 60.4356L118.367 60.5621L118.368 60.5621L118.371 60.4356ZM119.619 60.1929L119.667 60.3097L119.669 60.3089L119.619 60.1929ZM120.682 59.4532L120.592 59.3649L120.591 59.366L120.682 59.4532ZM121.318 58.3552L121.43 58.2963L121.281 58.0141L121.196 58.3213L121.318 58.3552ZM122.023 59.6959L122.141 59.7401L122.161 59.6871L122.135 59.6371L122.023 59.6959ZM121.329 60.9442L121.23 60.8667L121.329 60.9442ZM120.312 61.9266L120.385 62.0302L120.386 62.0293L120.312 61.9266ZM119.053 62.5508L119.014 62.4304L119.011 62.4312L119.053 62.5508ZM117.642 62.7704L117.64 62.8968L117.64 62.8968L117.642 62.7704ZM115.735 62.285L115.675 62.3962L115.676 62.3965L115.735 62.285ZM114.383 61.002L114.275 61.0675L114.383 61.002ZM113.932 59.1065L113.806 59.1005L113.806 59.101L113.932 59.1065ZM114.545 57.0722L114.441 57.0004L114.441 57.0007L114.545 57.0722ZM117.943 55.0958L117.919 54.9717L117.918 54.9717L117.943 55.0958ZM120.035 54.8877L120.036 54.7613H120.035V54.8877ZM121.096 59.8774L122.009 54.0636L121.759 54.0244L120.846 59.8381L121.096 59.8774ZM122.01 54.0597C122.058 53.6753 122.034 53.3217 121.936 53.0012L121.694 53.0756C121.78 53.3561 121.803 53.6729 121.759 54.0283L122.01 54.0597ZM121.937 53.0049C121.845 52.6719 121.669 52.4014 121.407 52.1987L121.252 52.3987C121.468 52.5658 121.615 52.7885 121.693 53.0719L121.937 53.0049ZM121.407 52.1987C121.14 51.9921 120.787 51.8914 120.361 51.8833L120.356 52.1362C120.747 52.1435 121.041 52.2354 121.252 52.3987L121.407 52.1987ZM120.361 51.8833C119.983 51.8753 119.63 51.9397 119.304 52.0783L119.402 52.311C119.693 52.1876 120.01 52.1288 120.356 52.1362L120.361 51.8833ZM119.303 52.0788C118.984 52.2174 118.714 52.4178 118.494 52.6795L118.687 52.8426C118.882 52.6111 119.121 52.4339 119.404 52.3106L119.303 52.0788ZM118.494 52.6795C118.271 52.9437 118.12 53.2636 118.039 53.6357L118.286 53.6894C118.359 53.3526 118.494 53.0715 118.687 52.8426L118.494 52.6795ZM118.162 53.5361L115.18 53.5592L115.182 53.8121L118.164 53.789L118.162 53.5361ZM115.307 53.6943C115.352 53.0362 115.542 52.4735 115.873 52.0016L115.667 51.8561C115.305 52.3705 115.102 52.979 115.054 53.6771L115.307 53.6943ZM115.874 52.0008C116.21 51.5151 116.636 51.1192 117.152 50.8124L117.023 50.595C116.476 50.92 116.023 51.3408 115.666 51.8569L115.874 52.0008ZM117.153 50.8117C117.674 50.495 118.24 50.2609 118.852 50.1098L118.791 49.8643C118.155 50.0214 117.565 50.2651 117.022 50.5957L117.153 50.8117ZM118.852 50.1098C119.466 49.9582 120.067 49.8903 120.656 49.9054L120.662 49.6526C120.049 49.6369 119.425 49.7077 118.791 49.8643L118.852 50.1098ZM120.657 49.9054C121.495 49.9205 122.239 50.0979 122.89 50.4346L123.006 50.2099C122.316 49.8531 121.534 49.6683 120.661 49.6526L120.657 49.9054ZM122.89 50.4346C123.539 50.7702 124.032 51.246 124.374 51.863L124.595 51.7404C124.229 51.0783 123.697 50.5677 123.006 50.2099L122.89 50.4346ZM124.375 51.8636C124.713 52.4674 124.843 53.2104 124.752 54.1005L125.004 54.1261C125.098 53.1978 124.965 52.3997 124.595 51.7398L124.375 51.8636ZM124.753 54.093L123.863 59.5484L124.113 59.5891L125.003 54.1337L124.753 54.093ZM123.863 59.5494C123.793 60.0002 123.742 60.4663 123.711 60.9476L123.964 60.9639C123.994 60.4897 124.044 60.0311 124.113 59.5882L123.863 59.5494ZM123.711 60.9475C123.68 61.4343 123.743 61.9024 123.903 62.3506L124.142 62.2655C123.993 61.8508 123.934 61.4173 123.964 60.964L123.711 60.9475ZM123.896 62.3011L123.885 62.5091L124.137 62.5231L124.149 62.3151L123.896 62.3011ZM124.01 62.3897L121.063 62.4012L121.064 62.6541L124.011 62.6426L124.01 62.3897ZM121.185 62.4909C121.057 62.0714 120.994 61.6408 120.994 61.1985H120.741C120.741 61.6654 120.808 62.1209 120.943 62.5644L121.185 62.4909ZM120.994 61.2006C121.001 60.751 121.035 60.3093 121.096 59.8753L120.846 59.8402C120.784 60.2846 120.749 60.7367 120.741 61.1963L120.994 61.2006ZM122.106 54.8786L121.806 56.6933L122.055 56.7346L122.356 54.9199L122.106 54.8786ZM121.931 56.5875L120.209 56.5759L120.207 56.8288L121.93 56.8404L121.931 56.5875ZM120.208 56.5759C119.845 56.5759 119.478 56.6154 119.107 56.6943L119.16 56.9416C119.514 56.8663 119.863 56.8288 120.208 56.8288V56.5759ZM119.107 56.6944C118.741 56.7739 118.398 56.9014 118.078 57.077L118.2 57.2986C118.498 57.1351 118.817 57.016 119.16 56.9415L119.107 56.6944ZM118.081 57.0758C117.756 57.2464 117.483 57.4783 117.264 57.7707L117.466 57.9225C117.663 57.6602 117.907 57.4529 118.198 57.2998L118.081 57.0758ZM117.264 57.7707C117.04 58.0688 116.906 58.43 116.858 58.8492L117.109 58.8782C117.153 58.4961 117.274 58.1792 117.466 57.9225L117.264 57.7707ZM116.858 58.848C116.817 59.1747 116.853 59.4693 116.973 59.7263L117.202 59.6193C117.106 59.414 117.073 59.1692 117.109 58.8794L116.858 58.848ZM116.973 59.7263C117.091 59.9792 117.269 60.1824 117.505 60.334L117.641 60.1212C117.446 59.9954 117.3 59.8287 117.202 59.6193L116.973 59.7263ZM117.509 60.3367C117.754 60.4804 118.042 60.5539 118.367 60.5621L118.374 60.3092C118.083 60.302 117.839 60.2368 117.637 60.1185L117.509 60.3367ZM118.368 60.5621C118.81 60.5701 119.244 60.4856 119.667 60.3097L119.57 60.0761C119.177 60.2393 118.779 60.3166 118.373 60.3092L118.368 60.5621ZM119.669 60.3089C120.093 60.1251 120.461 59.8688 120.774 59.5403L120.591 59.366C120.302 59.6694 119.962 59.9063 119.569 60.0769L119.669 60.3089ZM120.773 59.5415C121.095 59.2107 121.318 58.8261 121.44 58.389L121.196 58.3213C121.086 58.7165 120.885 59.0639 120.592 59.3649L120.773 59.5415ZM121.206 58.414L121.911 59.7548L122.135 59.6371L121.43 58.2963L121.206 58.414ZM121.904 59.6517C121.739 60.0946 121.514 60.4994 121.23 60.8667L121.429 61.0217C121.73 60.6339 121.968 60.2065 122.141 59.7401L121.904 59.6517ZM121.23 60.8667C120.944 61.2348 120.614 61.5538 120.238 61.824L120.386 62.0293C120.781 61.7447 121.129 61.4088 121.429 61.0217L121.23 60.8667ZM120.24 61.8231C119.865 62.0854 119.457 62.2878 119.014 62.4304L119.091 62.6712C119.558 62.5209 119.989 62.3073 120.385 62.0302L120.24 61.8231ZM119.011 62.4312C118.579 62.5804 118.123 62.6514 117.644 62.644L117.64 62.8968C118.148 62.9048 118.632 62.8294 119.094 62.6703L119.011 62.4312ZM117.645 62.644C116.97 62.629 116.354 62.4717 115.795 62.1734L115.676 62.3965C116.272 62.7146 116.928 62.881 117.64 62.8968L117.645 62.644ZM115.795 62.1737C115.245 61.876 114.811 61.4641 114.491 60.9365L114.275 61.0675C114.618 61.6341 115.085 62.0774 115.675 62.3962L115.795 62.1737ZM114.491 60.9365C114.174 60.4133 114.029 59.8067 114.059 59.1119L113.806 59.101C113.774 59.8394 113.929 60.4965 114.275 61.0675L114.491 60.9365ZM114.059 59.1124C114.096 58.3133 114.296 57.6594 114.649 57.1437L114.441 57.0007C114.054 57.5638 113.845 58.2661 113.806 59.1005L114.059 59.1124ZM114.649 57.144C115.015 56.6138 115.485 56.1958 116.061 55.8893L115.942 55.6661C115.331 55.9914 114.83 56.4365 114.441 57.0004L114.649 57.144ZM116.061 55.8893C116.642 55.5796 117.278 55.3563 117.967 55.2198L117.918 54.9717C117.206 55.1127 116.547 55.344 115.942 55.6661L116.061 55.8893ZM117.967 55.2199C118.669 55.0827 119.358 55.0142 120.035 55.0142V54.7613C119.341 54.7613 118.635 54.8315 117.919 54.9717L117.967 55.2199ZM120.034 55.0142L122.23 55.0257L122.232 54.7728L120.036 54.7613L120.034 55.0142ZM130.309 44.7628V44.6363H130.203L130.184 44.7411L130.309 44.7628ZM133.291 44.7628L133.416 44.7843L133.441 44.6363H133.291V44.7628ZM130.667 59.9155L130.79 59.9503L130.792 59.9371L130.667 59.9155ZM129.928 62.5161V62.6426H130.023L130.049 62.5507L129.928 62.5161ZM127.223 62.5161L127.098 62.4945L127.073 62.6426H127.223V62.5161ZM139.093 56.0667L138.967 56.053L138.967 56.0552L139.093 56.0667ZM139.07 56.3209L139.196 56.336L139.196 56.3324L139.07 56.3209ZM137.498 60.7362L137.601 60.8098L137.601 60.8092L137.498 60.7362ZM135.834 62.2387L135.896 62.3488L135.896 62.3486L135.834 62.2387ZM133.499 62.7588L133.495 62.8852L133.496 62.8852L133.499 62.7588ZM130.297 60.6552L130.183 60.7089L130.183 60.7101L130.297 60.6552ZM129.592 56.6099L129.466 56.5944L129.466 56.6041L129.592 56.6099ZM129.673 55.9511L129.548 55.9294L129.548 55.9357L129.673 55.9511ZM130.286 53.7897L130.168 53.7438L130.286 53.7897ZM131.395 51.767L131.294 51.6911L131.294 51.692L131.395 51.767ZM133.037 50.2876L132.973 50.1781L132.973 50.1784L133.037 50.2876ZM135.233 49.7675L135.229 49.8939L135.23 49.8939L135.233 49.7675ZM137.336 50.38L137.262 50.4822L137.263 50.4829L137.336 50.38ZM138.561 51.8826L138.446 51.9345L138.447 51.9357L138.561 51.8826ZM139.093 53.9053L138.967 53.9172L138.967 53.9185L139.093 53.9053ZM136.088 56.3094L136.214 56.3245L136.214 56.3208L136.088 56.3094ZM136.111 56.0551L135.986 56.0394L135.985 56.0436L136.111 56.0551ZM136.03 53.5932L135.908 53.6239L135.908 53.6244L136.03 53.5932ZM135.475 52.6108L135.386 52.7002L135.389 52.7028L135.475 52.6108ZM134.32 52.1947L134.313 52.321L134.316 52.3211L134.32 52.1947ZM133.06 52.4258L133.112 52.5408L133.114 52.5399L133.06 52.4258ZM131.43 54.1596L131.315 54.1067L131.314 54.1086L131.43 54.1596ZM131.049 55.3616L130.925 55.3363L130.924 55.3434L131.049 55.3616ZM130.783 57.1878L130.657 57.1695L130.657 57.18L130.783 57.1878ZM130.91 58.6557L130.787 58.6854L130.788 58.6878L130.91 58.6557ZM131.58 59.8346L131.492 59.9251L131.493 59.9262L131.58 59.8346ZM132.944 60.3201L132.949 60.1937L132.948 60.1937L132.944 60.3201ZM134.343 59.9964L134.41 60.1033L134.412 60.1023L134.343 59.9964ZM135.256 59.0255L135.147 58.9617L135.146 58.9624L135.256 59.0255ZM130.309 44.8892H133.291V44.6363H130.309V44.8892ZM133.166 44.7412L130.543 59.894L130.792 59.9371L133.416 44.7843L133.166 44.7412ZM130.546 59.8809L129.806 62.4815L130.049 62.5507L130.789 59.9501L130.546 59.8809ZM129.928 62.3897H127.223V62.6426H129.928V62.3897ZM127.347 62.5378L130.434 44.7844L130.184 44.7411L127.098 62.4945L127.347 62.5378ZM138.967 56.0552L138.944 56.3095L139.196 56.3324L139.219 56.0781L138.967 56.0552ZM138.944 56.3059C138.853 57.0677 138.682 57.83 138.43 58.5929L138.67 58.6722C138.927 57.894 139.102 57.1153 139.196 56.336L138.944 56.3059ZM138.43 58.5929C138.179 59.3522 137.834 60.042 137.395 60.6631L137.601 60.8092C138.056 60.1666 138.412 59.4541 138.67 58.6722L138.43 58.5929ZM137.395 60.6625C136.959 61.2719 136.418 61.7604 135.771 62.1288L135.896 62.3486C136.575 61.9619 137.143 61.4487 137.601 60.8098L137.395 60.6625ZM135.772 62.1286C135.14 62.4852 134.385 62.6551 133.502 62.6324L133.496 62.8852C134.416 62.9088 135.217 62.732 135.896 62.3488L135.772 62.1286ZM133.503 62.6324C132.729 62.6099 132.097 62.4113 131.597 62.0444L131.448 62.2481C131.996 62.6517 132.682 62.8615 133.495 62.8852L133.503 62.6324ZM131.597 62.0444C131.091 61.6718 130.696 61.1913 130.411 60.6004L130.183 60.7101C130.485 61.3367 130.906 61.8501 131.448 62.2481L131.597 62.0444ZM130.412 60.6016C130.132 60.0046 129.939 59.3575 129.833 58.6598L129.583 58.6978C129.692 59.4179 129.892 60.0885 130.183 60.7089L130.412 60.6016ZM129.833 58.6598C129.726 57.9585 129.688 57.2772 129.719 56.6157L129.466 56.6041C129.435 57.2833 129.474 57.9813 129.583 58.6978L129.833 58.6598ZM129.718 56.6253L129.799 55.9665L129.548 55.9357L129.467 56.5945L129.718 56.6253ZM129.798 55.9727C129.92 55.2728 130.121 54.5605 130.404 53.8356L130.168 53.7438C129.88 54.4829 129.673 55.2115 129.549 55.9294L129.798 55.9727ZM130.404 53.8356C130.685 53.1137 131.049 52.4493 131.497 51.8421L131.294 51.692C130.832 52.3176 130.457 53.0017 130.168 53.7438L130.404 53.8356ZM131.497 51.8429C131.949 51.2392 132.484 50.7576 133.101 50.3967L132.973 50.1784C132.326 50.5572 131.766 51.062 131.294 51.6911L131.497 51.8429ZM133.1 50.397C133.717 50.0402 134.425 49.8713 135.229 49.8939L135.236 49.6411C134.391 49.6174 133.635 49.7952 132.973 50.1781L133.1 50.397ZM135.23 49.8939C136.075 49.909 136.749 50.1085 137.262 50.4822L137.411 50.2778C136.845 49.8656 136.116 49.6568 135.235 49.641L135.23 49.8939ZM137.263 50.4829C137.784 50.8549 138.178 51.338 138.446 51.9345L138.677 51.8307C138.39 51.1943 137.968 50.6757 137.41 50.2771L137.263 50.4829ZM138.447 51.9357C138.725 52.5381 138.899 53.1983 138.967 53.9172L139.219 53.8934C139.148 53.1483 138.968 52.46 138.676 51.8295L138.447 51.9357ZM138.967 53.9185C139.044 54.6419 139.043 55.3533 138.967 56.053L139.219 56.0803C139.297 55.3622 139.297 54.6327 139.219 53.892L138.967 53.9185ZM136.214 56.3208L136.237 56.0665L135.985 56.0436L135.962 56.2979L136.214 56.3208ZM136.237 56.0708C136.284 55.6949 136.307 55.285 136.307 54.8415H136.054C136.054 55.2764 136.031 55.6756 135.986 56.0394L136.237 56.0708ZM136.307 54.8415C136.307 54.3926 136.256 53.966 136.153 53.562L135.908 53.6244C136.005 54.0064 136.054 54.4119 136.054 54.8415H136.307ZM136.153 53.5625C136.048 53.1412 135.851 52.7915 135.562 52.5188L135.389 52.7028C135.639 52.9386 135.813 53.2439 135.908 53.6239L136.153 53.5625ZM135.565 52.5214C135.273 52.2292 134.852 52.0843 134.323 52.0683L134.316 52.3211C134.804 52.3359 135.154 52.4683 135.386 52.7002L135.565 52.5214ZM134.326 52.0684C133.838 52.0444 133.397 52.1242 133.005 52.3118L133.114 52.5399C133.463 52.373 133.861 52.2987 134.313 52.321L134.326 52.0684ZM133.007 52.3109C132.622 52.4876 132.288 52.7329 132.006 53.0464L132.195 53.2153C132.453 52.9278 132.758 52.7031 133.112 52.5408L133.007 52.3109ZM132.006 53.0464C131.728 53.3568 131.497 53.7105 131.315 54.1067L131.545 54.2124C131.717 53.8381 131.934 53.5059 132.195 53.2153L132.006 53.0464ZM131.314 54.1086C131.141 54.5022 131.011 54.9115 130.925 55.3364L131.173 55.3868C131.256 54.9795 131.38 54.5874 131.546 54.2105L131.314 54.1086ZM130.924 55.3434L130.658 57.1696L130.908 57.206L131.174 55.3798L130.924 55.3434ZM130.657 57.18C130.625 57.6932 130.668 58.1952 130.787 58.6854L131.033 58.626C130.92 58.1607 130.879 57.6841 130.909 57.1956L130.657 57.18ZM130.788 58.6878C130.916 59.1783 131.151 59.592 131.492 59.9251L131.669 59.7441C131.363 59.4454 131.15 59.0732 131.032 58.6236L130.788 58.6878ZM131.493 59.9262C131.846 60.262 132.334 60.4305 132.941 60.4465L132.948 60.1937C132.383 60.1788 131.962 60.0237 131.668 59.7431L131.493 59.9262ZM132.939 60.4464C133.513 60.4703 134.006 60.3589 134.41 60.1033L134.275 59.8896C133.924 60.1117 133.485 60.216 132.949 60.1937L132.939 60.4464ZM134.412 60.1023C134.806 59.8446 135.125 59.5062 135.365 59.0887L135.146 58.9624C134.925 59.3463 134.634 59.6551 134.274 59.8906L134.412 60.1023ZM135.365 59.0894C135.61 58.671 135.799 58.2177 135.933 57.7298L135.689 57.6629C135.56 58.1305 135.38 58.5633 135.147 58.9617L135.365 59.0894ZM135.933 57.7298C136.065 57.2466 136.159 56.7782 136.214 56.3245L135.962 56.2942C135.909 56.7344 135.818 57.1906 135.689 57.6629L135.933 57.7298ZM141.808 56.4596L141.683 56.4417L141.682 56.449L141.808 56.4596ZM141.843 56.2169L141.968 56.2348L141.968 56.2301L141.843 56.2169ZM142.478 53.7319L142.362 53.6818L142.362 53.6824L142.478 53.7319ZM143.808 51.6514L143.715 51.5657L143.714 51.5663L143.808 51.6514ZM145.772 50.2529L145.823 50.3687L145.824 50.3684L145.772 50.2529ZM148.315 49.779L148.312 49.9054L148.313 49.9054L148.315 49.779ZM150.627 50.3338L150.566 50.4447L150.568 50.4456L150.627 50.3338ZM152.222 51.7439L152.118 51.8156L152.119 51.8171L152.222 51.7439ZM153.089 53.755L152.965 53.7815L152.965 53.783L153.089 53.755ZM153.228 56.1244L153.102 56.1128L153.102 56.113L153.228 56.1244ZM153.204 56.3787L153.33 56.3932L153.33 56.3902L153.204 56.3787ZM152.546 58.8522L152.661 58.9031L152.662 58.9027L152.546 58.8522ZM146.72 62.7473L146.723 62.6209L146.722 62.6208L146.72 62.7473ZM144.409 62.204L144.349 62.3155L144.349 62.3158L144.409 62.204ZM142.814 60.8171L142.71 60.8894L142.711 60.8909L142.814 60.8171ZM141.947 58.8175L141.823 58.8443L141.823 58.8455L141.947 58.8175ZM144.813 56.2169L144.688 56.202L144.687 56.2055L144.813 56.2169ZM144.79 56.4712L144.664 56.4597L144.664 56.4613L144.79 56.4712ZM144.767 57.731L144.641 57.7354L144.641 57.7376L144.767 57.731ZM145.668 59.9618L145.587 60.0583L145.588 60.0595L145.668 59.9618ZM146.882 60.3547L146.878 60.4811L146.879 60.4811L146.882 60.3547ZM148.292 60.0311L148.356 60.1401L148.357 60.1397L148.292 60.0311ZM149.286 59.0833L149.391 59.1535L149.392 59.1525L149.286 59.0833ZM150.222 56.3672L150.348 56.3821L150.348 56.3792L150.222 56.3672ZM150.246 56.1244L150.12 56.1121L150.12 56.1125L150.246 56.1244ZM150.026 53.5816L149.906 53.623L149.907 53.6237L150.026 53.5816ZM149.367 52.5992L149.284 52.6945L149.285 52.6957L149.367 52.5992ZM148.142 52.1831L148.137 52.3095L148.138 52.3095L148.142 52.1831ZM146.72 52.5183L146.654 52.4106L146.653 52.4112L146.72 52.5183ZM145.114 54.8184L144.993 54.7801L144.993 54.7813L145.114 54.8184ZM141.933 56.4775L141.968 56.2348L141.718 56.199L141.683 56.4418L141.933 56.4775ZM141.968 56.2301C142.06 55.3637 142.269 54.5476 142.595 53.7814L142.362 53.6824C142.026 54.4727 141.811 55.3133 141.717 56.2037L141.968 56.2301ZM142.595 53.782C142.928 53.0082 143.364 52.3267 143.901 51.7366L143.714 51.5663C143.157 52.1782 142.707 52.8837 142.362 53.6818L142.595 53.782ZM143.901 51.7372C144.443 51.1491 145.084 50.6931 145.823 50.3687L145.722 50.1371C144.951 50.4754 144.281 50.9517 143.715 51.5657L143.901 51.7372ZM145.824 50.3684C146.568 50.0379 147.396 49.8827 148.312 49.9054L148.318 49.6526C147.37 49.6291 146.503 49.7898 145.721 50.1373L145.824 50.3684ZM148.313 49.9054C149.191 49.9206 149.94 50.102 150.566 50.4447L150.688 50.2229C150.019 49.8567 149.228 49.6683 148.317 49.6526L148.313 49.9054ZM150.568 50.4456C151.205 50.7831 151.721 51.2396 152.118 51.8156L152.326 51.6722C151.906 51.0616 151.359 50.578 150.686 50.2221L150.568 50.4456ZM152.119 51.8171C152.524 52.3877 152.807 53.0419 152.965 53.7815L153.212 53.7285C153.047 52.9579 152.752 52.2713 152.325 51.6707L152.119 51.8171ZM152.965 53.783C153.132 54.5163 153.178 55.2927 153.102 56.1128L153.353 56.1361C153.432 55.2918 153.385 54.4886 153.212 53.7271L152.965 53.783ZM153.102 56.113L153.078 56.3673L153.33 56.3902L153.353 56.1359L153.102 56.113ZM153.079 56.3643C152.98 57.223 152.764 58.0353 152.43 58.8017L152.662 58.9027C153.006 58.1126 153.228 57.2759 153.33 56.3932L153.079 56.3643ZM152.43 58.8012C152.096 59.5592 151.657 60.2291 151.112 60.8116L151.297 60.9843C151.862 60.3802 152.317 59.6862 152.661 58.9031L152.43 58.8012ZM151.112 60.8116C150.57 61.3922 149.929 61.8446 149.189 62.1692L149.291 62.4007C150.061 62.0626 150.731 61.5904 151.297 60.9843L151.112 60.8116ZM149.189 62.1692C148.453 62.4922 147.632 62.6436 146.723 62.6209L146.717 62.8737C147.658 62.8972 148.517 62.7404 149.291 62.4007L149.189 62.1692ZM146.722 62.6208C145.852 62.6057 145.102 62.4281 144.468 62.0923L144.349 62.3158C145.025 62.6735 145.816 62.858 146.718 62.8737L146.722 62.6208ZM144.468 62.0926C143.838 61.7546 143.321 61.305 142.916 60.7432L142.711 60.8909C143.139 61.485 143.685 61.96 144.349 62.3155L144.468 62.0926ZM142.917 60.7447C142.519 60.1735 142.236 59.5222 142.07 58.7895L141.823 58.8455C141.996 59.6076 142.291 60.2894 142.71 60.8894L142.917 60.7447ZM142.07 58.7907C141.911 58.0565 141.866 57.2832 141.934 56.4702L141.682 56.449C141.612 57.285 141.658 58.0836 141.823 58.8443L142.07 58.7907ZM144.687 56.2055L144.664 56.4597L144.916 56.4826L144.939 56.2284L144.687 56.2055ZM144.664 56.4613C144.633 56.8596 144.625 57.2843 144.641 57.7354L144.893 57.7267C144.878 57.2839 144.886 56.8687 144.916 56.4811L144.664 56.4613ZM144.641 57.7376C144.664 58.1957 144.747 58.6277 144.89 59.033L145.129 58.9488C144.995 58.5681 144.916 58.1602 144.893 57.7245L144.641 57.7376ZM144.89 59.033C145.036 59.4458 145.268 59.7887 145.587 60.0583L145.75 59.8652C145.468 59.6263 145.261 59.3219 145.129 58.9488L144.89 59.033ZM145.588 60.0595C145.916 60.3286 146.35 60.4651 146.878 60.4811L146.886 60.2283C146.397 60.2135 146.022 60.0881 145.749 59.864L145.588 60.0595ZM146.879 60.4811C147.445 60.4971 147.939 60.3855 148.356 60.1401L148.228 59.9221C147.859 60.139 147.414 60.2432 146.886 60.2283L146.879 60.4811ZM148.357 60.1397C148.774 59.8911 149.119 59.5619 149.391 59.1535L149.181 59.0132C148.929 59.3907 148.612 59.6934 148.227 59.9225L148.357 60.1397ZM149.392 59.1525C149.66 58.742 149.873 58.2925 150.031 57.8045L149.79 57.7269C149.639 58.1944 149.436 58.6233 149.18 59.0141L149.392 59.1525ZM150.031 57.8045C150.187 57.3197 150.293 56.8455 150.348 56.3821L150.097 56.3523C150.044 56.798 149.942 57.2562 149.79 57.7269L150.031 57.8045ZM150.348 56.3792L150.371 56.1364L150.12 56.1125L150.097 56.3552L150.348 56.3792ZM150.371 56.1368C150.411 55.7367 150.418 55.3066 150.395 54.8466L150.142 54.8595C150.165 55.3088 150.157 55.7262 150.12 56.1121L150.371 56.1368ZM150.395 54.8466C150.371 54.381 150.288 53.945 150.145 53.5396L149.907 53.6237C150.041 54.0042 150.12 54.4159 150.142 54.8595L150.395 54.8466ZM150.145 53.5403C150 53.1199 149.768 52.7727 149.449 52.5027L149.285 52.6957C149.567 52.9342 149.775 53.2421 149.906 53.623L150.145 53.5403ZM149.45 52.5039C149.122 52.2176 148.682 52.0727 148.146 52.0567L148.138 52.3095C148.634 52.3243 149.011 52.4568 149.284 52.6945L149.45 52.5039ZM148.147 52.0568C147.579 52.0328 147.08 52.1488 146.654 52.4106L146.787 52.626C147.162 52.3947 147.61 52.2872 148.137 52.3094L148.147 52.0568ZM146.653 52.4112C146.244 52.6678 145.904 53.0045 145.632 53.42L145.844 53.5584C146.096 53.1725 146.41 52.862 146.787 52.6254L146.653 52.4112ZM145.632 53.42C145.363 53.8309 145.151 54.2844 144.993 54.7801L145.234 54.8566C145.385 54.3814 145.588 53.9489 145.844 53.5584L145.632 53.42ZM144.993 54.7813C144.844 55.2656 144.743 55.7392 144.688 56.202L144.939 56.2318C144.992 55.7853 145.09 55.3266 145.235 54.8554L144.993 54.7813ZM159.421 50.0102L159.539 49.9646L159.508 49.8837H159.421V50.0102ZM160.947 53.9631L160.829 54.0086L160.914 54.2276L161.05 54.0365L160.947 53.9631ZM163.767 50.0102V49.8837H163.702L163.664 49.9367L163.767 50.0102ZM167.154 50.0102L167.256 50.0853L167.404 49.8837H167.154V50.0102ZM162.531 56.2747L162.429 56.1996L162.386 56.2578L162.414 56.3243L162.531 56.2747ZM165.189 62.5161V62.6426H165.38L165.305 62.4666L165.189 62.5161ZM162.114 62.5161L161.997 62.5634L162.029 62.6426H162.114V62.5161ZM160.439 58.3552L160.556 58.3079L160.469 58.0935L160.336 58.2819L160.439 58.3552ZM157.48 62.5161V62.6426H157.545L157.583 62.5894L157.48 62.5161ZM154.093 62.5161L153.991 62.4412L153.843 62.6426H154.093V62.5161ZM158.89 55.9973L158.992 56.0722L159.034 56.0142L159.006 55.9479L158.89 55.9973ZM156.347 50.0102V49.8837H156.156L156.231 50.0596L156.347 50.0102ZM159.303 50.0557L160.829 54.0086L161.065 53.9175L159.539 49.9646L159.303 50.0557ZM161.05 54.0365L163.87 50.0836L163.664 49.9367L160.844 53.8896L161.05 54.0365ZM163.767 50.1366H167.154V49.8837H163.767V50.1366ZM167.052 49.9351L162.429 56.1996L162.632 56.3498L167.256 50.0853L167.052 49.9351ZM162.414 56.3243L165.073 62.5657L165.305 62.4666L162.647 56.2252L162.414 56.3243ZM165.189 62.3897H162.114V62.6426H165.189V62.3897ZM162.232 62.4689L160.556 58.3079L160.321 58.4024L161.997 62.5634L162.232 62.4689ZM160.336 58.2819L157.377 62.4428L157.583 62.5894L160.542 58.4285L160.336 58.2819ZM157.48 62.3897H154.093V62.6426H157.48V62.3897ZM154.195 62.5911L158.992 56.0722L158.788 55.9224L153.991 62.4412L154.195 62.5911ZM159.006 55.9479L156.463 49.9607L156.231 50.0596L158.773 56.0467L159.006 55.9479ZM156.347 50.1366H159.421V49.8837H156.347V50.1366ZM168.204 61.0713H168.331L168.331 61.0693L168.204 61.0713ZM169.915 59.3723V59.4988L169.917 59.4987L169.915 59.3723ZM171.105 59.8115L171.019 59.9042L171.022 59.9063L171.105 59.8115ZM171.614 60.9673L171.74 60.9653V60.9653L171.614 60.9673ZM171.117 62.1809L171.031 62.0884L171.03 62.0894L171.117 62.1809ZM169.903 62.6548V62.5283L169.901 62.5284L169.903 62.6548ZM168.701 62.2272L168.618 62.3219L168.619 62.3229L168.701 62.2272ZM168.331 61.0693C168.324 60.6168 168.473 60.2463 168.778 59.9482L168.601 59.7673C168.244 60.1165 168.07 60.555 168.078 61.0733L168.331 61.0693ZM168.778 59.9482C169.085 59.6488 169.461 59.4987 169.915 59.4987V59.2458C169.398 59.2458 168.958 59.4194 168.601 59.7673L168.778 59.9482ZM169.917 59.4987C170.357 59.4915 170.721 59.6274 171.019 59.9042L171.192 59.7188C170.842 59.3946 170.413 59.2377 169.913 59.2459L169.917 59.4987ZM171.022 59.9063C171.324 60.1735 171.48 60.5239 171.488 60.9694L171.74 60.9653C171.732 60.4552 171.55 60.0351 171.189 59.7168L171.022 59.9063ZM171.488 60.9693C171.495 61.4293 171.342 61.7986 171.031 62.0884L171.203 62.2734C171.57 61.9314 171.749 61.4917 171.74 60.9653L171.488 60.9693ZM171.03 62.0894C170.723 62.3819 170.35 62.5284 169.903 62.5284V62.7813C170.412 62.7813 170.848 62.6118 171.204 62.2724L171.03 62.0894ZM169.901 62.5284C169.469 62.5356 169.099 62.4032 168.784 62.1315L168.619 62.3229C168.982 62.6367 169.413 62.7894 169.906 62.7812L169.901 62.5284ZM168.785 62.1324C168.483 61.8657 168.331 61.5161 168.331 61.0713H168.078C168.078 61.582 168.257 62.003 168.618 62.3219L168.785 62.1324ZM183.356 50.0102L183.48 50.0318L183.506 49.8837H183.356V50.0102ZM182.974 52.2062V52.3327H183.081L183.099 52.2279L182.974 52.2062ZM176.005 52.2062L175.88 52.1846L175.855 52.3327H176.005V52.2062ZM176.386 50.0102V49.8837H176.28L176.262 49.9885L176.386 50.0102ZM178.779 46.9357V46.8093H178.672L178.654 46.9147L178.779 46.9357ZM181.761 46.9357L181.886 46.957L181.911 46.8093H181.761V46.9357ZM179.715 58.9331L179.59 58.9118L179.589 58.9187L179.715 58.9331ZM179.715 59.6266L179.59 59.6466L179.591 59.6514L179.715 59.6266ZM179.981 60.0773L179.903 60.1772L179.906 60.1791L179.981 60.0773ZM180.64 60.2507L180.646 60.1244L180.643 60.1243L180.64 60.2507ZM181.125 60.2276L181.108 60.1023L181.107 60.1024L181.125 60.2276ZM181.622 60.1698L181.748 60.1811L181.762 60.0295L181.61 60.0439L181.622 60.1698ZM181.414 62.4814L181.449 62.6029L181.532 62.5789L181.54 62.4928L181.414 62.4814ZM180.524 62.6664L180.508 62.5409L180.505 62.5414L180.524 62.6664ZM179.611 62.7357L179.608 62.8622H179.611V62.7357ZM177.854 62.2503L177.782 62.3544L177.783 62.3549L177.854 62.2503ZM176.906 60.9904L176.787 61.0314L176.787 61.032L176.906 60.9904ZM176.722 59.1527L176.596 59.1316L176.596 59.1414L176.722 59.1527ZM183.231 49.9885L182.85 52.1846L183.099 52.2279L183.48 50.0318L183.231 49.9885ZM182.974 52.0798H176.005V52.3327H182.974V52.0798ZM176.129 52.2279L176.511 50.0318L176.262 49.9885L175.88 52.1846L176.129 52.2279ZM176.386 50.1366H183.356V49.8837H176.386V50.1366ZM178.779 47.0622H181.761V46.8093H178.779V47.0622ZM181.636 46.9144L179.59 58.9118L179.84 58.9543L181.886 46.957L181.636 46.9144ZM179.589 58.9187C179.558 59.1957 179.557 59.4391 179.59 59.6465L179.84 59.6066C179.811 59.4288 179.811 59.2098 179.841 58.9474L179.589 58.9187ZM179.591 59.6514C179.635 59.87 179.738 60.0484 179.903 60.1772L180.059 59.9775C179.947 59.8905 179.872 59.7684 179.839 59.6018L179.591 59.6514ZM179.906 60.1791C180.082 60.3091 180.332 60.3691 180.636 60.3771L180.643 60.1243C180.362 60.1169 180.172 60.0613 180.056 59.9755L179.906 60.1791ZM180.634 60.377C180.804 60.3851 180.973 60.377 181.143 60.3528L181.107 60.1024C180.953 60.1244 180.8 60.1317 180.646 60.1244L180.634 60.377ZM181.142 60.3529C181.31 60.33 181.474 60.3109 181.634 60.2957L181.61 60.0439C181.447 60.0595 181.279 60.079 181.108 60.1023L181.142 60.3529ZM181.496 60.1585L181.288 62.4701L181.54 62.4928L181.748 60.1811L181.496 60.1585ZM181.379 62.36C181.092 62.4429 180.802 62.5033 180.508 62.5409L180.54 62.7918C180.847 62.7524 181.15 62.6895 181.449 62.6029L181.379 62.36ZM180.505 62.5414C180.211 62.5866 179.913 62.6093 179.611 62.6093V62.8622C179.926 62.8622 180.236 62.8386 180.543 62.7913L180.505 62.5414ZM179.614 62.6093C178.914 62.5943 178.354 62.4366 177.925 62.1456L177.783 62.3549C178.263 62.6804 178.875 62.8464 179.608 62.8621L179.614 62.6093ZM177.926 62.1462C177.502 61.8538 177.202 61.4562 177.026 60.9489L176.787 61.032C176.98 61.588 177.313 62.0303 177.782 62.3544L177.926 62.1462ZM177.026 60.9494C176.848 60.43 176.787 59.8357 176.847 59.164L176.596 59.1414C176.533 59.8412 176.595 60.4721 176.787 61.0314L177.026 60.9494ZM176.846 59.1737L178.904 46.9567L178.654 46.9147L176.597 59.1317L176.846 59.1737ZM188.764 60.0658L188.648 60.0154L188.643 60.0273L188.64 60.0401L188.764 60.0658ZM193.133 50.0102V49.8837H193.05L193.017 49.9598L193.133 50.0102ZM196.334 50.0102L196.448 50.0658L196.537 49.8837H196.334V50.0102ZM190.209 62.5161V62.6426H190.288L190.322 62.5717L190.209 62.5161ZM188.255 62.5161L188.132 62.4904L188.1 62.6426H188.255V62.5161ZM188.255 50.0102L188.381 49.9946L188.367 49.8837H188.255V50.0102ZM189.538 60.3779L189.664 60.3921L189.666 60.3772L189.664 60.3623L189.538 60.3779ZM189.296 62.5161V62.6426H189.408L189.421 62.5304L189.296 62.5161ZM187.446 62.5161L187.322 62.5383L187.34 62.6426H187.446V62.5161ZM185.216 50.0102V49.8837H185.065L185.091 50.0324L185.216 50.0102ZM188.88 60.1162L193.249 50.0606L193.017 49.9598L188.648 60.0154L188.88 60.1162ZM193.133 50.1366H196.334V49.8837H193.133V50.1366ZM196.221 49.9546L190.095 62.4605L190.322 62.5717L196.448 50.0658L196.221 49.9546ZM190.209 62.3897H188.255V62.6426H190.209V62.3897ZM188.379 62.5418L188.888 60.0915L188.64 60.0401L188.132 62.4904L188.379 62.5418ZM188.13 50.0257L189.413 60.3934L189.664 60.3623L188.381 49.9946L188.13 50.0257ZM189.413 60.3636L189.17 62.5019L189.421 62.5304L189.664 60.3921L189.413 60.3636ZM189.296 62.3897H187.446V62.6426H189.296V62.3897ZM187.571 62.4939L185.34 49.988L185.091 50.0324L187.322 62.5383L187.571 62.4939ZM185.216 50.1366H188.255V49.8837H185.216V50.1366Z" fill="white" mask="url(#path-22-outside-1_7203_1865)"/>
<path d="M155.617 13.8268C155.617 12.4476 156.735 11.3296 158.114 11.3296H192.193C193.572 11.3296 194.69 12.4476 194.69 13.8268V19.3809C194.69 26.3124 189.071 31.9315 182.139 31.9315H158.114C156.735 31.9315 155.617 30.8135 155.617 29.4343V13.8268Z" fill="url(#paint1_linear_7203_1865)"/>
<path d="M168.425 17.4138L169.509 25.4839H167.057L166.771 23.2881H163.349L162.394 25.4839H160.07L163.221 17.813L162.808 17.4138H168.425ZM165.274 18.7826L163.906 21.9194H166.643L166.23 18.7826H165.274ZM179.633 17.4138L179.091 21.791C179.015 22.0667 178.863 22.2948 178.635 22.4754C178.416 22.656 178.202 22.7463 177.993 22.7463H173.202L172.789 25.4839H170.194L171.149 17.813L170.736 17.4138H179.633ZM173.759 18.7826L173.473 21.3775H176.354L176.767 18.7826H173.759ZM189.714 17.4138L189.173 21.791C189.096 22.0667 188.944 22.2948 188.716 22.4754C188.498 22.656 188.284 22.7463 188.075 22.7463H183.284L182.87 25.4839H180.275L181.231 17.813L180.817 17.4138H189.714ZM183.84 18.7826L183.555 21.3775H186.435L186.848 18.7826H183.84Z" fill="white"/>
</g>
<defs>
<filter id="filter0_d_7203_1865" x="0.643226" y="0" width="206.889" height="73.4401" filterUnits="userSpaceOnUse" color-interpolation-filters="sRGB">
<feFlood flood-opacity="0" result="BackgroundImageFix"/>
<feColorMatrix in="SourceAlpha" type="matrix" values="0 0 0 0 0 0 0 0 0 0 0 0 0 0 0 0 0 0 127 0" result="hardAlpha"/>
<feOffset dy="2.72006"/>
<feGaussianBlur stdDeviation="1.36003"/>
<feComposite in2="hardAlpha" operator="out"/>
<feColorMatrix type="matrix" values="0 0 0 0 0 0 0 0 0 0 0 0 0 0 0 0 0 0 0.25 0"/>
<feBlend mode="normal" in2="BackgroundImageFix" result="effect1_dropShadow_7203_1865"/>
<feBlend mode="normal" in="SourceGraphic" in2="effect1_dropShadow_7203_1865" result="shape"/>
</filter>
<linearGradient id="paint0_linear_7203_1865" x1="31.1933" y1="0.724171" x2="57.9191" y2="57.6709" gradientUnits="userSpaceOnUse">
<stop stop-color="#FFB3E0"/>
<stop offset="1" stop-color="#CD3EFF"/>
</linearGradient>
<linearGradient id="paint1_linear_7203_1865" x1="170.154" y1="10.3715" x2="175.578" y2="32.9133" gradientUnits="userSpaceOnUse">
<stop stop-color="#FF70C6"/>
<stop offset="1" stop-color="#A506DD"/>
</linearGradient>
</defs>
</svg>
