<svg width="119" height="45" viewBox="0 0 119 45" fill="none" xmlns="http://www.w3.org/2000/svg">
<path fill-rule="evenodd" clip-rule="evenodd" d="M7.40322 14.5984H48.4417C48.3476 14.3319 48.2484 14.0679 48.1443 13.8064C48.7905 13.7417 49.4357 13.7093 50.0761 13.7093C51.437 13.7093 52.5436 12.6202 52.5717 11.2661V11.1603C52.5704 11.097 52.5667 11.0342 52.5608 10.9722H3.90992C3.90232 11.0515 3.89844 11.1319 3.89844 11.2132C3.89844 12.5917 5.01599 13.7093 6.39457 13.7093C6.8349 13.7093 7.2775 13.7246 7.72114 13.7552C7.60954 14.0335 7.50352 14.3146 7.40322 14.5984Z" fill="white"/>
<path fill-rule="evenodd" clip-rule="evenodd" d="M6.46877 25.4675H49.3814C49.5792 24.2883 49.6822 23.0769 49.6822 21.8415C49.6822 21.8414 49.6822 21.8414 49.6822 21.8413H6.16797C6.16797 21.8414 6.16797 21.8414 6.16797 21.8415C6.16797 23.0769 6.27094 24.2883 6.46877 25.4675Z" fill="white"/>
<path fill-rule="evenodd" clip-rule="evenodd" d="M11.7084 36.3525H44.137C45.1324 35.2408 46.0151 34.0261 46.7673 32.7263H9.07812C9.83027 34.0261 10.713 35.2408 11.7084 36.3525Z" fill="white"/>
<path fill-rule="evenodd" clip-rule="evenodd" d="M49.0463 21.8345V21.8373H5.54379C5.544 23.0728 5.64719 24.2842 5.84524 25.4635H48.745C47.0175 35.7522 38.0688 43.5916 27.2892 43.5916C20.847 43.5916 15.0588 40.7917 11.075 36.3425H42.3608C43.3563 35.2308 44.2392 34.0161 44.9914 32.7163H8.44467C6.5923 29.5154 5.53207 25.7988 5.53207 21.8345C5.53207 18.9772 6.08286 16.2485 7.08406 13.7489L7.08655 13.7491C6.9752 14.0267 6.86941 14.3071 6.7693 14.5903H47.8064C47.7125 14.3246 47.6135 14.0612 47.5097 13.8004L47.5146 13.7999C48.5029 16.2856 49.0463 18.9966 49.0463 21.8345ZM51.9278 11.4408C51.935 11.3639 51.9386 11.2859 51.9386 11.2071C51.9386 11.1251 51.9347 11.0441 51.927 10.9641H3.27648C3.39458 9.6954 4.46219 8.70227 5.76176 8.70227C7.05811 8.70227 8.3775 8.81158 9.69748 9.02942C13.6539 3.60337 20.0598 0.0773926 27.2892 0.0773926C34.5621 0.0773926 41.0015 3.64591 44.952 9.12753C46.4569 8.8444 47.9651 8.70227 49.4433 8.70227C50.8219 8.70227 51.9395 9.81983 51.9395 11.1984C51.9395 11.2802 51.9355 11.3611 51.9278 11.4408ZM3.26596 11.1573C3.26574 11.171 3.26562 11.1847 3.26562 11.1984C3.26562 11.2121 3.26574 11.2258 3.26596 11.2395V11.1573Z" fill="white"/>
<path fill-rule="evenodd" clip-rule="evenodd" d="M5.09934 14.5984H46.1378C46.0437 14.3319 45.9445 14.0678 45.8403 13.8063C46.4861 13.7417 47.1308 13.7093 47.7708 13.7093C49.1494 13.7093 50.2669 12.5917 50.2669 11.2132C50.2669 11.1319 50.263 11.0515 50.2554 10.9722H1.60457C1.60175 11.0016 1.59944 11.0312 1.59766 11.0609V11.3654C1.67634 12.6731 2.76177 13.7093 4.08922 13.7093C4.53002 13.7093 4.9731 13.7247 5.41721 13.7553C5.30563 14.0335 5.19962 14.3146 5.09934 14.5984Z" fill="white"/>
<path fill-rule="evenodd" clip-rule="evenodd" d="M4.16017 25.4675H47.0728C47.2706 24.2883 47.3736 23.0769 47.3736 21.8415C47.3736 21.8414 47.3736 21.8414 47.3736 21.8413H3.85938C3.85938 21.8414 3.85938 21.8414 3.85938 21.8415C3.85938 23.0769 3.96235 24.2883 4.16017 25.4675Z" fill="white"/>
<path fill-rule="evenodd" clip-rule="evenodd" d="M9.40375 36.3523H41.8323C42.8277 35.2405 43.7104 34.0258 44.4626 32.7261H6.77344C7.52559 34.0258 8.40834 35.2405 9.40375 36.3523Z" fill="white"/>
<path fill-rule="evenodd" clip-rule="evenodd" d="M3.24378 21.8431H46.7458C46.7453 19.0051 46.2014 16.2941 45.2125 13.8084L45.2071 13.8089C45.3113 14.0705 45.4105 14.3346 45.5047 14.601H4.4674C3.66704 16.8677 3.23158 19.3066 3.23158 21.8472C3.23158 33.8633 12.9726 43.6043 24.9887 43.6043C31.4327 43.6043 37.2224 40.8028 41.2063 36.3513H8.77925C7.78395 35.2395 6.90129 34.0248 6.14924 32.7251H43.8354C45.11 30.5216 46.0092 28.0739 46.4456 25.4693H3.54557C3.3474 24.2901 3.2441 23.0786 3.24378 21.8431ZM48.9104 12.973C49.3576 12.522 49.6337 11.9012 49.6337 11.2159C49.6337 11.1346 49.6299 11.0542 49.6223 10.9749H0.976562C1.09512 9.70661 2.16252 8.71399 3.46175 8.71399C4.75817 8.71399 6.07763 8.82331 7.39767 9.04117C11.3542 3.61566 17.7597 0.0900879 24.9887 0.0900879C32.2612 0.0900879 38.7004 3.65827 42.6509 9.13945C44.1562 8.85619 45.6647 8.71399 47.1433 8.71399C48.5219 8.71399 49.6395 9.83154 49.6395 11.2101C49.6395 11.8983 49.3609 12.5215 48.9104 12.973Z" fill="white"/>
<path fill-rule="evenodd" clip-rule="evenodd" d="M7.40322 14.5984H48.4417C48.3476 14.3319 48.2484 14.0679 48.1443 13.8064C48.7905 13.7417 49.4357 13.7093 50.0761 13.7093C51.437 13.7093 52.5436 12.6202 52.5717 11.2661V11.1603C52.5704 11.097 52.5667 11.0342 52.5608 10.9722H3.90992C3.90232 11.0515 3.89844 11.1319 3.89844 11.2132C3.89844 12.5917 5.01599 13.7093 6.39457 13.7093C6.8349 13.7093 7.2775 13.7246 7.72114 13.7552C7.60954 14.0335 7.50352 14.3146 7.40322 14.5984Z" fill="#FE0144" style="mix-blend-mode:multiply"/>
<path fill-rule="evenodd" clip-rule="evenodd" d="M6.46877 25.4675H49.3814C49.5792 24.2883 49.6822 23.0769 49.6822 21.8415C49.6822 21.8414 49.6822 21.8414 49.6822 21.8413H6.16797C6.16797 21.8414 6.16797 21.8414 6.16797 21.8415C6.16797 23.0769 6.27094 24.2883 6.46877 25.4675Z" fill="#FE0144" style="mix-blend-mode:multiply"/>
<path fill-rule="evenodd" clip-rule="evenodd" d="M11.7084 36.3523H44.137C45.1324 35.2405 46.0151 34.0258 46.7673 32.7261H9.07812C9.83027 34.0258 10.713 35.2405 11.7084 36.3523Z" fill="#FE0144" style="mix-blend-mode:multiply"/>
<path fill-rule="evenodd" clip-rule="evenodd" d="M49.0472 21.8347V21.8374H5.54141C5.54162 23.0729 5.64481 24.2843 5.84286 25.4636H48.7459C47.0184 35.7523 38.0698 43.5918 27.2901 43.5918C20.8478 43.5918 15.0595 40.7919 11.0757 36.3425H42.3654C43.3609 35.2308 44.2438 34.0161 44.996 32.7163H8.44541C6.59312 29.5154 5.53295 25.7989 5.53295 21.8347C5.53295 18.9775 6.0837 16.249 7.08483 13.7494L7.08541 13.7495C6.97407 14.0271 6.86828 14.3075 6.76819 14.5907H47.8054C47.7114 14.3248 47.6124 14.0614 47.5085 13.8004L47.5153 13.7997C48.5038 16.2856 49.0472 18.9967 49.0472 21.8347ZM51.582 12.488C51.8062 12.1136 51.9351 11.6755 51.9351 11.2073C51.9351 11.1254 51.9312 11.0444 51.9235 10.9645H3.27734C3.39539 9.69571 4.46303 8.70251 5.76263 8.70251C7.05899 8.70251 8.37838 8.81182 9.69836 9.02966C13.6548 3.60361 20.0606 0.0776367 27.2901 0.0776367C34.5629 0.0776367 41.0023 3.64615 44.9529 9.12778C46.4577 8.84465 47.9659 8.70251 49.4442 8.70251C50.8228 8.70251 51.9403 9.82007 51.9403 11.1986C51.9403 11.6705 51.8094 12.1117 51.582 12.488Z" fill="#FE0144" style="mix-blend-mode:multiply"/>
<path fill-rule="evenodd" clip-rule="evenodd" d="M5.09934 14.5984H46.1378C46.0437 14.3319 45.9445 14.0678 45.8403 13.8063C46.4861 13.7417 47.1308 13.7093 47.7708 13.7093C49.1494 13.7093 50.2669 12.5917 50.2669 11.2132C50.2669 11.1319 50.263 11.0515 50.2554 10.9722H1.60457C1.60175 11.0016 1.59944 11.0312 1.59766 11.0609V11.3654C1.67634 12.6731 2.76177 13.7093 4.08922 13.7093C4.53002 13.7093 4.9731 13.7247 5.41721 13.7553C5.30563 14.0335 5.19962 14.3146 5.09934 14.5984Z" fill="#4DE5FF" style="mix-blend-mode:multiply"/>
<path fill-rule="evenodd" clip-rule="evenodd" d="M4.16017 25.4675H47.0728C47.2706 24.2883 47.3736 23.0769 47.3736 21.8415C47.3736 21.8414 47.3736 21.8414 47.3736 21.8413H3.85938C3.85938 21.8414 3.85938 21.8414 3.85938 21.8415C3.85938 23.0769 3.96235 24.2883 4.16017 25.4675Z" fill="#4DE5FF" style="mix-blend-mode:multiply"/>
<path fill-rule="evenodd" clip-rule="evenodd" d="M9.40766 36.3523H41.8362C42.8316 35.2405 43.7143 34.0258 44.4665 32.7261H6.77734C7.52949 34.0258 8.41225 35.2405 9.40766 36.3523Z" fill="#4DE5FF" style="mix-blend-mode:multiply"/>
<path fill-rule="evenodd" clip-rule="evenodd" d="M3.62031 25.4655H46.3005C44.6988 36.0023 35.7544 44.0681 24.9604 44.0681C14.1664 44.0681 5.22207 36.0023 3.62031 25.4655ZM3.36616 21.8394H46.5547C46.5287 19.2971 46.0793 16.8581 45.2748 14.5922H4.64599C3.84153 16.8581 3.39211 19.2971 3.36616 21.8394ZM49.0435 12.8192C49.4152 12.3834 49.6395 11.8181 49.6395 11.2004C49.6395 9.82178 48.522 8.70422 47.1434 8.70422C45.5992 8.70422 44.0222 8.85933 42.4505 9.16825C38.5259 3.65966 32.1539 0.0773926 24.9604 0.0773926C17.8155 0.0773926 11.481 3.61149 7.55006 9.05702C6.17924 8.82211 4.80812 8.70422 3.46184 8.70422C2.16227 8.70422 1.09467 9.69735 0.976562 10.9661H49.6223C49.6299 11.0454 49.6338 11.1258 49.6338 11.2071C49.6338 11.8216 49.4118 12.3843 49.0435 12.8192ZM41.2122 36.3425H8.78549C7.78996 35.2308 6.9071 34.0161 6.15486 32.7163H43.8429C43.0906 34.0161 42.2078 35.2308 41.2122 36.3425Z" fill="#4DE5FF" style="mix-blend-mode:multiply"/>
<ellipse cx="26.4224" cy="21.7447" rx="21.0474" ry="21.6471" fill="url(#paint0_linear_7205_6252)"/>
<path fill-rule="evenodd" clip-rule="evenodd" d="M5.5983 8.68164C4.26469 8.68164 3.18359 9.79354 3.18359 11.1651C3.18359 12.5367 4.26469 13.6487 5.5983 13.6487C14.4527 13.6487 24.2574 20.2403 24.2574 32.8394C24.2574 34.211 25.3385 35.3229 26.6721 35.3229C26.69 35.3229 26.708 35.3227 26.7258 35.3223C26.7437 35.3227 26.7616 35.3229 26.7796 35.3229C28.1132 35.3229 29.1943 34.211 29.1943 32.8394C29.1943 20.2403 38.9989 13.6487 47.8534 13.6487C49.187 13.6487 50.2681 12.5367 50.2681 11.1651C50.2681 9.79354 49.187 8.68164 47.8534 8.68164C39.8241 8.68164 30.8814 13.1397 26.7258 21.8562C22.5702 13.1397 13.6276 8.68164 5.5983 8.68164Z" fill="white"/>
<path d="M67.5608 26.2448L67.6888 25.1888H60.3928L60.8088 22.2768H68.1048L68.2648 21.1568L60.1688 21.3808L60.5848 18.4368L84.9048 17.7328L84.4888 20.6448L74.7928 20.9648L74.6008 22.2768H83.7528L83.3368 25.1888H74.1848L74.0248 26.2448H85.0968L84.6808 29.2528H73.6088L73.4168 30.6608H82.5048L83.9128 29.4128L83.3048 33.7648H66.5048L67.1448 29.2528H57.9928L58.4088 26.2448H67.5608ZM80.3928 12.1968H87.0168L86.6328 14.9168H83.5608L84.5208 16.9648H79.6568L78.7928 15.1408L77.8328 16.9648H72.3608L75.1448 11.7808L74.4408 10.8208H81.1288L80.3928 12.1968ZM67.6248 12.1968H73.6408L73.2568 14.9168H70.8248L71.7528 16.9648H66.8888L66.0568 15.1408L65.0648 16.9648H59.5928L62.3768 11.7808L61.6728 10.8208H68.3608L67.6248 12.1968ZM89.3503 30.9168L90.1503 25.2848H114.278L113.478 30.9168H114.758L114.438 33.2528H87.7503L88.0703 30.9168H89.3503ZM110.214 17.2848L109.894 16.1008L109.734 17.4448H96.3903L96.5503 16.2608L95.9423 17.2848H90.4703L94.1183 11.8448L93.3823 10.7888H113.926L116.134 17.2848H110.214ZM114.566 18.4688L113.702 24.4208H91.1103L91.9743 18.4688H114.566ZM97.2543 15.0768H109.638L109.382 13.9888H97.8943L97.2543 15.0768ZM107.59 22.1168L107.75 20.9328H97.3503L97.1903 22.1168H107.59ZM107.302 27.7808L106.886 30.9168H108.358L108.806 27.7808H107.302ZM100.838 30.9168H102.31L102.726 27.7808H101.254L100.838 30.9168ZM94.7903 30.9168H96.2623L96.6783 27.7808H95.2383L94.7903 30.9168Z" fill="white"/>
<defs>
<linearGradient id="paint0_linear_7205_6252" x1="21.0362" y1="-1.91578" x2="40.3098" y2="39.1519" gradientUnits="userSpaceOnUse">
<stop stop-color="#FFB3E0"/>
<stop offset="1" stop-color="#CD3EFF"/>
</linearGradient>
</defs>
</svg>
