<svg width="88" height="114" viewBox="0 0 88 114" fill="none" xmlns="http://www.w3.org/2000/svg">
<path d="M25.3594 23.7031H63.3281C63.8876 23.7031 64.4241 23.9254 64.8197 24.3209C65.2153 24.7165 65.4375 25.2531 65.4375 25.8125V59.5625C65.4375 60.1219 65.2153 60.6585 64.8197 61.0541C64.4241 61.4496 63.8876 61.6719 63.3281 61.6719H25.3594C24.7999 61.6719 24.2634 61.4496 23.8678 61.0541C23.4722 60.6585 23.25 60.1219 23.25 59.5625V25.8125C23.25 25.2531 23.4722 24.7165 23.8678 24.3209C24.2634 23.9254 24.7999 23.7031 25.3594 23.7031ZM61.2188 46.9062H54.0131C53.1924 48.7881 51.8403 50.3896 50.1228 51.5143C48.4052 52.639 46.3968 53.2381 44.3438 53.2381C42.2907 53.2381 40.2823 52.639 38.5647 51.5143C36.8472 50.3896 35.4951 48.7881 34.6744 46.9062H27.4688V57.4531H61.2188V46.9062ZM61.2188 42.6875V27.9219H27.4688V42.6875H38.0156C38.0156 44.3658 38.6823 45.9754 39.8691 47.1622C41.0558 48.3489 42.6654 49.0156 44.3438 49.0156C46.0221 49.0156 47.6317 48.3489 48.8184 47.1622C50.0052 45.9754 50.6719 44.3658 50.6719 42.6875H61.2188Z" fill="white" fill-opacity="0.4"/>
<path d="M55.1252 9.89232L56.6442 16.5088" stroke="#F54100" stroke-width="4.6875" stroke-linecap="round" stroke-linejoin="round"/>
<line x1="72.1884" y1="11.2488" x2="68.8145" y2="16.3335" stroke="#F54100" stroke-width="4.6875" stroke-linecap="round" stroke-linejoin="round"/>
<path d="M79.9689 26.7501L74.0668 28.0344" stroke="#F54100" stroke-width="4.6875" stroke-linecap="round" stroke-linejoin="round"/>
<path d="M8.04078 100.082C7.86345 99.466 7.67211 98.8967 7.46678 98.374L8.36278 98.234C8.47478 98.5047 8.57278 98.7893 8.65678 99.088C8.75012 99.3867 8.83878 99.718 8.92278 100.082H12.0868V100.922H10.9808C10.6261 102.303 10.1174 103.489 9.45478 104.478C9.94011 104.898 10.3974 105.318 10.8268 105.738C11.2654 106.149 11.6854 106.564 12.0868 106.984L11.4008 107.67C11.0368 107.259 10.6541 106.853 10.2528 106.452C9.85145 106.041 9.41278 105.621 8.93678 105.192C7.96612 106.349 6.72945 107.194 5.22678 107.726L4.70878 106.928C6.16478 106.461 7.35478 105.687 8.27878 104.604C7.84011 104.231 7.38745 103.857 6.92078 103.484C6.45411 103.101 5.96411 102.719 5.45078 102.336L6.05278 101.734C6.54745 102.098 7.02345 102.462 7.48078 102.826C7.94745 103.181 8.38611 103.535 8.79678 103.89C9.08611 103.47 9.33811 103.017 9.55278 102.532C9.76745 102.037 9.94945 101.501 10.0988 100.922H4.98878V100.082H8.04078ZM2.11878 98.43C2.53878 98.7567 2.92611 99.0787 3.28078 99.396C3.63545 99.704 3.95745 100.021 4.24678 100.348L3.60278 100.964C3.35078 100.656 3.04745 100.343 2.69278 100.026C2.34745 99.6993 1.95545 99.368 1.51678 99.032L2.11878 98.43ZM9.34278 109.42C9.01612 109.42 8.67078 109.415 8.30678 109.406C7.94278 109.397 7.56012 109.387 7.15878 109.378C6.76678 109.369 6.41211 109.345 6.09478 109.308C5.77745 109.28 5.49278 109.229 5.24078 109.154C4.78345 109.014 4.34945 108.711 3.93878 108.244C3.78011 108.039 3.62145 107.936 3.46278 107.936C3.16411 107.936 2.67878 108.505 2.00678 109.644L1.33478 109.056C2.00678 107.992 2.59011 107.357 3.08478 107.152V103.372H1.30678V102.56H3.91078V107.194C3.96678 107.231 4.01811 107.273 4.06478 107.32C4.11145 107.367 4.16278 107.418 4.21878 107.474C4.48945 107.829 4.80678 108.09 5.17078 108.258C5.53478 108.426 6.08078 108.529 6.80878 108.566C7.14478 108.575 7.51345 108.58 7.91478 108.58C8.31611 108.58 8.75478 108.58 9.23078 108.58C9.52011 108.58 9.80945 108.58 10.0988 108.58C10.3881 108.58 10.6914 108.575 11.0088 108.566C11.6154 108.557 12.0821 108.538 12.4088 108.51L12.1988 109.42H9.34278ZM15.6808 102.014V103.68H18.7188V102.014H15.6808ZM18.7188 104.492H14.8128V98.71H23.5068V104.492H19.6288V105.934H24.1228V106.802H19.6288V108.342H24.6268V109.182H13.7068V108.342H18.7188V106.802H14.2248V105.934H18.7188V104.492ZM19.6288 103.68H22.6248V102.014H19.6288V103.68ZM22.6248 101.202V99.522H19.6288V101.202H22.6248ZM18.7188 99.522H15.6808V101.202H18.7188V99.522ZM27.5629 102.574C27.3389 102.882 27.1009 103.185 26.8489 103.484C26.5969 103.783 26.3309 104.077 26.0509 104.366L25.7569 103.442C27.1289 101.902 28.1136 100.157 28.7109 98.206L29.5369 98.598C29.3969 99.0553 29.2336 99.494 29.0469 99.914C28.8602 100.334 28.6549 100.74 28.4309 101.132V109.644H27.5629V102.574ZM33.6949 98.248V102.336H37.2229V103.232H33.6949V109.63H32.7849V103.232H29.4249V102.336H32.7849V98.248H33.6949ZM46.627 104.198C47.1403 104.973 47.6163 105.766 48.055 106.578C48.503 107.39 48.9183 108.23 49.301 109.098L48.405 109.476C48.3303 109.261 48.2416 109.056 48.139 108.86C48.0456 108.655 47.957 108.449 47.873 108.244C46.781 108.449 45.577 108.622 44.261 108.762C42.9543 108.893 41.5263 109.009 39.977 109.112L39.711 108.188C39.8416 108.141 39.9723 108.071 40.103 107.978C40.2336 107.885 40.3643 107.768 40.495 107.628C42.1003 105.976 43.8176 103.577 45.647 100.432L46.543 100.88C45.451 102.663 44.471 104.156 43.603 105.36C42.7443 106.555 41.993 107.474 41.349 108.118C43.4863 107.969 45.5256 107.745 47.467 107.446C47.187 106.895 46.9116 106.377 46.641 105.892C46.3703 105.397 46.081 104.926 45.773 104.478L46.627 104.198ZM44.093 98.402C42.805 101.09 41.097 103.311 38.969 105.066L38.353 104.324C40.313 102.765 41.909 100.726 43.141 98.206L44.093 98.402ZM61.715 98.808V99.48C61.519 100.124 61.3137 100.745 61.099 101.342C60.8844 101.939 60.665 102.518 60.441 103.078C60.8984 103.713 61.2437 104.282 61.477 104.786C61.7104 105.281 61.827 105.724 61.827 106.116C61.827 106.807 61.6684 107.283 61.351 107.544C60.9964 107.833 60.3197 107.978 59.321 107.978L59.055 107.068C59.223 107.096 59.3724 107.115 59.503 107.124C59.6337 107.133 59.7597 107.138 59.881 107.138C60.357 107.101 60.651 107.026 60.763 106.914C60.8937 106.755 60.959 106.489 60.959 106.116C60.959 105.341 60.4784 104.329 59.517 103.078C59.7224 102.602 59.9277 102.079 60.133 101.51C60.3384 100.931 60.5484 100.311 60.763 99.648H58.565V109.616H57.697V98.808H61.715ZM53.371 99.704V98.262H54.225V99.704H55.555V100.488H54.225V102.07H54.645C55.4197 101.146 56.0357 100.101 56.493 98.934L57.249 99.284C57.053 99.8067 56.8337 100.301 56.591 100.768C56.3484 101.235 56.0684 101.669 55.751 102.07H57.109V102.896H55.051C54.8364 103.12 54.6217 103.33 54.407 103.526C54.2017 103.722 53.987 103.918 53.763 104.114H56.507V109.616H55.667V109.084H53.035V109.63H52.153V105.15C51.9944 105.234 51.8264 105.323 51.649 105.416C51.4717 105.5 51.299 105.584 51.131 105.668L50.655 104.954C51.8777 104.431 52.951 103.745 53.875 102.896H51.005V102.07H53.371V100.488H51.579V99.704H53.371ZM53.035 108.286H55.667V106.984H53.035V108.286ZM55.667 104.884H53.035V106.214H55.667V104.884ZM64.1611 98.416C65.0104 99.032 65.7338 99.6573 66.3311 100.292L65.7011 100.922C65.4398 100.623 65.1271 100.32 64.7631 100.012C64.3991 99.6947 63.9931 99.3727 63.5451 99.046L64.1611 98.416ZM63.7971 101.412C64.6184 102.019 65.3091 102.635 65.8691 103.26L65.2251 103.876C64.7304 103.307 64.0491 102.691 63.1811 102.028L63.7971 101.412ZM66.1631 105.108C65.5844 106.657 64.9544 108.109 64.2731 109.462L63.3771 109.084C64.1518 107.675 64.8051 106.242 65.3371 104.786L66.1631 105.108ZM66.9191 104.492V103.652H73.4711V104.464C72.9671 105.649 72.1878 106.653 71.1331 107.474C72.0851 108.109 73.2471 108.585 74.6191 108.902L74.1851 109.7C72.6731 109.308 71.4178 108.748 70.4191 108.02C69.3831 108.692 68.1558 109.243 66.7371 109.672L66.2891 108.846C66.9611 108.669 67.5771 108.463 68.1371 108.23C68.6971 107.997 69.2151 107.74 69.6911 107.46C68.7764 106.639 68.1138 105.649 67.7031 104.492H66.9191ZM70.4191 106.97C71.3431 106.27 72.0244 105.444 72.4631 104.492H68.5571C68.9958 105.463 69.6164 106.289 70.4191 106.97ZM72.4631 98.724V101.44C72.4631 101.72 72.6171 101.86 72.9251 101.86H74.3391V102.7H72.7151C71.9684 102.7 71.5951 102.341 71.5951 101.622V99.592H68.9771V100.152C68.9771 101.477 68.3144 102.504 66.9891 103.232L66.4011 102.546C67.5211 102.005 68.0811 101.239 68.0811 100.25V98.724H72.4631ZM79.3752 104.058H84.3032V102.714H79.3752V104.058ZM79.3752 104.842V106.172H84.3032V104.842H79.3752ZM79.3752 106.942V109.602H78.5492V103.12C77.8305 103.997 77.0278 104.795 76.1412 105.514L75.5532 104.758C77.1212 103.507 78.3298 102.084 79.1792 100.488H75.8752V99.634H79.5712C79.6925 99.382 79.7952 99.1393 79.8792 98.906C79.9725 98.6633 80.0612 98.4207 80.1452 98.178L81.0552 98.276C80.9712 98.5187 80.8918 98.752 80.8172 98.976C80.7425 99.2 80.6632 99.4193 80.5792 99.634H86.7392V100.488H80.1872C80.0752 100.74 79.9538 100.987 79.8232 101.23C79.6925 101.463 79.5478 101.697 79.3892 101.93H85.1572V108.636C85.1572 109.243 84.8118 109.555 84.1212 109.574H82.7212L82.5112 108.762C82.9592 108.79 83.3978 108.804 83.8272 108.804C84.1445 108.804 84.3032 108.655 84.3032 108.356V106.942H79.3752Z" fill="white" fill-opacity="0.6"/>
</svg>
