<svg width="26" height="17" viewBox="0 0 26 17" fill="none" xmlns="http://www.w3.org/2000/svg">
<rect y="0.5" width="26" height="16" rx="2" fill="white" fill-opacity="0.1"/>
<path d="M7 10C7.82843 10 8.5 9.32843 8.5 8.5C8.5 7.67157 7.82843 7 7 7C6.17157 7 5.5 7.67157 5.5 8.5C5.5 9.32843 6.17157 10 7 10Z" fill="white" fill-opacity="0.6"/>
<path d="M14.5 8.5C14.5 9.32843 13.8284 10 13 10C12.1716 10 11.5 9.32843 11.5 8.5C11.5 7.67157 12.1716 7 13 7C13.8284 7 14.5 7.67157 14.5 8.5Z" fill="white" fill-opacity="0.6"/>
<path d="M20.5 8.5C20.5 9.32843 19.8284 10 19 10C18.1716 10 17.5 9.32843 17.5 8.5C17.5 7.67157 18.1716 7 19 7C19.8284 7 20.5 7.67157 20.5 8.5Z" fill="white" fill-opacity="0.6"/>
</svg>
