<svg width="14" height="16" viewBox="0 0 14 16" fill="none" xmlns="http://www.w3.org/2000/svg">
<path fill-rule="evenodd" clip-rule="evenodd" d="M10.3487 7.33301L11.3614 5.98391C11.8632 5.3155 12.0744 4.49195 11.9564 3.66428C11.8384 2.8366 11.406 2.10548 10.7376 1.60376C9.35867 0.568956 7.39305 0.847048 6.35742 2.22761L0.78567 9.65025C-0.874631 11.8643 0.602476 14.5016 0.666016 14.613C0.751837 14.7624 0.896246 14.8688 1.06459 14.9076C1.11245 14.9191 1.57456 15.0215 2.21904 15.0215C3.26127 15.0215 4.77798 14.7549 5.78969 13.4066L10.2198 7.50473C10.2456 7.48055 10.2696 7.45373 10.2916 7.42452C10.3136 7.39523 10.3327 7.36461 10.3487 7.33301ZM1.61747 13.7449C2.26195 13.8233 3.88759 13.8786 4.79944 12.663L8.92222 7.17069L5.89812 4.9002L1.77508 10.3929C0.845084 11.634 1.35671 13.1532 1.61747 13.7449ZM6.64096 3.91068L9.66548 6.18053L10.3712 5.24041C10.9975 4.40696 10.8284 3.2195 9.9949 2.59317C9.16062 1.96849 7.97234 2.13766 7.34684 2.97029L6.64096 3.91068Z" fill="white"/>
<path d="M13.3812 14.8052H8.1189C7.77727 14.8052 7.5 14.5279 7.5 14.1863C7.5 13.8446 7.77727 13.5674 8.1189 13.5674H13.3812C13.7228 13.5674 14.0001 13.8446 14.0001 14.1863C14.0001 14.5279 13.7228 14.8052 13.3812 14.8052Z" fill="white"/>
</svg>
