<svg width="26" height="26" viewBox="0 0 26 26" fill="none" xmlns="http://www.w3.org/2000/svg">
<path d="M0.857784 7.8533C1.4556 4.26639 4.26639 1.4556 7.8533 0.857783C11.2609 0.289845 14.7391 0.289845 18.1467 0.857784C21.7336 1.4556 24.5444 4.26639 25.1422 7.8533C25.7102 11.2609 25.7102 14.7391 25.1422 18.1467C24.5444 21.7336 21.7336 24.5444 18.1467 25.1422C14.7391 25.7102 11.2609 25.7102 7.8533 25.1422C4.26639 24.5444 1.4556 21.7336 0.857783 18.1467C0.289845 14.7391 0.289845 11.2609 0.857784 7.8533Z" fill="url(#paint0_linear_1137_1772)" fill-opacity="0.4"/>
<path d="M6.91444 13.5C6.91444 16.8137 9.60073 19.5 12.9144 19.5C16.2281 19.5 18.9144 16.8137 18.9144 13.5C18.9144 10.1863 16.2281 7.5 12.9144 7.5C10.5262 7.5 8.4639 8.89531 7.49821 10.9152" stroke="white" stroke-width="1.63239" stroke-linecap="round"/>
<path d="M19.1258 12.9791C20.7348 14.1564 21.5932 15.3711 21.2706 16.2699C20.6964 17.8698 16.5975 17.8626 12.1155 16.254C7.63341 14.6453 4.46549 12.0443 5.03971 10.4444C5.33362 9.62552 6.55095 9.22764 8.27043 9.25004L8.38783 9.25004" stroke="white" stroke-width="1.63239"/>
<defs>
<linearGradient id="paint0_linear_1137_1772" x1="5" y1="2.5" x2="20.5" y2="24" gradientUnits="userSpaceOnUse">
<stop stop-color="#CFCFCF"/>
<stop offset="1" stop-color="#ACACAC"/>
</linearGradient>
</defs>
</svg>
