<svg width="40" height="40" viewBox="0 0 40 40" fill="none" xmlns="http://www.w3.org/2000/svg">
<path d="M20.0002 36.6666C10.7952 36.6666 3.3335 29.2049 3.3335 19.9999C3.3335 10.7949 10.7952 3.33325 20.0002 3.33325C29.2052 3.33325 36.6668 10.7949 36.6668 19.9999C36.6668 29.2049 29.2052 36.6666 20.0002 36.6666ZM20.0002 33.3333C23.5364 33.3333 26.9278 31.9285 29.4283 29.428C31.9287 26.9275 33.3335 23.5361 33.3335 19.9999C33.3335 16.4637 31.9287 13.0723 29.4283 10.5718C26.9278 8.07134 23.5364 6.66659 20.0002 6.66659C16.4639 6.66659 13.0726 8.07134 10.5721 10.5718C8.07159 13.0723 6.66683 16.4637 6.66683 19.9999C6.66683 23.5361 8.07159 26.9275 10.5721 29.428C13.0726 31.9285 16.4639 33.3333 20.0002 33.3333ZM11.6668 28.3333C11.6668 26.1231 12.5448 24.0035 14.1076 22.4407C15.6704 20.8779 17.79 19.9999 20.0002 19.9999C22.2103 19.9999 24.3299 20.8779 25.8927 22.4407C27.4555 24.0035 28.3335 26.1231 28.3335 28.3333H25.0002C25.0002 27.0072 24.4734 25.7354 23.5357 24.7977C22.598 23.86 21.3262 23.3333 20.0002 23.3333C18.6741 23.3333 17.4023 23.86 16.4646 24.7977C15.5269 25.7354 15.0002 27.0072 15.0002 28.3333H11.6668ZM13.3335 18.3333C12.6705 18.3333 12.0346 18.0699 11.5657 17.601C11.0969 17.1322 10.8335 16.4963 10.8335 15.8333C10.8335 15.1702 11.0969 14.5343 11.5657 14.0655C12.0346 13.5966 12.6705 13.3333 13.3335 13.3333C13.9965 13.3333 14.6324 13.5966 15.1013 14.0655C15.5701 14.5343 15.8335 15.1702 15.8335 15.8333C15.8335 16.4963 15.5701 17.1322 15.1013 17.601C14.6324 18.0699 13.9965 18.3333 13.3335 18.3333ZM26.6668 18.3333C26.0038 18.3333 25.3679 18.0699 24.8991 17.601C24.4302 17.1322 24.1668 16.4963 24.1668 15.8333C24.1668 15.1702 24.4302 14.5343 24.8991 14.0655C25.3679 13.5966 26.0038 13.3333 26.6668 13.3333C27.3299 13.3333 27.9658 13.5966 28.4346 14.0655C28.9034 14.5343 29.1668 15.1702 29.1668 15.8333C29.1668 16.4963 28.9034 17.1322 28.4346 17.601C27.9658 18.0699 27.3299 18.3333 26.6668 18.3333Z" fill="white" fill-opacity="0.4"/>
</svg>
