<svg width="24" height="21" viewBox="0 0 24 21" fill="none" xmlns="http://www.w3.org/2000/svg">
<path d="M21.0036 6.75C21.1932 6.75 21.3835 6.80966 21.5358 6.92898C21.5657 6.95135 21.6889 7.05575 21.7691 7.13778L21.8129 7.18253C22.477 7.80895 23.4758 9.36754 23.7959 10.158C23.8032 10.158 23.9934 10.6278 24 10.8516L24 10.8814C24 11.2244 23.8112 11.5451 23.505 11.7092C23.3366 11.7987 22.8481 11.8807 22.8416 11.8881C22.4034 11.9553 21.7327 12 20.9964 12C20.2243 12 19.5237 11.9553 19.0936 11.8732C19.0863 11.8732 18.6926 11.7912 18.5614 11.739C18.3725 11.657 18.2114 11.5078 18.1094 11.3214C18.0372 11.1722 18 11.0156 18 10.8516C18.008 10.68 18.1166 10.3594 18.1677 10.2326C18.4885 9.39737 19.5383 7.80149 20.1798 7.18999C20.2819 7.08558 20.4066 6.97372 20.435 6.94389C20.5954 6.81712 20.7922 6.75 21.0036 6.75Z" fill="white"/>
<rect width="2.25" height="9" rx="1.125" fill="white"/>
<rect x="6" width="2.25" height="9" rx="1.125" fill="white"/>
<rect x="12" width="2.25" height="9" rx="1.125" fill="white"/>
<rect y="11.25" width="2.25" height="9" rx="1.125" fill="white"/>
<rect x="6" y="11.25" width="2.25" height="9" rx="1.125" fill="white"/>
<rect x="12" y="11.25" width="2.25" height="9" rx="1.125" fill="white"/>
</svg>
