<svg width="18" height="24" viewBox="0 0 18 24" fill="none" xmlns="http://www.w3.org/2000/svg">
<path fill-rule="evenodd" clip-rule="evenodd" d="M5.83012 20.8302H12.1697C12.1697 22.5808 10.7506 24 8.99993 24C7.24929 24 5.83012 22.5808 5.83012 20.8302ZM6.65798 2.37901C6.75858 2.3489 6.74796 2.35308 6.74796 2.35308C6.8653 2.32062 6.96219 2.19405 6.96219 2.07027V2.03895C6.96219 0.91287 7.87681 0 8.99993 0C10.1253 0 11.0377 0.91637 11.0377 2.03895V2.07029C11.0377 2.19058 11.1369 2.32175 11.2594 2.35533C11.2594 2.35533 11.2369 2.34785 11.3353 2.37725C14.6994 3.38163 17.1509 6.50015 17.1509 10.1916V14.0364C17.1509 15.0367 17.2357 16.6547 17.3403 17.6485L17.5088 19.2491C17.5611 19.7462 17.1976 20.1509 16.6967 20.1509H1.30311C0.804543 20.1509 0.438657 19.7472 0.491085 19.2491L0.659569 17.6485C0.763812 16.6582 0.848987 15.0375 0.848987 14.0364V10.1916C0.848987 6.49958 3.29781 3.38478 6.65798 2.37901Z" fill="white"/>
</svg>
