<svg width="24" height="24" viewBox="0 0 24 24" fill="none" xmlns="http://www.w3.org/2000/svg">
<path d="M12.2435 20.5186L10.6944 18.8989C10.0095 18.1826 9.77409 17.1525 10.079 16.2086C10.3861 15.2637 11.1831 14.5676 12.1594 14.3916L14.3632 13.9926L15.4247 12.0197C15.5379 11.809 15.678 11.6184 15.8372 11.4503C15.2117 11.0602 14.5481 10.7329 13.8554 10.484C15.2678 9.41916 16.187 7.73216 16.187 5.831C16.187 2.6162 13.5707 0 10.356 0C7.14122 0 4.52496 2.61626 4.52496 5.831C4.52496 7.7321 5.443 9.41799 6.85538 10.4829C3.51059 11.689 0.913322 14.5766 0.195925 18.215C0.0558092 18.9223 0.240763 19.6509 0.703699 20.2148C1.17672 20.7898 1.87171 21.1205 2.61375 21.1205H12.1629L12.2447 20.5196L12.2435 20.5186Z" fill="url(#paint0_linear_1177_11717)"/>
<path d="M23.8024 16.7635C23.7004 16.4496 23.4348 16.2165 23.1097 16.1582L20.055 15.6044L18.5843 12.8694C18.4274 12.579 18.1247 12.3975 17.7952 12.3975C17.4657 12.3975 17.1619 12.5791 17.0061 12.8694L15.5354 15.6044L12.4799 16.1582C12.1548 16.2165 11.8891 16.4496 11.7871 16.7635C11.6851 17.0774 11.7636 17.4226 11.9922 17.6602L14.1388 19.9043L13.7219 22.9814C13.677 23.3087 13.816 23.6338 14.0828 23.8277C14.2386 23.9409 14.4236 23.9992 14.6096 23.9992C14.7419 23.9992 14.8753 23.97 14.9986 23.9106L17.7964 22.5633L20.5932 23.9106C20.8902 24.0541 21.2422 24.0227 21.5101 23.8277C21.7769 23.6338 21.9159 23.3087 21.871 22.9814L21.454 19.9043L23.6006 17.6602C23.8293 17.4215 23.9078 17.0774 23.8058 16.7635L23.8024 16.7635Z" fill="url(#paint1_linear_1177_11717)"/>
<defs>
<linearGradient id="paint0_linear_1177_11717" x1="16.187" y1="21.1205" x2="-4.15735" y2="5.67296" gradientUnits="userSpaceOnUse">
<stop stop-color="#CD3EFF"/>
<stop offset="1" stop-color="#FFB2E0"/>
</linearGradient>
<linearGradient id="paint1_linear_1177_11717" x1="23.8497" y1="23.9997" x2="12.258" y2="11.9041" gradientUnits="userSpaceOnUse">
<stop stop-color="#CD3EFF"/>
<stop offset="1" stop-color="#FFB2E0"/>
</linearGradient>
</defs>
</svg>
