<svg width="12" height="11" viewBox="0 0 12 11" fill="none" xmlns="http://www.w3.org/2000/svg">
<path d="M6.38841 10.4997C6.23783 10.4997 6.08779 10.4436 5.96443 10.3308C5.52711 9.93635 5.10313 9.55618 4.72027 9.23212C3.62669 8.26051 2.66981 7.42916 2.01353 6.61212C1.27558 5.69663 0.933838 4.82353 0.933838 3.88001C0.933838 2.9502 1.23446 2.10508 1.79514 1.48564C2.35582 0.851838 3.13488 0.499725 3.98229 0.499725C4.61132 0.499725 5.18534 0.710993 5.69101 1.10547C5.95052 1.31674 6.18334 1.55606 6.38838 1.85206C6.59343 1.55606 6.82571 1.31674 7.08576 1.10547C7.59143 0.697247 8.16545 0.499725 8.79447 0.499725C9.64189 0.499725 10.4076 0.851838 10.9816 1.48564C11.5423 2.10513 11.8429 2.96451 11.8429 3.88001C11.8429 4.83787 11.5012 5.69663 10.7632 6.61212C10.107 7.42913 9.15008 8.25987 8.0565 9.23212C7.68753 9.55618 7.2502 9.93635 6.81234 10.3308C6.68899 10.4436 6.53894 10.4997 6.38836 10.4997H6.38841Z" fill="white"/>
</svg>
