<svg width="24" height="21" viewBox="0 0 24 21" fill="none" xmlns="http://www.w3.org/2000/svg">
<path d="M20.9964 10.5C20.8068 10.5 20.6165 10.4403 20.4642 10.321C20.4343 10.2987 20.3111 10.1942 20.2309 10.1122L20.1871 10.0675C19.523 9.44105 18.5242 7.88246 18.2041 7.09197C18.1968 7.09197 18.0066 6.62216 18 6.39844V6.36861C18 6.02557 18.1888 5.7049 18.495 5.54084C18.6634 5.45135 19.1519 5.36932 19.1584 5.36186C19.5966 5.29474 20.2673 5.25 21.0036 5.25C21.7757 5.25 22.4763 5.29474 22.9064 5.37678C22.9137 5.37678 23.3074 5.45881 23.4386 5.51101C23.6275 5.59304 23.7886 5.74219 23.8906 5.92862C23.9628 6.07777 24 6.23438 24 6.39844C23.992 6.56996 23.8834 6.89062 23.8323 7.0174C23.5115 7.85263 22.4617 9.44851 21.8202 10.06C21.7181 10.1644 21.5934 10.2763 21.565 10.3061C21.4046 10.4329 21.2078 10.5 20.9964 10.5Z" fill="white"/>
<rect width="2.25" height="9" rx="1.125" fill="white"/>
<rect x="6" width="2.25" height="9" rx="1.125" fill="white"/>
<rect x="12" width="2.25" height="9" rx="1.125" fill="white"/>
<rect y="11.25" width="2.25" height="9" rx="1.125" fill="white"/>
<rect x="6" y="11.25" width="2.25" height="9" rx="1.125" fill="white"/>
<rect x="12" y="11.25" width="2.25" height="9" rx="1.125" fill="white"/>
</svg>
