<svg width="29" height="31" viewBox="0 0 29 31" fill="none" xmlns="http://www.w3.org/2000/svg">
<path fill-rule="evenodd" clip-rule="evenodd" d="M17.5992 7.2C17.5992 3.22355 14.3757 0 10.3992 0C6.42277 0 3.19922 3.22355 3.19922 7.2C3.19922 11.1764 6.42277 14.4 10.3992 14.4C14.3757 14.4 17.5992 11.1764 17.5992 7.2ZM4.63922 7.2C4.63922 4.01884 7.21806 1.44 10.3992 1.44C13.5804 1.44 16.1592 4.01884 16.1592 7.2C16.1592 10.3812 13.5804 12.96 10.3992 12.96C7.21806 12.96 4.63922 10.3812 4.63922 7.2Z" fill="white"/>
<path fill-rule="evenodd" clip-rule="evenodd" d="M10.9638 12.8C4.46826 12.8 0 17.0321 0 22V24.8115C0 26.1315 0.818465 27.2 1.82547 27.2H16.4457C16.7821 27.2 17.0548 26.8419 17.0548 26.4C17.0548 25.9582 16.7821 25.6 16.4457 25.6H1.82547C1.48962 25.6 1.2182 25.2457 1.2182 24.8115V22C1.2182 18.0495 5.07135 14.4 10.9638 14.4C13.9976 14.4 16.4831 15.316 18.2453 16.9102C18.5224 17.1608 18.9017 17.069 19.0925 16.7051C19.2833 16.3413 19.2134 15.8431 18.9363 15.5925C16.9603 13.8049 14.2336 12.8 10.9638 12.8Z" fill="white"/>
<path fill-rule="evenodd" clip-rule="evenodd" d="M18.4047 22.4H26.3953C26.8429 22.4 27.2 22.755 27.2 23.1997V28.0004C27.2 28.449 26.8506 28.8 26.3953 28.8H18.4047C17.9571 28.8 17.6 28.4451 17.6 28.0004V23.1997C17.6 22.7511 17.9494 22.4 18.4047 22.4ZM16 28.0004C16 29.3308 17.0755 30.4 18.4047 30.4H26.3953C27.7359 30.4 28.8 29.331 28.8 28.0004V23.1997C28.8 21.8693 27.7245 20.8 26.3953 20.8H18.4047C17.0641 20.8 16 21.8691 16 23.1997V28.0004Z" fill="white"/>
<path fill-rule="evenodd" clip-rule="evenodd" d="M27.1996 19.2C27.1996 16.5491 25.0506 14.4 22.3996 14.4C19.7486 14.4 17.5996 16.5491 17.5996 19.2V21.6H19.1996V19.2C19.1996 17.4327 20.6323 16 22.3996 16C24.1669 16 25.5996 17.4327 25.5996 19.2V21.6H27.1996V19.2Z" fill="white"/>
</svg>
