<svg width="9" height="11" viewBox="0 0 9 11" fill="none" xmlns="http://www.w3.org/2000/svg">
<path d="M8.75 5.5058C8.75 5.82172 8.65057 6.13885 8.45171 6.3928C8.41442 6.44262 8.24041 6.64796 8.10369 6.78162L8.02912 6.85452C6.98509 7.96145 4.38743 9.62609 3.06996 10.1595C3.06996 10.1717 2.28693 10.4888 1.91406 10.4997H1.86435C1.29261 10.4997 0.758168 10.185 0.48473 9.67469C0.335582 9.39401 0.198863 8.57992 0.186434 8.56898C0.0745736 7.83873 0 6.72087 0 5.49365C0 4.20689 0.0745738 3.03922 0.211293 2.32233C0.211293 2.31017 0.348012 1.65404 0.435014 1.43533C0.571733 1.12062 0.820313 0.852095 1.13104 0.681986C1.37962 0.561694 1.64063 0.499725 1.91406 0.499725C2.19993 0.513091 2.73438 0.694136 2.94567 0.779191C4.33771 1.31382 6.99751 3.06352 8.01669 4.13278C8.1907 4.30288 8.37713 4.51066 8.42685 4.55805C8.63814 4.82536 8.75 5.15343 8.75 5.5058Z" fill="#888888"/>
</svg>
