<svg width="22" height="20" viewBox="0 0 22 20" fill="none" xmlns="http://www.w3.org/2000/svg">
<path fill-rule="evenodd" clip-rule="evenodd" d="M0.478022 8.22314L4.20057 1.77515C4.83566 0.675032 6.00869 -0.00172043 7.27901 -0.00172043H14.7244C15.9946 -0.00172043 17.1676 0.675032 17.8028 1.77515L21.5254 8.22314C22.1605 9.3221 22.1605 10.6779 21.5254 11.7769L17.8028 18.2249C17.1678 19.325 15.9947 20.0017 14.7244 20.0017H7.27901C6.00881 20.0017 4.83581 19.325 4.20057 18.2249L0.478022 11.7769C-0.157062 10.6779 -0.157062 9.3221 0.478022 8.22314ZM7.15167 10C7.15167 12.1262 8.87532 13.8499 11.0016 13.8499C13.1278 13.8499 14.8515 12.1262 14.8515 10C14.8515 7.87377 13.1278 6.15012 11.0016 6.15012C8.87532 6.15012 7.15167 7.87377 7.15167 10Z" fill="white"/>
</svg>
