<svg width="22" height="18" viewBox="0 0 22 18" fill="none" xmlns="http://www.w3.org/2000/svg">
<path d="M12.074 12.6685C5.64722 12.8874 2.48273 14.9416 1.59794 15.635H1.56438L1.34601 15.8475C1.23647 15.9541 1.06797 15.9776 0.93138 15.9024C0.794675 15.8261 0.725582 15.671 0.757973 15.5215C0.761808 15.5051 1.3207 13.1132 3.03605 10.6531C4.74538 8.20166 7.57348 5.71656 12.1534 5.38661L12.8495 5.33646V4.63855V1.29932C12.8495 1.15834 12.9347 1.03058 13.065 0.976415C13.1967 0.922099 13.3464 0.952328 13.4461 1.05203L21.1469 8.75276C21.2134 8.8193 21.25 8.90838 21.25 9.00002C21.25 9.09169 21.2134 9.18077 21.1469 9.24726L20.185 10.209L20.1852 10.2091L13.4462 16.948C13.3466 17.0477 13.197 17.0779 13.0654 17.0238C12.935 16.9697 12.8496 16.8419 12.8496 16.7007V13.418V12.642L12.074 12.6685Z" stroke="white" stroke-width="1.5"/>
</svg>
