<svg width="25" height="21" viewBox="0 0 25 21" fill="none" xmlns="http://www.w3.org/2000/svg">
<rect x="0.5" y="3.84599" width="21.5973" height="16.8636" rx="2" fill="url(#paint0_linear_1177_11708)"/>
<path d="M16.4182 15.503C14.6616 15.4486 13.2668 14.0098 13.2668 12.2533C13.2668 10.4968 14.6616 9.05779 16.4182 9.00365H21.5367C21.6997 9.00481 21.8626 9.01752 22.0233 9.0441V5.76782C22.0221 4.6942 21.1519 3.82513 20.0794 3.82282H2.44154C1.36907 3.82513 0.5 4.69535 0.5 5.76782V18.7448C0.5 19.8185 1.36907 20.6887 2.44154 20.6898H20.0794C21.1519 20.6887 22.0221 19.8185 22.0233 18.7448V15.4603C21.8626 15.4868 21.6997 15.5007 21.5367 15.503L16.4182 15.503Z" fill="url(#paint1_linear_1177_11708)"/>
<path d="M18.4132 12.2407C18.4132 12.6152 18.1878 12.9515 17.8423 13.0948C17.4967 13.2381 17.0992 13.1583 16.8346 12.8948C16.5711 12.6302 16.4913 12.2326 16.6346 11.8871C16.7779 11.5415 17.1142 11.3162 17.4887 11.3162C17.9995 11.3162 18.4132 11.7299 18.4132 12.2407ZM24.5001 12.2407C24.5001 13.7755 23.26 15.0213 21.7265 15.0294H16.5952C15.0593 15.0294 13.8135 13.7847 13.8135 12.2488C13.8135 10.7129 15.0593 9.46713 16.5952 9.46713H21.7137C22.4511 9.46367 23.1606 9.7549 23.683 10.275C24.2053 10.7962 24.5001 11.5034 24.5001 12.2407ZM18.8753 12.2407C18.8753 11.6825 18.539 11.1787 18.0236 10.9649C17.507 10.7511 16.913 10.8701 16.5189 11.2642C16.1237 11.6594 16.0058 12.2534 16.2196 12.7689C16.4334 13.2854 16.9361 13.6217 17.4943 13.6217C18.257 13.6194 18.8742 13.0023 18.8753 12.2407Z" fill="url(#paint2_linear_1177_11708)"/>
<path d="M1.68311 2.95852L10.967 0.235301C12.0234 -0.0738782 13.3264 -0.0788357 14.3915 0.223198C15.4556 0.525223 16.1207 1.08857 16.1361 1.70255L16.1799 2.95853L1.68311 2.95852Z" fill="url(#paint3_linear_1177_11708)"/>
<defs>
<linearGradient id="paint0_linear_1177_11708" x1="22.0973" y1="20.7096" x2="5.73693" y2="-0.243117" gradientUnits="userSpaceOnUse">
<stop stop-color="#CD3EFF"/>
<stop offset="1" stop-color="#FFB2E0"/>
</linearGradient>
<linearGradient id="paint1_linear_1177_11708" x1="22.0233" y1="20.6898" x2="5.64531" y2="-0.209373" gradientUnits="userSpaceOnUse">
<stop stop-color="#CD3EFF"/>
<stop offset="1" stop-color="#FFB2E0"/>
</linearGradient>
<linearGradient id="paint2_linear_1177_11708" x1="24.4642" y1="13.3132" x2="19.1259" y2="5.72822" gradientUnits="userSpaceOnUse">
<stop offset="0.3482" stop-color="#E89CFF"/>
<stop offset="1" stop-color="white" stop-opacity="0.8"/>
</linearGradient>
<linearGradient id="paint3_linear_1177_11708" x1="13.1849" y1="3.25288e-06" x2="13.0402" y2="3.03418" gradientUnits="userSpaceOnUse">
<stop stop-color="#F4D0FF"/>
<stop offset="1" stop-color="#341E3C"/>
</linearGradient>
</defs>
</svg>
