<svg width="12" height="13" viewBox="0 0 12 13" fill="none" xmlns="http://www.w3.org/2000/svg">
<path d="M10.8389 4.62731C10.9642 4.94768 11.0566 5.27996 11.1146 5.61903C11.1314 5.71626 11.182 5.80444 11.2575 5.86804C11.3329 5.93164 11.4284 5.96659 11.527 5.96672C11.5508 5.96659 11.5745 5.96454 11.5979 5.96058C11.6521 5.95132 11.704 5.93148 11.7505 5.90218C11.797 5.87288 11.8373 5.8347 11.8691 5.78981C11.9009 5.74493 11.9235 5.69423 11.9357 5.6406C11.9478 5.58697 11.9493 5.53148 11.94 5.47728C11.8718 5.08307 11.7645 4.69664 11.6197 4.32371C11.5794 4.22011 11.4995 4.13676 11.3977 4.09202C11.296 4.04728 11.1806 4.0448 11.077 4.08513C10.9733 4.12547 10.89 4.20531 10.8453 4.30709C10.8005 4.40887 10.798 4.52426 10.8384 4.62787L10.8389 4.62731Z" fill="#888888"/>
<path d="M8.94135 2.2376C9.01056 2.28542 9.09274 2.31093 9.17686 2.31071C9.26624 2.31065 9.35326 2.28199 9.42517 2.2289C9.49708 2.17582 9.55012 2.10111 9.5765 2.01571C9.60289 1.93032 9.60125 1.83871 9.57181 1.75432C9.54238 1.66992 9.4867 1.59716 9.41293 1.54669C9.08313 1.32169 8.73165 1.13025 8.36373 0.975214C8.3126 0.949198 8.25666 0.933973 8.19939 0.930483C8.14213 0.926994 8.08476 0.935314 8.03084 0.954928C7.97692 0.974543 7.92762 1.00503 7.88598 1.0445C7.84434 1.08397 7.81126 1.13158 7.7888 1.18437C7.76633 1.23716 7.75496 1.29401 7.75538 1.35138C7.75581 1.40875 7.76802 1.46542 7.79127 1.51787C7.81452 1.57032 7.8483 1.61744 7.89052 1.65628C7.93274 1.69513 7.98249 1.72489 8.03669 1.7437C8.35368 1.87835 8.65668 2.04377 8.94135 2.2376Z" fill="#888888"/>
<path d="M10.3304 2.31963C10.2923 2.2796 10.2466 2.24753 10.196 2.22526C10.1454 2.203 10.0908 2.19099 10.0355 2.18992C9.98025 2.18885 9.9253 2.19875 9.87386 2.21904C9.82242 2.23933 9.77551 2.26962 9.73584 2.30814C9.69617 2.34667 9.66453 2.39267 9.64274 2.4435C9.62096 2.49432 9.60946 2.54896 9.60891 2.60426C9.60836 2.65955 9.61877 2.71441 9.63955 2.76565C9.66032 2.8169 9.69105 2.86352 9.72994 2.90283C9.96998 3.14985 10.1848 3.42018 10.3712 3.70982C10.4009 3.75607 10.4395 3.796 10.4847 3.82734C10.5299 3.85867 10.5808 3.8808 10.6345 3.89246C10.6883 3.90413 10.7438 3.90509 10.7979 3.89529C10.852 3.8855 10.9037 3.86514 10.9499 3.83539C10.9962 3.80563 11.0361 3.76706 11.0674 3.72187C11.0988 3.67669 11.1209 3.62577 11.1326 3.57203C11.1442 3.51829 11.1452 3.46278 11.1354 3.40867C11.1256 3.35455 11.1052 3.3029 11.0755 3.25666C10.8588 2.9204 10.6092 2.60652 10.3304 2.31963Z" fill="#888888"/>
<path d="M7.21801 0.619156C6.39625 0.4527 5.54874 0.460321 4.73011 0.641525C3.91148 0.82273 3.13992 1.1735 2.46519 1.6712C1.79045 2.16891 1.22751 2.80251 0.812683 3.53114C0.397854 4.25977 0.140341 5.06725 0.0567495 5.90152C-0.0268415 6.73578 0.0653459 7.5783 0.327367 8.37475C0.589387 9.1712 1.01542 9.90389 1.578 10.5256C2.14058 11.1473 2.82721 11.6441 3.59361 11.9841C4.36001 12.3242 5.18917 12.4998 6.02761 12.4997C7.51689 12.5056 8.95471 11.9552 10.0593 10.9563C11.1639 9.95741 11.8557 8.58202 11.9991 7.09964C12.0066 6.99107 11.9715 6.88385 11.9013 6.80072C11.831 6.71759 11.7312 6.66509 11.6229 6.65434C11.5146 6.6436 11.4063 6.67546 11.3211 6.74317C11.2359 6.81088 11.1805 6.90912 11.1665 7.01705C11.0665 8.01089 10.6803 8.95439 10.0548 9.73313C9.42922 10.5119 8.59119 11.0924 7.64228 11.4044C6.69338 11.7163 5.67435 11.7463 4.70876 11.4906C3.74317 11.2349 2.87249 10.7046 2.20229 9.96395C1.5321 9.22329 1.09117 8.30411 0.932968 7.31785C0.774769 6.33159 0.906097 5.32062 1.31103 4.40752C1.71596 3.49441 2.3771 2.71839 3.21428 2.17355C4.05147 1.62871 5.02874 1.33845 6.02761 1.33797C6.37206 1.33817 6.71565 1.37238 7.05337 1.4401C7.08062 1.44514 7.10826 1.44775 7.13597 1.44791C7.23962 1.4476 7.33948 1.40884 7.4162 1.33914C7.49292 1.26943 7.54104 1.17374 7.55125 1.07058C7.56146 0.96743 7.53303 0.864157 7.47147 0.780762C7.40991 0.697366 7.31959 0.639781 7.21801 0.619156Z" fill="#888888"/>
<path d="M1.56299 6.5003C1.56299 7.38333 1.82484 8.24653 2.31542 8.98074C2.80601 9.71496 3.5033 10.2872 4.31911 10.6251C5.13493 10.963 6.03262 11.0515 6.89869 10.8792C7.76475 10.7069 8.56028 10.2817 9.18468 9.65731C9.80908 9.03291 10.2343 8.23738 10.4066 7.37131C10.5788 6.50525 10.4904 5.60755 10.1525 4.79174C9.81458 3.97592 9.24233 3.27863 8.50812 2.78805C7.7739 2.29746 6.9107 2.03561 6.02767 2.03561C4.84356 2.03561 3.70795 2.506 2.87066 3.34329C2.03337 4.18058 1.56299 5.31619 1.56299 6.5003ZM6.44624 3.70987V6.28823L8.51115 7.8397C8.55513 7.87268 8.59217 7.914 8.62018 7.9613C8.64818 8.0086 8.6666 8.06095 8.67437 8.11536C8.68214 8.16977 8.67912 8.22519 8.66548 8.27843C8.65184 8.33168 8.62784 8.38172 8.59486 8.42569C8.56188 8.46967 8.52057 8.50671 8.47327 8.53472C8.42597 8.56272 8.37362 8.58114 8.31921 8.58891C8.26479 8.59668 8.20938 8.59366 8.15613 8.58002C8.10289 8.56638 8.05285 8.54239 8.00888 8.50941L5.77653 6.83515C5.72419 6.7965 5.68174 6.74601 5.65264 6.68782C5.62354 6.62962 5.60862 6.56536 5.60911 6.5003V3.70987C5.60911 3.59886 5.65321 3.4924 5.7317 3.4139C5.8102 3.3354 5.91666 3.29131 6.02767 3.29131C6.13868 3.29131 6.24515 3.3354 6.32364 3.4139C6.40214 3.4924 6.44624 3.59886 6.44624 3.70987Z" fill="#888888"/>
</svg>
