<svg width="48" height="48" viewBox="0 0 48 48" fill="none" xmlns="http://www.w3.org/2000/svg">
<rect y="0.000976562" width="48" height="48" rx="24" fill="#272727"/>
<path fill-rule="evenodd" clip-rule="evenodd" d="M24 8.50098C15.4455 8.50098 8.5 15.4465 8.5 24.001C8.5 32.5554 15.4455 39.501 24 39.501C32.5544 39.501 39.5 32.5554 39.5 24.001C39.5 15.4465 32.5545 8.50098 24 8.50098ZM21.2596 26.1927L28.9321 18.5202C29.5366 17.9157 30.5193 17.9157 31.1238 18.5202C31.7283 19.1262 31.7283 20.1074 31.1238 20.7134L22.3555 29.4818C21.751 30.0863 20.7683 30.0863 20.1638 29.4818L16.8762 26.1927C16.2702 25.5882 16.2702 24.6055 16.8762 24.001C17.4807 23.3965 18.4619 23.3965 19.0679 24.001L21.2596 26.1927Z" fill="white"/>
</svg>
