<svg xmlns="http://www.w3.org/2000/svg" width="10" height="14" viewBox="0 0 10 14" fill="none">
  <path d="M9.11019 0.540063C9.01194 0.456649 8.89522 0.39047 8.76672 0.345315C8.63822 0.30016 8.50046 0.276917 8.36134 0.276917C8.22222 0.276917 8.08446 0.30016 7.95596 0.345315C7.82746 0.39047 7.71074 0.456649 7.61249 0.540063L0.580949 6.4947C0.502508 6.561 0.440275 6.63974 0.397814 6.72642C0.355352 6.81311 0.333496 6.90603 0.333496 6.99988C0.333496 7.09373 0.355352 7.18665 0.397814 7.27334C0.440275 7.36002 0.502508 7.43877 0.580949 7.50506L7.61249 13.4597C8.02711 13.8108 8.69557 13.8108 9.11019 13.4597C9.5248 13.1086 9.5248 12.5425 9.11019 12.1914L2.98403 6.9963L9.11865 1.80121C9.5248 1.45726 9.5248 0.884014 9.11019 0.540063Z" fill="white"/>
</svg>