<svg xmlns="http://www.w3.org/2000/svg" width="20" height="24" viewBox="0 0 20 28" fill="none">
  <path fill-rule="evenodd" clip-rule="evenodd" d="M15.1395 0.428589H4.8605C3.70428 0.429346 2.59566 0.844093 1.77809 1.58175C0.960516 2.31941 0.500839 3.31967 0.5 4.36287V23.6372C0.500839 24.6804 0.960516 25.6806 1.77809 26.4183C2.59566 27.1559 3.70428 27.5707 4.8605 27.5714H15.1395C16.2957 27.5707 17.4043 27.1559 18.2219 26.4183C19.0395 25.6806 19.4992 24.6804 19.5 23.6372V4.36287C19.4992 3.31967 19.0395 2.31941 18.2219 1.58175C17.4043 0.844093 16.2957 0.429346 15.1395 0.428589ZM10 24.7143C9.68685 24.7143 9.38072 24.6305 9.12035 24.4735C8.85997 24.3166 8.65703 24.0935 8.53719 23.8324C8.41735 23.5714 8.386 23.2841 8.44709 23.007C8.50818 22.7299 8.65898 22.4754 8.88041 22.2756C9.10185 22.0758 9.38397 21.9397 9.69111 21.8846C9.99824 21.8295 10.3166 21.8578 10.6059 21.9659C10.8952 22.074 11.1425 22.2571 11.3165 22.4921C11.4905 22.727 11.5833 23.0032 11.5833 23.2857C11.5833 23.6646 11.4165 24.028 11.1196 24.2959C10.8227 24.5638 10.4199 24.7143 10 24.7143ZM11.4131 5.85723H9.02108C8.64319 5.85723 8.33466 6.16439 8.33466 6.54365V9.99255H6.9221C6.64591 9.99255 6.40476 10.1495 6.29429 10.4028C6.18382 10.6561 6.2303 10.939 6.41824 11.1424L9.71229 14.7172C9.84162 14.8566 10.0262 14.9381 10.2162 14.9381C10.4075 14.9381 10.5907 14.8573 10.72 14.7172L14.0153 11.1424C14.2032 10.939 14.2497 10.6561 14.1392 10.4028C14.0287 10.1495 13.789 9.99255 13.5114 9.99255H12.0989L12.0995 6.54365C12.0995 6.16441 11.7923 5.85723 11.4131 5.85723ZM5.54115 15.6797H14.8047C15.091 15.6797 15.3221 15.9108 15.3221 16.1971C15.3221 16.4834 15.091 16.7144 14.8047 16.7144H5.54115C5.25486 16.7144 5.02382 16.4834 5.02382 16.1971C5.02382 15.9108 5.25486 15.6797 5.54115 15.6797Z" fill="url(#paint0_linear_1423_7816)"/>
  <defs>
    <linearGradient id="paint0_linear_1423_7816" x1="11.1642" y1="27.5714" x2="11.5623" y2="6.99036" gradientUnits="userSpaceOnUse">
      <stop stop-color="#D1CECE" stop-opacity="0.8"/>
      <stop offset="1" stop-color="#FFEBC8"/>
    </linearGradient>
  </defs>
</svg>