<svg xmlns="http://www.w3.org/2000/svg" width="32" height="24" viewBox="0 0 32 24" fill="none">
  <path d="M15.9294 15.5164C20.6803 15.5164 24.7369 16.2695 24.7369 19.2835C24.7369 22.2963 20.7063 23.0769 15.9294 23.0769C11.1786 23.0769 7.12198 22.3237 7.12198 19.311C7.12198 16.297 11.1525 15.5164 15.9294 15.5164ZM23.5255 13.7015C25.3418 13.6678 27.2945 13.9172 28.016 14.0943C29.5447 14.3948 30.5501 15.0083 30.9667 15.8999C31.3188 16.6319 31.3188 17.4811 30.9667 18.2119C30.3295 19.5948 28.2751 20.0387 27.4767 20.1534C27.3118 20.1784 27.1792 20.035 27.1965 19.8691C27.6044 16.0371 24.3599 14.2202 23.5205 13.8025C23.4846 13.7838 23.4771 13.7551 23.4809 13.7376C23.4833 13.7252 23.4982 13.7052 23.5255 13.7015ZM8.13343 13.6989L8.47546 13.702C8.50273 13.7057 8.51637 13.7257 8.51885 13.7369C8.52257 13.7556 8.51513 13.783 8.48042 13.803C7.63984 14.2207 4.39531 16.0376 4.8032 19.8684C4.82056 20.0355 4.68914 20.1776 4.52425 20.1539C3.72583 20.0392 1.6715 19.5953 1.03425 18.2124C0.680906 17.4804 0.680906 16.6324 1.03425 15.9004C1.45082 15.0088 2.45504 14.3953 3.9837 14.0935C4.7065 13.9177 6.65793 13.6683 8.47546 13.702L8.13343 13.6989ZM15.9294 0.923035C19.164 0.923035 21.7577 3.52925 21.7577 6.78391C21.7577 10.0373 19.164 12.646 15.9294 12.646C12.6948 12.646 10.1012 10.0373 10.1012 6.78391C10.1012 3.52925 12.6948 0.923035 15.9294 0.923035ZM23.8416 1.90043C26.9659 1.90043 29.4195 4.85705 28.5838 8.15036C28.0197 10.3675 25.9778 11.8402 23.7028 11.7804C23.4747 11.7741 23.2503 11.7529 23.0333 11.7155C22.8758 11.6881 22.7965 11.5098 22.8858 11.3776C23.7536 10.0932 24.2483 8.54815 24.2483 6.88965C24.2483 5.15882 23.7077 3.54521 22.7692 2.22215C22.7395 2.181 22.7172 2.11741 22.7469 2.07002C22.7717 2.03136 22.8176 2.01141 22.861 2.00144C23.1771 1.93659 23.5019 1.90043 23.8416 1.90043ZM8.15745 1.9003C8.49715 1.9003 8.82198 1.93647 9.13936 2.00131C9.18152 2.01129 9.22863 2.03249 9.25342 2.0699C9.28194 2.11728 9.26086 2.18088 9.23111 2.22203C8.29259 3.54509 7.75204 5.1587 7.75204 6.88953C7.75204 8.54803 8.24672 10.0931 9.11457 11.3775C9.20383 11.5096 9.12449 11.688 8.96703 11.7154C8.74883 11.7541 8.52567 11.774 8.29755 11.7802C6.02253 11.8401 3.9806 10.3674 3.4165 8.15024C2.57964 4.85693 5.03318 1.9003 8.15745 1.9003Z" fill="url(#paint0_linear_1423_7810)"/>
  <defs>
    <linearGradient id="paint0_linear_1423_7810" x1="17.8665" y1="23.0769" x2="18.032" y2="6.27406" gradientUnits="userSpaceOnUse">
      <stop stop-color="#D1CECE" stop-opacity="0.8"/>
      <stop offset="1" stop-color="#FFEBC8"/>
    </linearGradient>
  </defs>
</svg>