<svg width="48" height="48" viewBox="0 0 48 48" fill="none" xmlns="http://www.w3.org/2000/svg">
<rect y="0.000976562" width="48" height="48" rx="24" fill="#272727"/>
<path d="M23.9295 27.5174C28.6804 27.5174 32.7369 28.2706 32.7369 31.2846C32.7369 34.2973 28.7064 35.0779 23.9295 35.0779C19.1786 35.0779 15.122 34.3247 15.122 31.312C15.122 28.298 19.1526 27.5174 23.9295 27.5174ZM31.5255 25.7025C33.3418 25.6688 35.2945 25.9182 36.0161 26.0953C37.5447 26.3958 38.5502 27.0094 38.9668 27.901C39.3188 28.633 39.3188 29.4822 38.9668 30.2129C38.3295 31.5958 36.2752 32.0397 35.4767 32.1545C35.3119 32.1794 35.1792 32.036 35.1966 31.8702C35.6044 28.0381 32.3599 26.2213 31.5206 25.8035C31.4846 25.7848 31.4772 25.7561 31.4809 25.7387C31.4834 25.7262 31.4983 25.7063 31.5255 25.7025ZM16.1335 25.6999L16.4755 25.703C16.5028 25.7068 16.5164 25.7267 16.5189 25.7379C16.5226 25.7566 16.5152 25.7841 16.4805 25.804C15.6399 26.2218 12.3954 28.0386 12.8032 31.8694C12.8206 32.0365 12.6892 32.1787 12.5243 32.155C11.7259 32.0402 9.67154 31.5963 9.03429 30.2134C8.68095 29.4814 8.68095 28.6335 9.03429 27.9015C9.45086 27.0099 10.4551 26.3963 11.9837 26.0946C12.7065 25.9187 14.658 25.6693 16.4755 25.703L16.1335 25.6999ZM23.9295 12.9241C27.1641 12.9241 29.7577 15.5303 29.7577 18.7849C29.7577 22.0384 27.1641 24.6471 23.9295 24.6471C20.6949 24.6471 18.1012 22.0384 18.1012 18.7849C18.1012 15.5303 20.6949 12.9241 23.9295 12.9241ZM31.8417 13.9015C34.966 13.9015 37.4195 16.8581 36.5839 20.1514C36.0198 22.3686 33.9778 23.8413 31.7028 23.7814C31.4747 23.7752 31.2503 23.754 31.0333 23.7166C30.8759 23.6891 30.7965 23.5108 30.8858 23.3786C31.7537 22.0942 32.2483 20.5492 32.2483 18.8907C32.2483 17.1599 31.7078 15.5463 30.7693 14.2232C30.7395 14.182 30.7172 14.1184 30.747 14.0711C30.7717 14.0324 30.8176 14.0124 30.861 14.0025C31.1772 13.9376 31.502 13.9015 31.8417 13.9015ZM16.1575 13.9013C16.4972 13.9013 16.822 13.9375 17.1394 14.0023C17.1816 14.0123 17.2287 14.0335 17.2535 14.0709C17.282 14.1183 17.2609 14.1819 17.2312 14.2231C16.2926 15.5461 15.7521 17.1597 15.7521 18.8906C15.7521 20.5491 16.2468 22.0941 17.1146 23.3785C17.2039 23.5107 17.1245 23.689 16.9671 23.7164C16.7489 23.7551 16.5257 23.775 16.2976 23.7813C14.0226 23.8411 11.9806 22.3684 11.4165 20.1513C10.5797 16.858 13.0332 13.9013 16.1575 13.9013Z" fill="white"/>
</svg>
